<?xml version="1.0" encoding="utf-8"?>
<!-- Generator: Adobe Illustrator 19.2.0, SVG Export Plug-In . SVG Version: 6.00 Build 0)  -->
<svg version="1.1" id="Layer_1" xmlns="http://www.w3.org/2000/svg" xmlns:xlink="http://www.w3.org/1999/xlink" x="0px" y="0px"
	 viewBox="0 0 64 64" style="enable-background:new 0 0 64 64;" xml:space="preserve">
<style type="text/css">
	.st0{display:none;fill:#FFFFFF;}
	.st1{fill:#61AD7C;}
</style>
<g>
	<path class="st0" d="M0,31.9C0,21.4,0,11,0,0.5C0,0.1,0.1,0,0.5,0c21,0,42,0,63,0C63.9,0,64,0.1,64,0.5c0,20.9,0,41.8,0,62.7
		c0,0.4-0.1,0.5-0.5,0.5c-21,0-42,0-63,0c-0.4,0-0.5-0.1-0.5-0.5C0,52.8,0,42.3,0,31.9z M36,35.4c-1.8,2.2-4.6,2.9-7.3,1.6
		c-1.8-0.9-3-2.5-3.2-4.6c-0.2-2.1,0.6-3.8,2.2-5.1c0.1,0,0.1,0,0.1-0.1c0.7-0.5,1.5-0.8,2.4-1c0.4-0.1,0.8,0.1,1.1-0.2
		c1-0.9,1.9-1.9,2.8-2.8c0.1-0.1,0.3-0.3-0.1-0.4c-0.8-0.2-1.6-0.4-2.4-0.4c-1.6,0-3.2,0.2-4.7,1c-1.9,1-3.4,2.4-4.3,4.4
		c-1,2.1-1.2,4.3-0.6,6.6c0.6,2.2,1.8,4,3.7,5.3c1.4,0.9,2.8,1.5,4.5,1.7c1.4,0.1,2.7,0,4-0.4c1.8-0.6,3.3-1.5,4.5-3
		c1.4-1.7,2.1-3.6,2.2-5.7c0-0.9,0-1.9-0.4-2.8c-0.1-0.2,0.1-0.4-0.2-0.5c-0.2,0-0.3,0.2-0.5,0.3c-0.8,0.8-1.7,1.6-2.5,2.5
		c-0.1,0.1-0.3,0.3-0.3,0.5c0,1.1-0.5,2.2-1.1,3.1C36.1,35.3,36,35.3,36,35.4z M6.2,31.8c-0.1-1.2,0.1-2.3,0.3-3.5
		c0.4-2.7,1.2-5.3,2.4-7.7c1.4-2.7,3.2-5.1,5.5-7.2c1.8-1.7,3.8-3,6-4.1c1.9-1,4-1.7,6.1-2.1c1.6-0.3,3.3-0.5,4.9-0.5
		c1,0,2,0.1,3,0.2c1.4,0.1,2.8,0.4,4.2,0.8c1.6,0.5,3.2,1.1,4.7,1.9c0.5,0.3,0.8,0.2,1.1-0.2c0.5-0.5,1-1,1.5-1.5
		c0.8-0.8,0.8-0.8-0.2-1.4c-2.4-1.2-4.9-2.3-7.5-2.8C36.3,3.3,34.5,3,32.8,3c-1,0-2.1,0-3.1,0c-1.5,0-2.9,0.3-4.3,0.6
		c-1.6,0.3-3.2,0.8-4.8,1.4c-2.2,0.9-4.2,2-6.1,3.3c-1.9,1.3-3.5,2.9-5,4.6c-1.4,1.6-2.6,3.4-3.6,5.2c-1.2,2.1-2,4.4-2.6,6.7
		C3,26,2.8,27.2,2.7,28.4c-0.1,1.5-0.3,3-0.2,4.6c0.1,1.4,0.2,2.8,0.4,4.1C3.3,39.3,4,41.5,5,43.7c1.8,3.8,4.2,7.1,7.4,9.9
		c2.1,1.8,4.4,3.3,7,4.5c1.3,0.6,2.7,1.1,4.1,1.5c1.2,0.3,2.4,0.6,3.6,0.7c1.5,0.2,3,0.4,4.4,0.4c0.8,0,1.7-0.1,2.5-0.2
		c2-0.2,3.9-0.6,5.8-1.1c2.6-0.8,5.1-1.9,7.4-3.4c2.3-1.5,4.3-3.3,6.1-5.3c1.5-1.7,2.8-3.6,3.8-5.6c1-2,1.8-4,2.3-6.2
		c0.5-2,0.8-4,0.8-6c0-0.9,0-1.8,0-2.6c0-1.5-0.3-3-0.6-4.4c-0.3-1.6-0.8-3.2-1.4-4.7c-0.5-1.3-1.1-2.5-1.9-3.7
		c-0.2-0.4-0.3-0.4-0.7-0.1c-0.6,0.7-1.3,1.3-2,1.9c-0.3,0.3-0.3,0.6-0.2,0.9c1.1,2.1,2,4.4,2.4,6.7c0.3,1.5,0.5,3,0.5,4.5
		c0.1,1.5-0.1,3-0.4,4.6c-0.4,2.3-1.1,4.6-2.1,6.7c-1.4,2.9-3.3,5.4-5.6,7.6c-1.2,1.1-2.5,2.1-3.8,2.9c-2.3,1.4-4.7,2.5-7.3,3.1
		c-1.7,0.4-3.5,0.7-5.3,0.8c-2.7,0.1-5.3-0.3-7.9-1.1c-1.9-0.6-3.8-1.3-5.5-2.3c-2.7-1.5-5-3.5-6.9-5.9c-1.4-1.7-2.6-3.6-3.5-5.6
		c-0.9-1.9-1.5-3.9-1.8-6C6.4,34.7,6.2,33.2,6.2,31.8z M31.5,50.7c2,0.1,4.1-0.2,6.1-0.9c3.1-1.1,5.7-2.8,7.9-5.2
		c1.3-1.4,2.3-3,3.1-4.7c0.9-1.8,1.4-3.7,1.6-5.7c0.2-1.8,0.2-3.6-0.1-5.4c-0.4-2.4-1.2-4.6-2.5-6.7c-0.2-0.3-0.3-0.3-0.5-0.1
		c-0.7,0.7-1.4,1.4-2.2,2.2c-0.2,0.2-0.2,0.4-0.1,0.7c0.6,1,1,2,1.2,3.1c0.4,1.5,0.5,3.1,0.4,4.7c-0.1,2-0.5,3.8-1.4,5.5
		c-1.3,2.7-3.2,4.9-5.8,6.6c-1.5,0.9-3.1,1.6-4.8,2c-1.5,0.3-3,0.4-4.5,0.3c-0.8,0-1.5-0.2-2.2-0.3c-2.1-0.5-4-1.4-5.8-2.7
		c-1.7-1.3-3.1-2.9-4.2-4.8c-1.4-2.6-2.1-5.3-1.9-8.3c0.1-1.9,0.6-3.7,1.4-5.4c1.1-2.4,2.7-4.4,4.9-6c1.5-1.2,3.3-2,5.1-2.5
		c1.5-0.4,3.1-0.5,4.7-0.4c2.2,0.1,4.3,0.7,6.2,1.7c0.3,0.2,0.5,0.1,0.8-0.1c0.5-0.5,0.9-0.9,1.4-1.4c1.1-1.1,1.1-1.1-0.3-1.8
		c-2.1-1-4.2-1.7-6.5-2c-1.9-0.2-3.7-0.2-5.5,0.1c-2.1,0.3-4.1,1-5.9,2c-2.8,1.5-5.1,3.6-6.9,6.3c-1.4,2.2-2.4,4.6-2.8,7.2
		c-0.3,1.9-0.3,3.8-0.1,5.7c0.1,1.3,0.4,2.5,0.8,3.7c0.8,2.1,1.9,4.1,3.3,5.8c1.8,2.2,4,3.9,6.5,5.1C25.8,50.2,28.5,50.9,31.5,50.7z
		 M55.5,1.5c-3.1,3.1-6.2,6.2-9.3,9.2c-0.2,0.2-0.2,0.4-0.1,0.6c0.2,0.8,0.1,1.7,0.3,2.5c0,0.2-0.1,0.4-0.2,0.5
		c-0.4,0.3-0.7,0.7-1.1,1.1c-5,5-10,10-15,15c-0.7,0.7-0.8,2-0.1,2.7c0.6,0.7,2.1,0.7,2.8,0c5.3-5.3,10.6-10.6,15.9-15.9
		c0.2-0.2,0.4-0.5,0.7-0.4c0.6,0.2,1.2,0,1.8,0.2c0.7,0.2,1.3,0.1,1.8-0.5c2.7-2.8,5.4-5.5,8.2-8.2c0.2-0.2,0.4-0.3,0.4-0.5
		c-0.3-0.1-0.6-0.2-0.9-0.3c-1.3-0.3-2.5-0.6-3.8-0.9c-0.2,0-0.4-0.2-0.3-0.3c0-0.4-0.2-0.7-0.3-1.1C56.2,4,56,2.8,55.5,1.5z"/>
	<path class="st1" d="M6.2,31.8c0.1,1.4,0.2,2.9,0.5,4.3c0.3,2.1,1,4.1,1.8,6c0.9,2,2.1,3.9,3.5,5.6c2,2.4,4.3,4.4,6.9,5.9
		c1.7,1,3.6,1.8,5.5,2.3c2.6,0.7,5.2,1.2,7.9,1.1c1.8-0.1,3.6-0.4,5.3-0.8c2.6-0.6,5.1-1.7,7.3-3.1c1.4-0.9,2.6-1.8,3.8-2.9
		c2.4-2.2,4.2-4.7,5.6-7.6c1-2.1,1.7-4.4,2.1-6.7c0.2-1.5,0.5-3,0.4-4.6c-0.1-1.5-0.2-3-0.5-4.5c-0.5-2.4-1.3-4.6-2.4-6.7
		c-0.2-0.4-0.2-0.6,0.2-0.9c0.7-0.6,1.3-1.3,2-1.9c0.3-0.3,0.4-0.3,0.7,0.1c0.7,1.2,1.3,2.5,1.9,3.7c0.6,1.5,1.1,3.1,1.4,4.7
		c0.3,1.5,0.6,2.9,0.6,4.4c0,0.9,0,1.8,0,2.6c0,2.1-0.3,4.1-0.8,6C59,41,58.3,43,57.2,45c-1.1,2-2.3,3.9-3.8,5.6
		c-1.8,2-3.8,3.8-6.1,5.3c-2.3,1.5-4.8,2.7-7.4,3.4C38,60,36,60.4,34,60.5c-0.8,0.1-1.7,0.2-2.5,0.2c-1.5,0-3-0.2-4.4-0.4
		c-1.2-0.2-2.4-0.4-3.6-0.7c-1.4-0.4-2.8-0.9-4.1-1.5c-2.5-1.2-4.8-2.7-7-4.5c-3.2-2.8-5.6-6.1-7.4-9.9c-1-2.1-1.7-4.4-2.1-6.6
		c-0.2-1.4-0.3-2.7-0.4-4.1c-0.1-1.5,0.1-3,0.2-4.6C2.8,27.2,3,26,3.3,24.8c0.6-2.3,1.4-4.6,2.6-6.7c1-1.8,2.2-3.6,3.6-5.2
		c1.5-1.7,3.2-3.3,5-4.6C16.5,7,18.5,5.9,20.7,5c1.5-0.6,3.1-1.1,4.8-1.4C26.8,3.3,28.2,3,29.7,3c1,0,2.1,0,3.1,0
		c1.8,0,3.5,0.3,5.2,0.7c2.6,0.6,5.1,1.6,7.5,2.8c1.1,0.6,1.1,0.5,0.2,1.4c-0.5,0.5-1,0.9-1.5,1.5c-0.3,0.4-0.7,0.5-1.1,0.2
		c-1.5-0.8-3-1.4-4.7-1.9c-1.4-0.4-2.7-0.7-4.2-0.8c-1-0.1-2-0.2-3-0.2c-1.7,0-3.3,0.2-4.9,0.5c-2.1,0.4-4.1,1.1-6.1,2.1
		c-2.2,1.1-4.2,2.5-6,4.1c-2.3,2.1-4.1,4.5-5.5,7.2c-1.3,2.4-2,5-2.4,7.7C6.3,29.5,6.1,30.6,6.2,31.8z"/>
	<path class="st1" d="M31.5,50.7c-3,0.1-5.7-0.5-8.3-1.8c-2.5-1.2-4.7-2.9-6.5-5.1c-1.5-1.8-2.5-3.7-3.3-5.8
		c-0.4-1.2-0.7-2.4-0.8-3.7c-0.2-1.9-0.2-3.8,0.1-5.7c0.4-2.6,1.4-5,2.8-7.2c1.7-2.7,4.1-4.8,6.9-6.3c1.9-1,3.9-1.7,5.9-2
		c1.8-0.3,3.7-0.2,5.5-0.1c2.3,0.2,4.4,1,6.5,2c1.5,0.7,1.5,0.7,0.3,1.8c-0.5,0.5-1,0.9-1.4,1.4c-0.2,0.2-0.4,0.3-0.8,0.1
		c-2-1-4-1.6-6.2-1.7c-1.6-0.1-3.2,0-4.7,0.4c-1.8,0.5-3.6,1.3-5.1,2.5c-2.1,1.6-3.8,3.5-4.9,6c-0.8,1.7-1.2,3.5-1.4,5.4
		c-0.2,3,0.5,5.7,1.9,8.3c1,1.9,2.4,3.4,4.2,4.8c1.7,1.3,3.7,2.2,5.8,2.7c0.7,0.2,1.4,0.3,2.2,0.3c1.5,0.1,3.1,0,4.5-0.3
		c1.7-0.4,3.3-1,4.8-2c2.6-1.6,4.5-3.8,5.8-6.6c0.8-1.7,1.3-3.6,1.4-5.5c0-1.6,0-3.2-0.4-4.7c-0.3-1.1-0.7-2.1-1.2-3.1
		c-0.2-0.3-0.2-0.5,0.1-0.7c0.7-0.7,1.5-1.4,2.2-2.2c0.2-0.3,0.4-0.2,0.5,0.1c1.3,2.1,2.1,4.3,2.5,6.7c0.3,1.8,0.2,3.6,0.1,5.4
		c-0.2,2-0.8,3.9-1.6,5.7c-0.8,1.7-1.9,3.3-3.1,4.7c-2.2,2.4-4.9,4.1-7.9,5.2C35.6,50.5,33.5,50.9,31.5,50.7z"/>
	<path class="st1" d="M55.5,1.5c0.5,1.3,0.7,2.5,1,3.7c0.1,0.4,0.3,0.7,0.3,1.1c0,0.1,0.2,0.3,0.3,0.3c1.3,0.3,2.5,0.6,3.8,0.9
		c0.3,0.1,0.6,0.2,0.9,0.3c0,0.3-0.3,0.4-0.4,0.5c-2.7,2.7-5.5,5.4-8.2,8.2c-0.6,0.6-1.1,0.7-1.8,0.5c-0.6-0.2-1.2,0-1.8-0.2
		c-0.3-0.1-0.5,0.2-0.7,0.4c-5.3,5.3-10.6,10.6-15.9,15.9c-0.7,0.7-2.3,0.7-2.8,0c-0.6-0.7-0.6-2,0.1-2.7c5-5,10-10,15-15
		c0.4-0.4,0.7-0.7,1.1-1.1c0.2-0.2,0.3-0.3,0.2-0.5c-0.2-0.8-0.1-1.7-0.3-2.5c-0.1-0.2-0.1-0.4,0.1-0.6C49.3,7.7,52.3,4.7,55.5,1.5z
		"/>
	<path class="st1" d="M36.1,35.3c0.7-0.9,1.1-2,1.1-3.1c0-0.2,0.2-0.4,0.3-0.5c0.8-0.8,1.7-1.7,2.5-2.5c0.1-0.1,0.2-0.3,0.5-0.3
		c0.3,0.1,0.1,0.3,0.2,0.5c0.3,0.9,0.4,1.9,0.4,2.8c-0.1,2.1-0.8,4-2.2,5.7c-1.2,1.5-2.7,2.5-4.5,3c-1.3,0.4-2.6,0.5-4,0.4
		c-1.7-0.2-3.2-0.8-4.5-1.7c-1.9-1.3-3.1-3.1-3.7-5.3c-0.6-2.3-0.4-4.5,0.6-6.6c0.9-2,2.4-3.4,4.3-4.4c1.5-0.8,3.1-1,4.7-1
		c0.8,0,1.6,0.2,2.4,0.4c0.3,0.1,0.2,0.3,0.1,0.4c-0.9,0.9-1.9,1.9-2.8,2.8c-0.3,0.3-0.7,0.1-1.1,0.2c-0.9,0.2-1.7,0.5-2.4,1
		c0,0-0.1,0.1-0.1,0.1c-1.6,1.3-2.5,3-2.2,5.1c0.2,2.1,1.3,3.7,3.2,4.6c2.6,1.3,5.4,0.6,7.3-1.6C36.1,35.3,36.1,35.3,36.1,35.3z"/>
	<path class="st1" d="M27.9,27.2c0,0,0.1-0.1,0.1-0.1C28,27.2,27.9,27.2,27.9,27.2z"/>
	<path class="st1" d="M36.1,35.3c0,0-0.1,0.1-0.1,0.1C36,35.3,36.1,35.3,36.1,35.3z"/>
</g>
</svg>
