<svg class="svgicon" id="svg120" preserveAspectRatio="xMidYMid meet" xmlns="http://www.w3.org/2000/svg" viewBox="0 0 60 60"><style> #svg120 path, #svg120 circle, #svg120 polygon, #svg120 rect { fill: rgb(96, 181, 126) } #svg120 defs &gt; path { fill: none }  #svg120 path[fill="none"], #svg120 circle[fill="none"], #svg120 polygon[fill="none"], #svg120 rect[fill="none"] { fill: none } </style><style type="text/css"> #svg120 .st0{fill:rgb(96, 181, 126);} #svg120 .st1{clip-path:url(#SVGID_2_);} #svg120 .st2{fill:none;stroke:rgb(96, 181, 126);stroke-width:1.5;stroke-linecap:round;stroke-linejoin:round;stroke-miterlimit:10;} </style><path class="st0" d="M30.001,59.75C13.597,59.75,0.25,46.404,0.25,30c0-16.404,13.347-29.75,29.751-29.75 C46.404,0.25,59.75,13.596,59.75,30C59.75,46.404,46.404,59.75,30.001,59.75z M30.001,1.75C14.424,1.75,1.75,14.423,1.75,30 c0,15.577,12.674,28.25,28.251,28.25C45.577,58.25,58.25,45.577,58.25,30C58.25,14.423,45.577,1.75,30.001,1.75z"></path><path class="st0" d="M30.001,33.825c-2.109,0-3.826-1.716-3.826-3.825s1.717-3.825,3.826-3.825c0.417,0,0.826,0.066,1.217,0.198 c0.171,0.058,0.308,0.171,0.396,0.313c0.168-0.013,0.342,0.021,0.492,0.12c1.077,0.71,1.72,1.904,1.72,3.194 C33.826,32.109,32.11,33.825,30.001,33.825z M30.001,27.675c-1.282,0-2.326,1.043-2.326,2.325s1.044,2.325,2.326,2.325 s2.325-1.043,2.325-2.325c0-0.784-0.391-1.51-1.046-1.942c-0.093-0.061-0.168-0.14-0.224-0.229c-0.102,0.012-0.21,0-0.317-0.035 C30.503,27.715,30.255,27.675,30.001,27.675z"></path><path class="st0" d="M30.002,41.247c-6.203,0-11.249-5.045-11.249-11.247s5.046-11.247,11.249-11.247 c1.209,0,2.398,0.191,3.534,0.567c0.394,0.13,0.606,0.554,0.477,0.948c-0.131,0.393-0.556,0.604-0.947,0.476 c-0.984-0.326-2.015-0.491-3.063-0.491c-5.376,0-9.749,4.373-9.749,9.747s4.373,9.747,9.749,9.747 c5.374,0,9.746-4.373,9.746-9.747c0-3.325-1.67-6.389-4.467-8.195c-0.348-0.225-0.447-0.689-0.223-1.037 c0.225-0.347,0.688-0.449,1.037-0.223c3.227,2.083,5.152,5.618,5.152,9.455C41.248,36.202,36.203,41.247,30.002,41.247z"></path><path class="st0" d="M46.965,40.775c-0.13,0-0.262-0.034-0.381-0.104c-0.356-0.211-0.475-0.671-0.264-1.028 c1.723-2.908,2.633-6.242,2.633-9.643c0-6.462-3.244-12.417-8.679-15.926c-0.348-0.225-0.447-0.689-0.223-1.037 c0.225-0.347,0.688-0.45,1.037-0.223c5.863,3.787,9.364,10.212,9.364,17.186c0,3.669-0.982,7.269-2.842,10.408 C47.471,40.644,47.222,40.775,46.965,40.775z"></path><path class="st0" d="M30.013,50.443c-8.12,0-15.474-4.805-18.733-12.24c-0.167-0.379,0.006-0.822,0.386-0.988 c0.376-0.167,0.821,0.006,0.987,0.386c3.021,6.891,9.836,11.343,17.36,11.343c5.589,0,10.865-2.451,14.476-6.724 c0.268-0.318,0.739-0.357,1.058-0.089c0.316,0.267,0.355,0.74,0.089,1.057C41.738,47.799,36.044,50.443,30.013,50.443z"></path><path class="st0" d="M10.907,35.557c-0.336,0-0.642-0.227-0.727-0.567C9.773,33.366,9.567,31.688,9.567,30 c0-11.272,9.172-20.443,20.445-20.443c2.244,0,4.45,0.361,6.557,1.074c0.393,0.133,0.603,0.559,0.47,0.951 c-0.133,0.393-0.563,0.601-0.95,0.47c-1.951-0.66-3.995-0.995-6.076-0.995c-10.446,0-18.945,8.498-18.945,18.943 c0,1.564,0.191,3.121,0.568,4.625c0.101,0.402-0.144,0.81-0.545,0.91C11.029,35.55,10.968,35.557,10.907,35.557z"></path><path class="st0" d="M30,30.75c-0.109,0-0.221-0.024-0.325-0.074c-0.341-0.164-0.507-0.557-0.386-0.916l9.279-27.48 c0.134-0.393,0.557-0.603,0.951-0.471c0.393,0.132,0.603,0.558,0.471,0.95l-7.326,21.694L44.993,5.22 c0.224-0.349,0.688-0.451,1.036-0.227c0.35,0.224,0.45,0.688,0.228,1.036L30.632,30.405C30.489,30.626,30.248,30.75,30,30.75z"></path><path class="st0" d="M11.436,38.766c-1.318,0-2.391-1.073-2.391-2.392c0-1.318,1.072-2.391,2.391-2.391 c1.319,0,2.394,1.073,2.394,2.391C13.829,37.693,12.755,38.766,11.436,38.766z M11.436,35.483c-0.491,0-0.891,0.4-0.891,0.891 c0,0.492,0.399,0.892,0.891,0.892c0.493,0,0.894-0.4,0.894-0.892C12.329,35.883,11.929,35.483,11.436,35.483z"></path><path class="st0" d="M45.913,43.693c-1.318,0-2.391-1.073-2.391-2.392c0-1.319,1.072-2.393,2.391-2.393 c1.319,0,2.394,1.073,2.394,2.393C48.307,42.62,47.232,43.693,45.913,43.693z M45.913,40.409c-0.491,0-0.891,0.4-0.891,0.893 c0,0.492,0.399,0.892,0.891,0.892c0.493,0,0.894-0.4,0.894-0.892C46.807,40.809,46.406,40.409,45.913,40.409z"></path></svg>