<?xml version="1.0" encoding="utf-8"?>
<!-- Generator: Adobe Illustrator 19.2.0, SVG Export Plug-In . SVG Version: 6.00 Build 0)  -->
<svg version="1.1" id="Layer_1" xmlns="http://www.w3.org/2000/svg" xmlns:xlink="http://www.w3.org/1999/xlink" x="0px" y="0px"
	 viewBox="0 0 64 64" style="enable-background:new 0 0 64 64;" xml:space="preserve">
<style type="text/css">
	.st0{display:none;fill:#FFFFFF;}
	.st1{fill:#61AD7C;}
</style>
<g>
	<path class="st0" d="M32,65.1c-10.5,0-21,0-31.5,0C0.1,65.1,0,65,0,64.6c0-21.3,0-42.7,0-64C0,0.1,0.1,0,0.6,0c21,0,41.9,0,62.9,0
		C63.9,0,64,0.1,64,0.5c0,21.3,0,42.6,0,63.9c0,0.5-0.1,0.6-0.6,0.6C52.9,65.1,42.5,65.1,32,65.1z M32.1,55.6c7.7,0,15.5,0,23.2,0
		c0.8,0,1.6-0.1,2.3-0.3c3-0.9,5.2-3.8,5.2-7.1c0-9.6,0-19.3,0-28.9c0-2.4-0.9-4.4-2.8-5.9c-1.3-1-2.7-1.6-4.4-1.6
		c-3.8,0-7.6,0-11.4,0c-0.4,0-0.6-0.1-0.6-0.6c0-0.9-0.1-1.7-0.2-2.6c-0.4-2.2-2.9-4.2-4.9-4.2c-4.1,0.1-8.2,0.1-12.4,0
		c-1.4,0-2.6,0.3-3.7,1.2c-0.9,0.8-1.6,1.8-1.9,3c-0.2,0.9-0.1,1.8-0.1,2.7c0,0.5-0.2,0.6-0.6,0.6c-4,0-8.1,0-12.1,0
		c-0.2,0-0.5,0-0.7,0.1C5.6,12.2,4.1,13,3,14.3c-1,1.2-1.6,2.6-1.6,4.2c0,10,0,19.9,0,29.9c0,1,0.2,1.9,0.6,2.7
		c1.3,2.9,3.6,4.4,6.7,4.4C16.4,55.7,24.3,55.6,32.1,55.6z"/>
	<path class="st1" d="M32.1,55.6c-7.8,0-15.7,0-23.5,0c-3.1,0-5.3-1.6-6.7-4.4c-0.4-0.9-0.6-1.8-0.6-2.7c0-10,0-19.9,0-29.9
		c0-1.6,0.7-3,1.6-4.2c1.1-1.3,2.5-2.1,4.1-2.5c0.2-0.1,0.5-0.1,0.7-0.1c4,0,8.1,0,12.1,0c0.5,0,0.6-0.1,0.6-0.6
		c0-0.9-0.1-1.8,0.1-2.7c0.3-1.2,0.9-2.2,1.9-3c1.1-0.9,2.3-1.2,3.7-1.2c4.1,0.1,8.2,0.1,12.4,0c2,0,4.5,2,4.9,4.2
		c0.2,0.9,0.3,1.7,0.2,2.6c0,0.5,0.2,0.6,0.6,0.6c3.8,0,7.6,0,11.4,0c1.7,0,3.1,0.6,4.4,1.6c1.9,1.5,2.8,3.5,2.8,5.9
		c0,9.6,0,19.3,0,28.9c0,3.2-2.2,6.2-5.2,7.1c-0.8,0.2-1.5,0.3-2.3,0.3C47.6,55.6,39.9,55.6,32.1,55.6z M24.8,38.9
		c-0.1,0-0.1,0-0.1,0.1c-0.4,0.5-0.8,0.9-0.6,1.6c0.5,1.4,1.2,2.5,2.4,3.4c0,0.1,0,0.1,0.1,0.1c1,0.8,2.2,1.3,3.4,1.5
		c0.3,0.1,0.4,0.2,0.4,0.5c0,0.6,0,1.1,0,1.7c0,0.8,0.8,1.6,1.5,1.7c0.8,0.1,1.6-0.4,1.8-1.2c0.2-0.7,0.1-1.4,0.1-2.1
		c0-0.4,0.1-0.6,0.5-0.7c1.1-0.3,2.1-0.9,2.9-1.7c0.1,0,0.1,0,0.1-0.1c0.1-0.1,0.2-0.2,0.3-0.3c1.1-1.4,1.8-2.9,1.7-4.8
		c-0.1-1.2-0.4-2.3-1.1-3.3c-1.4-2.1-3.6-3-5.9-3.5c-1.1-0.3-2.1-0.7-3-1.4c-1.3-1-1.3-3.3-0.2-4.4c1.2-1.2,2.6-1.4,4.2-1.1
		c1.6,0.3,2.9,1,3.5,2.7c0.3,0.7,1.3,1.2,2,0.9c1-0.4,1.4-1.2,1.1-2.2c-0.3-0.9-0.8-1.8-1.5-2.5c-1.2-1.2-2.6-2-4.3-2.3
		c-0.3-0.1-0.5-0.2-0.4-0.6c0-0.6,0-1.1,0-1.7c0-1-0.8-1.7-1.7-1.7c-0.9,0-1.7,0.8-1.7,1.7c0,0.6,0,1.2,0,1.8c0,0.2,0,0.3-0.2,0.4
		c-1.6,0.5-2.9,1.3-3.9,2.6c-1.5,2-1.8,4.4-0.8,6.5c1.1,2.3,3,3.5,5.3,4.2c1.2,0.4,2.6,0.5,3.7,1.3c1.1,0.8,1.7,1.8,1.4,3.1
		c-0.2,1.2-1,2.2-2.2,2.6c-1.3,0.5-2.7,0.4-3.9-0.1c-1-0.4-1.9-1.1-2.2-2.1C27.1,38.8,25.8,38.2,24.8,38.9z M32,11.7
		c2.4,0,4.7,0,7.1,0c0.4,0,0.6-0.1,0.6-0.6c0-0.4,0-0.8,0-1.1c0.2-1.2-0.9-1.9-1.8-1.9c-3.8,0-7.7,0-11.5,0c-0.9,0-1.5,0.5-1.8,1.3
		c-0.2,0.6-0.1,1.2-0.1,1.8c0,0.4,0.1,0.5,0.5,0.5C27.3,11.7,29.6,11.7,32,11.7z"/>
	<path class="st0" d="M26.5,44c-1.2-0.9-1.9-2.1-2.4-3.4c-0.2-0.6,0.2-1.1,0.6-1.6c0,0,0.1-0.1,0.1-0.1c1-0.7,2.3-0.1,2.7,1
		c0.4,1.1,1.2,1.8,2.2,2.1c1.3,0.5,2.6,0.5,3.9,0.1c1.2-0.4,2-1.3,2.2-2.6c0.2-1.3-0.4-2.3-1.4-3.1c-1.1-0.8-2.4-1-3.7-1.3
		c-2.3-0.7-4.3-1.9-5.3-4.2c-1-2.1-0.7-4.5,0.8-6.5c1-1.4,2.4-2.2,3.9-2.6c0.3-0.1,0.2-0.2,0.2-0.4c0-0.6,0-1.2,0-1.8
		c0-0.9,0.7-1.7,1.7-1.7c0.9,0,1.7,0.7,1.7,1.7c0,0.6,0,1.1,0,1.7c0,0.4,0.1,0.5,0.4,0.6c1.7,0.3,3.1,1.1,4.3,2.3
		c0.7,0.7,1.2,1.5,1.5,2.5c0.3,1-0.1,1.8-1.1,2.2c-0.6,0.3-1.7-0.2-2-0.9c-0.6-1.7-1.9-2.4-3.5-2.7c-1.6-0.3-3-0.1-4.2,1.1
		c-1.1,1.1-1.1,3.4,0.2,4.4c0.9,0.7,1.9,1.1,3,1.4c2.3,0.6,4.5,1.5,5.9,3.5c0.7,1,1,2,1.1,3.3c0.1,1.9-0.6,3.4-1.7,4.8
		c-0.1,0.1-0.2,0.2-0.3,0.3c0,0-0.1,0.1-0.1,0.1c-0.9,0.8-1.8,1.4-2.9,1.7c-0.4,0.1-0.5,0.3-0.5,0.7c0,0.7,0.1,1.4-0.1,2.1
		c-0.3,0.9-1,1.3-1.8,1.2c-0.7-0.1-1.5-1-1.5-1.7c0-0.5,0-1.1,0-1.7c0-0.3,0-0.4-0.4-0.5c-1.2-0.3-2.4-0.7-3.4-1.5
		C26.6,44.1,26.5,44,26.5,44z"/>
	<path class="st0" d="M32,11.7c-2.4,0-4.8,0-7.1,0c-0.4,0-0.6-0.1-0.5-0.5c0.1-0.6-0.1-1.2,0.1-1.8c0.3-0.8,0.9-1.3,1.8-1.3
		c3.8,0,7.7,0,11.5,0c0.9,0,2,0.7,1.8,1.9c0,0.4,0,0.8,0,1.1c0,0.5-0.1,0.6-0.6,0.6C36.7,11.7,34.4,11.7,32,11.7z"/>
	<path class="st0" d="M24.8,38.9c0,0-0.1,0.1-0.1,0.1C24.7,39,24.8,38.9,24.8,38.9z"/>
	<path class="st0" d="M37.1,43.9c0,0,0.1-0.1,0.1-0.1C37.3,43.8,37.2,43.9,37.1,43.9z"/>
	<path class="st0" d="M26.5,44c0,0,0.1,0.1,0.1,0.1C26.5,44.1,26.5,44.1,26.5,44z"/>
</g>
</svg>
