<svg class="svgicon" id="svg24" preserveAspectRatio="xMidYMid meet" xmlns="http://www.w3.org/2000/svg" viewBox="0 0 60 60"><style> #svg24 path, #svg24 circle, #svg24 polygon, #svg24 rect { fill: rgb(48, 48, 48) } #svg24 defs &gt; path { fill: none }  #svg24 path[fill="none"], #svg24 circle[fill="none"], #svg24 polygon[fill="none"], #svg24 rect[fill="none"] { fill: none } </style><style type="text/css"> #svg24 .st0{fill:none;stroke:rgb(48, 48, 48);stroke-width:1.5;stroke-linecap:round;stroke-linejoin:round;stroke-miterlimit:10;} </style><circle class="st0" cx="29.991" cy="15.185" r="8.599"></circle><path class="st0" d="M32.107,12.588c-0.073-0.624-0.291-1.115-0.65-1.473c-0.278-0.275-0.653-0.443-1.126-0.502h-0.483 c-0.539,0.066-0.949,0.245-1.229,0.536c-0.409,0.431-0.612,0.997-0.612,1.696c0,0.395,0.069,0.746,0.208,1.055 c0.139,0.309,0.34,0.549,0.601,0.72c0.353,0.238,0.697,0.395,1.032,0.469l0.418,0.118c0.335,0.074,0.68,0.231,1.033,0.468 c0.261,0.171,0.461,0.412,0.6,0.72c0.14,0.309,0.209,0.661,0.209,1.056c0,0.699-0.204,1.265-0.613,1.696 c-0.28,0.291-0.688,0.469-1.229,0.536h-0.483c-0.472-0.059-0.847-0.227-1.125-0.502c-0.359-0.358-0.577-0.849-0.65-1.473"></path><line class="st0" x1="30.003" y1="20.085" x2="30.003" y2="10.146"></line><path class="st0" d="M11.771,37.233c0.996,1.347,2.309,2.979,3.623,4.196c2.678,2.479,7.574,4.706,7.574,4.706 l12.039,7.084c0.696,0.367,1.754,0.232,2.245-0.565c0.411-0.668,0.262-1.527-0.301-2.1l2.522,1.672 c0.795,0.474,2.043,0.384,2.668-0.52c0.424-0.614,0.431-1.4,0.086-2.053c-0.163-0.309-0.703-0.834-0.703-0.834 l1.025,0.583c0.84,0.484,2.148,0.366,2.79-0.591c0.642-0.96,0.323-2.297-0.71-2.988l-0.957-0.629 c0.764,0.207,1.608-0.061,2.096-0.743c0.625-0.877,0.422-2.094-0.838-2.995l-11.199-7.649 c-0.166-0.117-0.973-0.678-1.992-1.336l-1.722-1.458l0.021-0.158c1.272-0.046,3.289-0.047,3.961,0.373 M30.057,26.563 c-2.478-0.186-6.086-1.164-6.97-1.363 M22.969,46.134c0.004,0.002,0.008,0.005,0.012,0.007L22.969,46.134z"></path><path class="st0" d="M37.96,24.928l-1.071,0.366c-0.885,0.2-5.562,1.241-8.039,1.426c-1.738,0.131-2.186,0.674-2.186,0.674 l-3.52,2.407l-0.539,0.434c0,0,1.213,2.519,3.66,0.993c0.672-0.42,2.69-0.419,3.963-0.373 M44.873,41.429 c1.125-1.042,2.25-2.389,3.174-3.6 M15.336,41.457c-1.26,0.901-1.464,2.118-0.838,2.995c0.486,0.682,1.332,0.95,2.096,0.742 l-0.957,0.629c-1.034,0.69-1.352,2.028-0.71,2.988c0.642,0.958,1.949,1.076,2.79,0.591l1.843-1.153l-0.802,0.602 c-0.976,0.672-1.258,1.952-0.633,2.856s1.873,0.994,2.667,0.52l2.522-1.672c-0.562,0.573-0.711,1.432-0.3,2.1 c0.491,0.797,1.549,0.932,2.245,0.565l4.926-2.898"></path><path class="st0" d="M1,29.599l9.755,8.202c0.972,0.756,12.465-14.014,11.493-14.768L2.184,6.986"></path><path class="st0" d="M57.893,7.073L38.326,22.726C37.355,23.48,48.85,38.25,49.82,37.494L59,29.733"></path><line class="st0" x1="43.674" y1="45.195" x2="30.882" y2="36.564"></line><line class="st0" x1="41.543" y1="48.853" x2="27.6" y2="39.56"></line><line class="st0" x1="36.935" y1="50.551" x2="24.508" y2="42.286"></line><line class="st0" x1="16.594" y1="45.194" x2="18.671" y2="43.879"></line><line class="st0" x1="19.56" y1="48.25" x2="22.969" y2="46.135"></line><line class="st0" x1="23.314" y1="50.555" x2="26.771" y2="48.4"></line></svg>