<svg class="svgicon" id="svg85" preserveAspectRatio="xMidYMid meet" xmlns="http://www.w3.org/2000/svg" viewBox="0 0 128 128"><rect x="1.92" y="1.92" width="124.16" height="124.16" style="stroke: rgb(126, 199, 254); fill: none; stroke-alignment: inside; stroke-width: 3.84" rx="62.08" ry="62.08"></rect><g transform="scale(0.77) translate(19.116883116883116, 19.116883116883116)"><style> #svg85 path, #svg85 circle, #svg85 polygon, #svg85 rect { fill: rgb(126, 199, 254) } #svg85 defs &gt; path { fill: none }  #svg85 path[fill="none"], #svg85 circle[fill="none"], #svg85 polygon[fill="none"], #svg85 rect[fill="none"] { fill: none } </style><style type="text/css"> #svg85 .st0{fill:rgb(126, 199, 254);} </style><path class="st0" d="M58.049,94.68c-5.25,0.795-11.137,1.086-15.679,1.086c-8.47,0-21.61-1.009-26.577-4.426v7.469 c0,2.604,10.915,5.504,26.577,5.504c6.268,0,11.771-0.465,16.123-1.189c-0.288-0.477-0.444-0.988-0.444-1.538V94.68z"></path><path class="st0" d="M67.949,61.481c-5.562,2.933-17.63,3.818-25.578,3.818s-20.016-0.886-25.577-3.818v6.158 c0.444,1.555,9.623,4.504,25.577,4.504c6.356,0,11.617-0.472,15.699-1.135c0.002-0.014,0.002-0.027,0.004-0.04 c-0.008-0.087-0.024-0.171-0.024-0.26c0-2.892,4.284-4.745,9.9-5.889L67.949,61.481z"></path><path class="st0" d="M16.793,71.325v0.196v6.159c0.307,1.073,4.781,2.811,12.771,3.784c3.582,0.437,7.868,0.72,12.807,0.72 c4.937,0,9.221-0.283,12.803-0.721c1.022-0.124,1.97-0.264,2.876-0.411v-6.799v-0.197c-5.251,0.795-11.136,1.087-15.679,1.087 C34.422,75.144,22.355,74.258,16.793,71.325z"></path><path class="st0" d="M58.049,84.542c-0.387,0.059-0.778,0.112-1.171,0.165c-4.941,0.669-10.3,0.922-14.508,0.922 c-4.206,0-9.561-0.252-14.498-0.92c-1.526-0.207-3.014-0.45-4.412-0.742c-1.098-0.229-2.14-0.486-3.108-0.773 c-1.352-0.4-2.562-0.857-3.559-1.383v2.767v1.714v1.875c0.005,0.019,0.027,0.039,0.035,0.059c0.644,1.568,9.777,4.445,25.542,4.445 c6.346,0,11.6-0.47,15.679-1.132c0.001-0.072,0.012-0.142,0.021-0.21c-0.006-0.077-0.021-0.15-0.021-0.229v-6.213V84.542z"></path><path class="st0" d="M42.371,30.918c15.952,0,25.133-2.949,25.58-4.53c-0.448-1.527-9.63-4.477-25.58-4.477 c-15.952,0-25.132,2.949-25.58,4.529C17.238,27.969,26.417,30.918,42.371,30.918z"></path><path class="st0" d="M67.949,30.605c-5.562,2.933-17.63,3.818-25.578,3.818s-20.016-0.886-25.577-3.818v6.158 c0.444,1.555,9.623,4.504,25.577,4.504c15.921,0,25.097-2.938,25.577-4.521c0-0.016,0.002-0.03,0.003-0.045L67.949,30.605z"></path><path class="st0" d="M42.371,44.268c-7.948,0-20.016-0.886-25.577-3.818v0.197v6.158c0.302,1.056,4.641,2.752,12.384,3.734 c3.353,0.425,7.354,0.709,11.938,0.755c0.42,0.005,0.826,0.015,1.256,0.015s0.835-0.01,1.255-0.015 c4.581-0.046,8.582-0.33,11.935-0.756c7.745-0.983,12.087-2.687,12.391-3.76l-0.002-6.133v-0.196 C62.387,43.382,50.319,44.268,42.371,44.268z"></path><path class="st0" d="M32.161,61.352c0.101,0.01,0.211,0.017,0.312,0.025c0.643,0.057,1.294,0.111,1.973,0.157 c0.621,0.042,1.269,0.076,1.92,0.109c0.174,0.009,0.337,0.021,0.513,0.028c0.837,0.038,1.697,0.068,2.581,0.089 c0.944,0.021,1.915,0.033,2.912,0.033c15.952,0,25.133-2.949,25.58-4.53l-0.001-1.942v-1.715l-0.001-2.672 c-0.956,0.504-2.115,0.943-3.402,1.333c-0.948,0.287-1.969,0.545-3.046,0.774c-1.354,0.289-2.791,0.534-4.271,0.741 c-5.036,0.706-10.551,0.97-14.858,0.97c-4.306,0-9.814-0.264-14.849-0.968c-1.484-0.208-2.924-0.454-4.281-0.743 c-1.077-0.23-2.098-0.488-3.046-0.774c-1.286-0.39-2.445-0.829-3.401-1.333v2.671v1.714v1.971c0.001,0.003,0.005,0.007,0.006,0.011 c-0.001,0.005-0.008,0.011-0.009,0.016C17.131,58.48,22.543,60.471,32.161,61.352z"></path><path class="st0" d="M62.219,71.722c0.082,0.043,0.189,0.087,0.279,0.131c0.545,0.26,1.24,0.527,2.081,0.795 c0.107,0.034,0.209,0.068,0.321,0.103c0.876,0.267,1.887,0.53,3.049,0.78c0.473,0.103,0.979,0.2,1.498,0.298 c0.478,0.089,0.983,0.173,1.5,0.257c4.079,0.658,9.333,1.128,15.679,1.128c15.953,0,25.133-2.949,25.58-4.53 c-0.448-1.527-9.63-4.477-25.58-4.477c-6.346,0-11.6,0.47-15.679,1.132c-0.01,0.002-0.02,0.003-0.03,0.005 c-0.506,0.082-1.001,0.166-1.47,0.254c-0.542,0.101-1.064,0.205-1.556,0.312c-0.051,0.012-0.096,0.023-0.146,0.034 c-3.602,0.799-5.82,1.728-6.493,2.464c-0.073,0.081-0.111,0.156-0.148,0.232c-0.015,0.031-0.049,0.066-0.058,0.097 C61.13,71.023,61.527,71.362,62.219,71.722z"></path><path class="st0" d="M86.626,78.719c-4.542,0-10.428-0.292-15.679-1.087c-0.031-0.005-0.062-0.011-0.094-0.016 c-0.474-0.072-0.944-0.146-1.406-0.228c-0.389-0.067-0.766-0.142-1.144-0.216c-0.117-0.023-0.238-0.044-0.354-0.067 c-2.727-0.555-5.142-1.277-6.901-2.205v5.595v0.444v0.119c0.067,0.234,0.357,0.503,0.815,0.787 c0.166,0.102,0.353,0.205,0.568,0.312c0.45,0.222,0.999,0.449,1.664,0.678c0.221,0.075,0.463,0.151,0.707,0.227 c0.898,0.279,1.938,0.555,3.146,0.815c0.473,0.102,0.979,0.201,1.498,0.298c0.479,0.089,0.983,0.174,1.5,0.258 c4.079,0.66,9.333,1.13,15.679,1.13c15.922,0,25.097-2.938,25.577-4.521c0-0.016,0.002-0.03,0.003-0.045l-0.002-6.096 C106.643,77.833,94.575,78.719,86.626,78.719z"></path><path class="st0" d="M86.626,88.76c-4.543,0-10.429-0.292-15.679-1.088c-0.023-0.003-0.046-0.007-0.069-0.011 c-0.481-0.073-0.961-0.149-1.431-0.231c-0.101-0.018-0.197-0.038-0.297-0.057c-0.405-0.072-0.808-0.147-1.2-0.227 c-2.728-0.556-5.141-1.277-6.901-2.205v0.5v5.539v0.096V91.1c0.091,0.319,0.571,0.699,1.384,1.099 c0.037,0.019,0.079,0.037,0.117,0.055c0.005,0.003,0.01,0.005,0.015,0.007c0.222,0.105,0.464,0.211,0.733,0.317 c0.248,0.099,0.504,0.197,0.792,0.296c0.227,0.078,0.476,0.156,0.727,0.233c0.051,0.017,0.095,0.032,0.147,0.048 c1.102,0.334,2.44,0.66,3.983,0.963c0.167,0.033,0.327,0.066,0.5,0.099c0.166,0.031,0.33,0.062,0.5,0.092 c4.201,0.747,9.808,1.296,16.679,1.296c15.953,0,25.133-2.949,25.58-4.53l-0.002-6.133C106.644,87.873,94.575,88.76,86.626,88.76z"></path><path class="st0" d="M86.626,99.048c-4.834,0-11.188-0.331-16.679-1.248c-0.166-0.027-0.336-0.053-0.5-0.081 c-0.17-0.03-0.332-0.064-0.5-0.096c-3.132-0.576-5.928-1.354-7.898-2.394v6.355c0.072,0.252,0.397,0.543,0.92,0.85 c0.196,0.115,0.423,0.231,0.681,0.351c0.231,0.107,0.487,0.215,0.768,0.323c3.714,1.441,11.682,2.98,23.209,2.98 c15.953,0,25.133-2.949,25.58-4.53l-0.002-6.329C106.643,98.162,94.575,99.048,86.626,99.048z"></path></g></svg>