<svg class="svgicon" id="svg147" preserveAspectRatio="xMidYMid meet" xmlns="http://www.w3.org/2000/svg" viewBox="0 0 128 128"><rect x="1.92" y="1.92" width="124.16" height="124.16" style="stroke: rgb(96, 181, 126); fill: none; stroke-alignment: inside; stroke-width: 3.84" rx="62.08" ry="62.08"></rect><g transform="scale(0.66) translate(32.96969696969697, 32.96969696969697)"><style> #svg147 path, #svg147 circle, #svg147 polygon, #svg147 rect { fill: rgb(96, 181, 126) } #svg147 defs &gt; path { fill: none }  #svg147 path[fill="none"], #svg147 circle[fill="none"], #svg147 polygon[fill="none"], #svg147 rect[fill="none"] { fill: none } </style><style type="text/css"> #svg147 .st0{fill:rgb(96, 181, 126);} </style><path class="st0" d="M56.734,46.289c-5.988,0-10.859,4.871-10.859,10.859c0,5.986,4.871,10.857,10.859,10.857 c5.986,0,10.857-4.871,10.857-10.857C67.592,51.16,62.721,46.289,56.734,46.289z"></path><path class="st0" d="M108.295,83.334v-0.303v-52.07v-0.305c0-1.658-1.344-3-3-3H8.172c-1.658,0-3,1.342-3,3v0.305v52.07v0.303 c0,1.658,1.342,3,3,3h97.123C106.951,86.334,108.295,84.992,108.295,83.334z M97.92,65.684c0,6.367-5.18,11.547-11.547,11.547 H27.094c-6.367,0-11.547-5.18-11.547-11.547V48.611c0-6.367,5.18-11.547,11.547-11.547h59.279c6.367,0,11.547,5.18,11.547,11.547 V65.684z"></path><path class="st0" d="M86.373,40.064H27.094c-4.713,0-8.547,3.834-8.547,8.547v17.072c0,4.713,3.834,8.547,8.547,8.547h59.279 c4.713,0,8.547-3.834,8.547-8.547V48.611C94.92,43.898,91.086,40.064,86.373,40.064z M56.734,70.006 c-7.092,0-12.859-5.768-12.859-12.857s5.768-12.859,12.859-12.859c7.09,0,12.857,5.77,12.857,12.859S63.824,70.006,56.734,70.006z"></path><path class="st0" d="M115.482,90.998V38.625c0-1.105-0.896-2-2-2c-1.105,0-2,0.895-2,2v50.373H16.357c-1.104,0-2,0.896-2,2 c0,1.105,0.896,2,2,2h97.125C114.586,92.998,115.482,92.104,115.482,90.998z"></path><path class="st0" d="M120.828,43.969c-1.105,0-2,0.896-2,2v50.375H23.703c-1.104,0-2,0.896-2,2c0,1.105,0.896,2,2,2h97.125 c1.104,0,2-0.895,2-2V45.969C122.828,44.865,121.932,43.969,120.828,43.969z"></path></g></svg>