<?xml version="1.0" encoding="utf-8"?>
<!-- Generator: Adobe Illustrator 19.2.0, SVG Export Plug-In . SVG Version: 6.00 Build 0)  -->
<svg version="1.1" id="Layer_1" xmlns="http://www.w3.org/2000/svg" xmlns:xlink="http://www.w3.org/1999/xlink" x="0px" y="0px"
	 viewBox="0 0 64 64" style="enable-background:new 0 0 64 64;" xml:space="preserve">
<style type="text/css">
	.st0{display:none;fill:#FFFFFF;}
	.st1{fill:#61AD7C;}
</style>
<g>
	<path class="st0" d="M64,32.1c0,10.5,0,20.9,0,31.4c0,0.4-0.1,0.5-0.5,0.5c-21,0-42,0-63,0C0,64,0,63.9,0,63.5c0-21,0-41.9,0-62.9
		C0,0.1,0.1,0,0.5,0c21,0,41.9,0,62.9,0C63.9,0,64,0.1,64,0.6C64,11.1,64,21.6,64,32.1z M29.5,35.4c0.3,0.2,0.5,0.1,0.6,0.1
		c1-0.2,2-0.3,3-0.5c2.5-0.5,4.9-1.4,7-3c0.9-0.7,1.7-1.1,2.9-1c2.6,0.2,5.1-0.1,7.6-0.8c4.3-1.3,7.9-3.6,10.3-7.4
		c1.6-2.5,2-5.4,1.6-8.2c-0.5-3.7-2.6-6.5-5.6-8.7c-3.2-2.4-6.8-3.6-10.7-3.9c-2.1-0.2-4.1-0.1-6.2,0.3c-4.5,0.9-8.4,2.8-11.3,6.5
		c-2.2,2.8-3.2,5.9-2.7,9.4c0.4,2.8,1.7,5.1,3.6,7.2c1,1,2,1.9,3.2,2.6c0.4,0.2,0.5,0.5,0.4,1c-0.3,1-0.6,2-1.1,2.9
		C31.3,33.1,30.5,34.3,29.5,35.4z M35.8,61.6c1,0,1.9,0.1,2.8-0.5c1.8-1.2,3.4-2.7,4.5-4.6c0.6-1.1,0.7-2.2,0.2-3.4
		c-0.5-1-1.2-1.9-2-2.6c-1.3-1.1-2.6-2.1-4.1-2.8c-1-0.4-2.1-0.7-3.2-0.2c-1.1,0.5-2,1.3-2.8,2.2c-1.2,1.2-1.6,1.4-3.2,0.7
		c-1.1-0.4-2-1.1-2.9-1.8c-1.6-1.2-3-2.5-4.4-3.9c-1.3-1.3-2.7-2.7-3.9-4.2c-1-1.3-2.1-2.6-2.7-4.1c-0.6-1.3-0.5-2.1,0.6-3.1
		c0.3-0.3,0.6-0.6,0.9-0.9c0.5-0.6,1-1.2,1.3-1.9c0.5-1.4,0.2-2.7-0.5-3.9c-0.9-1.7-2.1-3.3-3.5-4.6c-1.5-1.4-3.6-1.7-5.4-0.5
		c-1.2,0.9-2.2,2.1-3.3,3.1c-0.8,0.8-1.2,1.7-1.2,2.8c-0.1,1.9,0.2,3.7,0.7,5.5c0.7,2.3,1.7,4.4,2.9,6.5c1.9,3.4,4.3,6.4,6.9,9.2
		c1.9,2,3.9,3.9,6,5.6c3,2.4,6.2,4.4,9.7,5.9C31.3,60.9,33.4,61.6,35.8,61.6z"/>
	<path class="st1" d="M29.5,35.4c1.1-1.1,1.9-2.3,2.5-3.6c0.5-0.9,0.8-1.9,1.1-2.9c0.1-0.4,0-0.7-0.4-1c-1.2-0.7-2.3-1.6-3.2-2.6
		c-1.9-2-3.2-4.4-3.6-7.2c-0.5-3.5,0.5-6.6,2.7-9.4c2.9-3.6,6.8-5.6,11.3-6.5c2.1-0.4,4.1-0.5,6.2-0.3c3.9,0.3,7.6,1.6,10.7,3.9
		c2.9,2.2,5,5,5.6,8.7c0.4,2.9,0,5.7-1.6,8.2c-2.5,3.8-6,6.1-10.3,7.4c-2.5,0.7-5,1-7.6,0.8c-1.2-0.1-2,0.2-2.9,1
		c-2,1.6-4.4,2.5-7,3c-1,0.2-2,0.3-3,0.5C29.9,35.5,29.7,35.6,29.5,35.4z M39.8,22c0.4-0.1,0.8-0.2,1.1-0.6c1-1.2,2.1-2.3,3.1-3.5
		c0.3-0.3,0.5-0.3,0.8,0c1,1.2,2.1,2.3,3.1,3.5c0.6,0.6,1.1,0.7,1.7,0.3c0.5-0.3,0.5-1.2,0-1.7c-1.1-1.3-2.3-2.6-3.5-3.8
		c-0.2-0.3-0.3-0.4,0-0.6c0.9-0.9,1.8-1.9,2.6-2.9c0.4-0.5,0.9-0.9,1.2-1.4c0.2-0.5,0-0.8-0.2-1.1c-0.2-0.3-0.6-0.4-1-0.3
		c-0.6,0.1-0.8,0.6-1.1,1c-0.7,0.7-1.4,1.4-2,2.2c-0.9,1.2-1.4,1.2-2.3,0c-0.8-1-1.7-1.9-2.6-2.9c-0.4-0.4-1.2-0.4-1.6,0
		c-0.4,0.4-0.4,1.1,0,1.6c0.4,0.5,0.9,1,1.3,1.4c0.8,0.9,1.6,1.7,2.3,2.6c0.1,0.2,0.2,0.3,0,0.4c-0.4,0.4-0.7,0.8-1.1,1.2
		c-0.8,0.9-1.7,1.9-2.5,2.8c-0.3,0.4-0.4,0.8-0.2,1.3C39,21.8,39.4,21.8,39.8,22z"/>
	<path class="st1" d="M35.8,61.6c-2.3,0-4.5-0.7-6.7-1.6c-3.5-1.5-6.7-3.6-9.7-5.9c-2.2-1.7-4.2-3.6-6-5.6c-2.6-2.8-5-5.8-6.9-9.2
		c-1.2-2.1-2.2-4.2-2.9-6.5c-0.6-1.8-0.9-3.6-0.7-5.5c0.1-1.1,0.4-2.1,1.2-2.8c1.1-1,2-2.2,3.3-3.1c1.8-1.2,3.9-0.9,5.4,0.5
		c1.5,1.3,2.6,2.9,3.5,4.6c0.7,1.2,1,2.5,0.5,3.9c-0.3,0.8-0.8,1.3-1.3,1.9c-0.3,0.3-0.6,0.6-0.9,0.9c-1.1,1-1.1,1.8-0.6,3.1
		c0.6,1.5,1.7,2.8,2.7,4.1c1.2,1.5,2.5,2.8,3.9,4.2c1.4,1.4,2.8,2.7,4.4,3.9c0.9,0.7,1.9,1.4,2.9,1.8c1.7,0.7,2.1,0.5,3.2-0.7
		c0.8-0.9,1.7-1.7,2.8-2.2c1.1-0.5,2.1-0.2,3.2,0.2c1.6,0.6,2.9,1.6,4.1,2.8c0.8,0.7,1.5,1.6,2,2.6c0.5,1.2,0.4,2.3-0.2,3.4
		c-1.1,1.9-2.6,3.4-4.5,4.6C37.7,61.7,36.8,61.7,35.8,61.6z"/>
	<path class="st0" d="M39.8,22c-0.3-0.2-0.8-0.2-0.9-0.6c-0.2-0.5-0.1-0.9,0.2-1.3c0.8-0.9,1.7-1.9,2.5-2.8c0.4-0.4,0.7-0.8,1.1-1.2
		c0.2-0.2,0.1-0.3,0-0.4c-0.8-0.9-1.6-1.7-2.3-2.6c-0.4-0.5-0.9-0.9-1.3-1.4c-0.4-0.5-0.4-1.2,0-1.6c0.4-0.4,1.2-0.4,1.6,0
		c0.9,0.9,1.8,1.9,2.6,2.9c0.9,1.2,1.4,1.2,2.3,0c0.6-0.8,1.3-1.5,2-2.2c0.3-0.4,0.6-0.8,1.1-1c0.4-0.1,0.8,0,1,0.3
		c0.2,0.3,0.4,0.7,0.2,1.1c-0.3,0.6-0.8,0.9-1.2,1.4c-0.8,1-1.7,1.9-2.6,2.9c-0.2,0.3-0.2,0.4,0,0.6c1.2,1.3,2.3,2.5,3.5,3.8
		c0.5,0.5,0.5,1.4,0,1.7c-0.6,0.4-1.2,0.3-1.7-0.3c-1-1.2-2.1-2.3-3.1-3.5c-0.3-0.3-0.5-0.4-0.8,0c-1,1.2-2.1,2.3-3.1,3.5
		C40.5,21.7,40.2,21.8,39.8,22z"/>
</g>
</svg>
