<?xml version="1.0" encoding="utf-8"?>
<!-- Generator: Adobe Illustrator 19.2.0, SVG Export Plug-In . SVG Version: 6.00 Build 0)  -->
<svg version="1.1" id="Layer_1" xmlns="http://www.w3.org/2000/svg" xmlns:xlink="http://www.w3.org/1999/xlink" x="0px" y="0px"
	 viewBox="0 0 64 64" style="enable-background:new 0 0 64 64;" xml:space="preserve">
<style type="text/css">
	.st0{display:none;fill:#FFFFFF;}
	.st1{fill:#61AD7C;}
</style>
<g>
	<path class="st0" d="M32,64c-10.5,0-21,0-31.5,0C0.1,64,0,63.9,0,63.5c0-21,0-42,0-63C0,0,0.1,0,0.6,0c21,0,41.9,0,62.9,0
		C63.9,0,64,0.1,64,0.5c0,21,0,41.9,0,62.9c0,0.5-0.1,0.6-0.6,0.6C53,64,42.5,64,32,64z M32.4,60.4c0.8,0,1.7-0.1,2.5-0.1
		c2-0.1,4-0.6,5.9-1.1c2.4-0.7,4.6-1.7,6.7-3c2.8-1.7,5.3-4,7.4-6.6c1.3-1.6,2.3-3.3,3.2-5.1c0.8-1.7,1.5-3.4,1.9-5.2
		c0.5-1.9,0.8-3.8,0.9-5.7c0-1.3,0-2.7-0.1-4.1c-0.1-2.2-0.6-4.3-1.3-6.4c-1-3.1-2.5-5.9-4.5-8.5c-1.9-2.5-4.2-4.6-6.7-6.4
		c-2.6-1.7-5.4-3-8.5-3.8c-1.9-0.5-3.8-0.8-5.7-0.9c-2-0.1-4,0-6,0.2c-0.1,0-0.3,0-0.3,0.1C27.8,4,28,4,28.1,4.1
		c0.1,0.1,0.3,0.1,0.4,0.1c1.2,0.2,2.5,0,3.7,0.1c0.8,0.1,1.6,0,2.3,0.4c0.1,0.1,0.3,0.1,0.3,0.2c0,0.2-0.1,0.3-0.2,0.4
		c-0.3,0.2-0.7,0.4-1,0.5c-0.6,0.2-1.1,0.5-1.5,0.9c-0.5,0.5-0.5,1.3,0.1,1.4c0.4,0.1,0.9,0.2,1.3,0.1c1.2-0.2,2.3-0.6,3.5-0.5
		c0.3,0,0.6,0.1,0.9,0.4c0.5,0.5,0.3,1,0.2,1.6c-0.4,1.4-0.7,2.8,0.1,4.1c0.5,0.8,0.3,1.3-0.3,1.9c-1.1,1.1-2.6,1.7-3.9,2.4
		c-2.2,1.1-3.3,3.1-3.8,5.3c-0.4,1.8,0.1,3.6,1.1,5.2c0.6,1,1.2,1.9,2.6,1.6c1.1-0.2,2.2-0.3,3.3-0.1c1.8,0.3,3.3,1.1,4.4,2.5
		c0.7,0.9,1.4,1.8,2.3,2.5c1.4,1.1,3.1,1.7,4.9,2.1c0.9,0.2,1.6,1.3,1.4,2.2c-0.1,0.6-0.3,1.2-0.5,1.8c-0.8,2.1-2.1,3.9-4,5.1
		c-2.2,1.5-4.2,3.1-5.6,5.4c-1.6,2.5-4.1,3.8-7,4.4c-0.4,0.1-0.8,0.1-1.1-0.2c-0.3-0.3,0-0.8,0.2-1.1c0.1-0.1,0.1-0.2,0.2-0.2
		c1.3-1.9,2.1-4,1.8-6.4c-0.2-1.8-1-3.1-2.5-4.1c-0.8-0.5-1.7-1-2.4-1.6c-1.2-1-1.7-1.7-1.1-3.4c0.4-1.1,1.1-2.1,1.9-3
		c0.7-0.9,1.3-1.9,1.3-3.2c-0.1-1.4-0.5-2.6-1.2-3.9c-1-1.9-2.2-3.7-4.1-4.8c-1-0.6-2.1-0.8-3.2-0.5c-0.9,0.3-1.8,0.3-2.6,0
		c-1.6-0.4-2.8-1.4-3.9-2.6c-1.5-1.7-1.9-3.7-1.4-5.9c0.4-1.6,1.2-2.9,2.2-4.2c0.7-1,1.5-2,1.3-3.4c-0.1-0.6-0.1-0.7-0.6-0.4
		c-1.5,0.8-2.8,1.9-4.1,2.9c-2.1,1.7-3.8,3.7-5.3,6c-1.5,2.4-2.7,4.9-3.5,7.6c-0.6,2.3-1,4.6-1.1,7c0,1.2,0,2.4,0.1,3.6
		c0.1,1.8,0.5,3.6,1,5.4c0.5,1.9,1.3,3.7,2.2,5.4c1.1,2,2.3,3.9,3.8,5.6c2.3,2.6,5,4.7,8.1,6.3c1.9,1,3.8,1.7,5.8,2.3
		C27.4,60.1,29.8,60.4,32.4,60.4z"/>
	<path class="st1" d="M32.4,60.4c-2.5,0-5-0.3-7.5-1c-2-0.6-3.9-1.3-5.8-2.3c-3.1-1.6-5.7-3.7-8.1-6.3c-1.5-1.7-2.8-3.6-3.8-5.6
		c-0.9-1.7-1.7-3.5-2.2-5.4c-0.5-1.8-0.9-3.5-1-5.4c-0.1-1.2-0.1-2.4-0.1-3.6c0-2.4,0.4-4.7,1.1-7c0.8-2.7,1.9-5.3,3.5-7.6
		c1.4-2.2,3.2-4.3,5.3-6c1.3-1.1,2.6-2.1,4.1-2.9c0.5-0.3,0.6-0.2,0.6,0.4c0.2,1.4-0.5,2.4-1.3,3.4c-1,1.3-1.8,2.6-2.2,4.2
		c-0.5,2.2-0.1,4.2,1.4,5.9c1.1,1.2,2.3,2.2,3.9,2.6c0.9,0.2,1.7,0.2,2.6,0c1.1-0.3,2.2-0.1,3.2,0.5c1.9,1.1,3.1,2.9,4.1,4.8
		c0.6,1.2,1.1,2.5,1.2,3.9c0.1,1.3-0.5,2.3-1.3,3.2c-0.7,0.9-1.5,1.9-1.9,3c-0.6,1.7-0.2,2.4,1.1,3.4c0.8,0.6,1.6,1,2.4,1.6
		c1.5,1,2.4,2.3,2.5,4.1c0.2,2.4-0.6,4.5-1.8,6.4c-0.1,0.1-0.1,0.2-0.2,0.2c-0.2,0.3-0.4,0.8-0.2,1.1c0.2,0.3,0.6,0.3,1.1,0.2
		c2.9-0.6,5.4-1.9,7-4.4c1.5-2.3,3.5-3.9,5.6-5.4c1.8-1.3,3.2-3,4-5.1c0.2-0.6,0.4-1.2,0.5-1.8c0.2-0.9-0.5-2-1.4-2.2
		c-1.8-0.4-3.5-1-4.9-2.1c-0.9-0.7-1.6-1.6-2.3-2.5c-1.2-1.4-2.6-2.3-4.4-2.5c-1.1-0.2-2.2-0.1-3.3,0.1c-1.4,0.3-2-0.7-2.6-1.6
		c-1-1.6-1.5-3.4-1.1-5.2c0.5-2.3,1.5-4.2,3.8-5.3c1.4-0.7,2.8-1.3,3.9-2.4c0.6-0.6,0.8-1.2,0.3-1.9c-0.8-1.4-0.5-2.7-0.1-4.1
		c0.2-0.5,0.3-1.1-0.2-1.6c-0.3-0.3-0.6-0.3-0.9-0.4c-1.2-0.1-2.4,0.2-3.5,0.5c-0.5,0.1-0.9,0-1.3-0.1c-0.6-0.2-0.6-1-0.1-1.4
		c0.4-0.4,0.9-0.7,1.5-0.9c0.3-0.1,0.7-0.3,1-0.5c0.2-0.1,0.2-0.2,0.2-0.4c0-0.2-0.2-0.2-0.3-0.2c-0.7-0.3-1.5-0.3-2.3-0.4
		c-1.2-0.1-2.5,0.1-3.7-0.1c-0.1,0-0.3,0-0.4-0.1C28,4,27.8,4,27.8,3.8c0-0.1,0.2-0.1,0.3-0.1c2-0.3,4-0.3,6-0.2
		c1.9,0.1,3.8,0.4,5.7,0.9c3.1,0.8,5.9,2.1,8.5,3.8c2.6,1.7,4.8,3.9,6.7,6.4c2,2.6,3.5,5.4,4.5,8.5c0.7,2.1,1.1,4.2,1.3,6.4
		c0.1,1.4,0.1,2.7,0.1,4.1c-0.1,1.9-0.4,3.8-0.9,5.7c-0.5,1.8-1.1,3.6-1.9,5.2c-0.9,1.8-2,3.6-3.2,5.1c-2.1,2.6-4.5,4.8-7.4,6.6
		c-2.1,1.3-4.3,2.3-6.7,3c-1.9,0.5-3.9,1-5.9,1.1C34,60.3,33.2,60.3,32.4,60.4z"/>
</g>
</svg>
