<?xml version="1.0" encoding="utf-8"?>
<!-- Generator: Adobe Illustrator 19.2.0, SVG Export Plug-In . SVG Version: 6.00 Build 0)  -->
<svg version="1.1" id="Layer_1" xmlns="http://www.w3.org/2000/svg" xmlns:xlink="http://www.w3.org/1999/xlink" x="0px" y="0px"
	 viewBox="0 0 64 64" style="enable-background:new 0 0 64 64;" xml:space="preserve">
<style type="text/css">
	.st0{display:none;fill:#FFFFFF;}
	.st1{fill:#60B4D4;}
	.st2{fill:#60B4D5;}
	.st3{display:none;fill:#FCFEFF;}
</style>
<g>
	<path class="st0" d="M32,64c-10.5,0-21,0-31.5,0C0.1,64,0,63.9,0,63.5c0-21,0-42,0-63C0,0.1,0.1,0,0.6,0c21,0,41.9,0,62.9,0
		C63.9,0,64,0.1,64,0.5c0,21,0,41.9,0,62.9c0,0.5-0.1,0.6-0.6,0.6C52.9,64,42.5,64,32,64z M45.8,32.7c-0.3-1.2-0.5-2.3-0.8-3.3
		c-0.1-0.3,0-0.5,0.3-0.5c0.4,0,0.8,0,1.3,0c2.6,0,4.5-1.9,4.5-4.5c0-5.9,0-11.7,0-17.6c0-2.7-1.9-4.7-4.5-4.7c-9.5,0-18.9,0-28.4,0
		c-2.9,0-4.6,2.4-4.6,4.6c0.1,5.9,0,11.8,0,17.7c0,2.2,1.5,4,3.6,4.4c1.1,0.2,2.2,0.1,3.3,0.1c0.9,0,0.9,0,0.6,0.9
		c-0.2,0.9-0.5,1.9-0.7,2.9c2.4-0.6,4.5-1.5,6-3.4c0.2-0.3,0.5-0.4,0.8-0.4c4,0,8,0,12,0c0.3,0,0.6,0.1,0.8,0.3
		C41.3,31.1,43.4,32,45.8,32.7z M15.8,61c3.3,0,6.5,0,9.8,0c0.6,0,0.8-0.2,0.7-0.7c0-0.9,0-1.8-0.1-2.8c-0.3-3.8-3.5-6.9-7.3-6.9
		c-2.1,0-4.2,0-6.3,0c-3.1,0-6,2.1-7,5.1c-0.5,1.5-0.3,3.1-0.4,4.7c0,0.5,0.2,0.6,0.6,0.6C9.2,61,12.5,61,15.8,61z M47.7,61
		c3.3,0,6.6,0,10,0c0.4,0,0.6-0.1,0.6-0.6c0-0.8,0-1.6,0-2.4c0-4-3.4-7.4-7.4-7.4c-2.1,0-4.1,0-6.2,0c-3.1,0-6,2.1-7,5
		c-0.5,1.5-0.4,3.1-0.5,4.6c0,0.6,0.1,0.8,0.7,0.7C41.2,61,44.4,61,47.7,61z M15.8,48.3c3.5,0,6.7-2.7,6.7-6.7
		c0-3.9-3.1-6.6-6.7-6.7c-3.7,0-6.7,3-6.7,6.7C9.1,45.3,12.1,48.3,15.8,48.3z M47.7,48.3c3.7,0,6.8-3,6.8-6.6c0-3.7-3-6.8-6.7-6.8
		c-3.6,0-6.8,2.7-6.8,6.7C41,45.6,44.2,48.3,47.7,48.3z"/>
	<path class="st1" d="M45.8,32.7c-2.4-0.7-4.5-1.5-6-3.4c-0.2-0.3-0.4-0.3-0.8-0.3c-4,0-8,0-12,0c-0.3,0-0.6,0.1-0.8,0.4
		c-1.5,1.9-3.6,2.8-6,3.4c0.3-1,0.5-2,0.7-2.9c0.2-0.9,0.2-0.8-0.6-0.9c-1.1,0-2.2,0.1-3.3-0.1c-2.1-0.4-3.6-2.2-3.6-4.4
		c0-5.9,0-11.8,0-17.7c0-2.2,1.6-4.6,4.6-4.6c9.5,0,18.9,0,28.4,0c2.7,0,4.5,2,4.5,4.7c0,5.9,0,11.7,0,17.6c0,2.6-1.9,4.5-4.5,4.5
		c-0.4,0-0.8,0-1.3,0c-0.3,0-0.4,0.1-0.3,0.5C45.2,30.4,45.5,31.5,45.8,32.7z M33.3,6.3c-0.2,0-0.5,0-0.7,0
		c-1.9,0.1-3.7,1.4-4.1,3.1c-0.3,1.2-0.3,1.2,0.9,1.2c0.1,0,0.3,0,0.4,0c0.5,0.1,0.8-0.1,0.9-0.7c0.2-1,1.2-1.7,2.5-1.7
		c1.2,0,2.1,0.5,2.4,1.5c0.4,1.2,0.2,2.4-0.6,3.3c-0.6,0.7-1.3,1.4-1.9,2.1c-0.8,0.9-1.3,2-1.3,3.2c0,0.5,0.1,0.7,0.7,0.6
		c0.4,0,0.8,0,1.2,0c0.3,0,0.4-0.1,0.4-0.4c0-1.4,0.7-2.4,1.7-3.2c0.8-0.7,1.5-1.5,1.9-2.5c0.8-1.8,0.8-3.5-0.5-5.1
		C36.2,6.6,34.8,6.3,33.3,6.3z M33,24c0.9,0,1.3-0.4,1.3-1.2c0-0.8-0.5-1.3-1.3-1.3c-0.9,0-1.3,0.5-1.3,1.3C31.6,23.5,32.1,24,33,24
		z"/>
	<path class="st1" d="M15.8,61c-3.3,0-6.6,0-9.9,0c-0.5,0-0.7-0.1-0.6-0.6c0.1-1.6-0.1-3.2,0.4-4.7c1-2.9,3.9-5,7-5.1
		c2.1,0,4.2,0,6.3,0c3.8,0,7,3.1,7.3,6.9c0.1,0.9,0,1.8,0.1,2.8c0,0.6-0.1,0.8-0.7,0.7C22.3,61,19.1,61,15.8,61z"/>
	<path class="st1" d="M47.7,61c-3.3,0-6.5,0-9.8,0c-0.6,0-0.7-0.2-0.7-0.7c0-1.6-0.1-3.1,0.5-4.6c1-2.9,3.9-5,7-5c2.1,0,4.1,0,6.2,0
		c4,0,7.4,3.4,7.4,7.4c0,0.8,0,1.6,0,2.4c0,0.5-0.1,0.6-0.6,0.6C54.3,61,51,61,47.7,61z"/>
	<path class="st2" d="M15.8,48.3c-3.7,0-6.8-3-6.8-6.7c0-3.7,3-6.7,6.7-6.7c3.6,0,6.7,2.8,6.7,6.7C22.5,45.6,19.3,48.3,15.8,48.3z"
		/>
	<path class="st2" d="M47.7,48.3c-3.5,0-6.7-2.7-6.7-6.7c0-3.9,3.2-6.6,6.8-6.7c3.7,0,6.7,3,6.7,6.8C54.4,45.3,51.4,48.3,47.7,48.3z
		"/>
	<path class="st3" d="M33.3,6.3c1.5,0,2.9,0.3,3.8,1.5c1.2,1.6,1.3,3.3,0.5,5.1c-0.4,1-1.1,1.8-1.9,2.5c-1,0.9-1.7,1.9-1.7,3.2
		c0,0.3-0.2,0.4-0.4,0.4c-0.4,0-0.8,0-1.2,0c-0.5,0.1-0.7-0.1-0.7-0.6c0.1-1.2,0.5-2.3,1.3-3.2c0.6-0.7,1.3-1.3,1.9-2.1
		c0.8-1,1-2.1,0.6-3.3c-0.3-1-1.2-1.5-2.4-1.5c-1.3,0-2.3,0.7-2.5,1.7c-0.1,0.6-0.4,0.7-0.9,0.7c-0.1,0-0.3,0-0.4,0
		c-1.2,0-1.2,0-0.9-1.2c0.4-1.7,2.2-3,4.1-3.1C32.9,6.3,33.1,6.3,33.3,6.3z"/>
	<path class="st3" d="M33,24c-0.8,0-1.3-0.4-1.3-1.2c0-0.8,0.5-1.3,1.3-1.3c0.9,0,1.3,0.5,1.3,1.3C34.3,23.6,33.8,24,33,24z"/>
</g>
</svg>
