<svg class="svgicon" id="svg82" preserveAspectRatio="xMidYMid meet" xmlns="http://www.w3.org/2000/svg" viewBox="0 0 128 128"><rect x="1.92" y="1.92" width="124.16" height="124.16" style="stroke: rgb(126, 199, 254); fill: none; stroke-alignment: inside; stroke-width: 3.84" rx="62.08" ry="62.08"></rect><g transform="scale(0.77) translate(19.116883116883116, 19.116883116883116)"><style> #svg82 path, #svg82 circle, #svg82 polygon, #svg82 rect { fill: rgb(126, 199, 254) } #svg82 defs &gt; path { fill: none }  #svg82 path[fill="none"], #svg82 circle[fill="none"], #svg82 polygon[fill="none"], #svg82 rect[fill="none"] { fill: none } </style><style type="text/css"> #svg82 .st0{fill:rgb(126, 199, 254);} </style><path class="st0" d="M117.049,115.796h-4.629v-69.12c0-1.657-1.343-3-3-3H94.86c-1.657,0-3,1.343-3,3v69.12h-4.403V85.418 c0-1.657-1.343-3-3-3H69.893c-1.657,0-3,1.343-3,3v30.378h-4.054V70.253c0-1.657-1.344-3-3-3H45.277c-1.657,0-3,1.343-3,3v45.543 h-4.749V91.735c0-1.657-1.344-3-3-3H19.964c-1.656,0-3,1.343-3,3v24.061h-6.014c-1.657,0-3,1.343-3,3s1.343,3,3,3h9.014h14.563 h10.749h14.562h10.054h14.563H94.86h14.561h7.629c1.657,0,3-1.343,3-3S118.707,115.796,117.049,115.796z"></path><path class="st0" d="M33.527,70.335c-0.876,0.865-1.748,1.727,0.004-0.003c1.753-1.73,0.88-0.869,0.004-0.004 c2.623-2.593,3.303-6.422,2.028-9.655l13.601-13.428c2.859,1.176,6.092,0.77,8.551-0.961l10.625,6.576 c-0.514,3.391,0.948,6.928,4.019,8.891c4.154,2.654,9.694,1.437,12.352-2.716c-0.662,1.037-1.322,2.07,0.004-0.005 c1.325-2.074,0.666-1.043,0.003-0.006c1.983-3.108,1.799-6.991-0.159-9.862l16.101-25.194c3.427,0.571,7.027-0.892,9.016-3.995 c-0.662,1.036-1.318,2.064,0.006-0.008s0.667-1.045,0.005-0.009c2.648-4.155,1.427-9.692-2.726-12.347 c-4.156-2.655-9.699-1.435-12.355,2.721c-1.987,3.11-1.803,6.996,0.156,9.868L78.659,45.393c-2.314-0.386-4.697,0.176-6.62,1.524 l-10.64-6.585c0.521-3.438-0.995-7.02-4.133-8.962c-4.194-2.596-9.719-1.295-12.314,2.898c-1.543,2.493-1.7,5.452-0.7,7.991 L30.645,55.692c-3.218-1.316-7.057-0.686-9.684,1.907c-3.51,3.466-3.546,9.142-0.081,12.651 C24.344,73.76,30.017,73.797,33.527,70.335z M96.368,11.469c0.001-0.002,0.002-0.003,0.003-0.005 c0.001-0.001,0.001-0.002,0.002-0.003c1.015-1.588,0.51-0.797,0.002-0.003c2.034-3.178,6.272-4.11,9.453-2.079 c3.181,2.033,4.115,6.273,2.082,9.455c-1.344,2.103-3.652,3.215-5.981,3.146c-1.195-0.035-2.395-0.376-3.474-1.064 c-1.078-0.689-1.892-1.636-2.425-2.705C94.99,16.128,95.029,13.57,96.368,11.469z M71.358,50.612 c0.018-0.028,0.031-0.058,0.049-0.086c0.67-1.049,1.58-1.851,2.612-2.383c1.039-0.536,2.202-0.8,3.37-0.765 c1.194,0.036,2.395,0.376,3.473,1.065s1.892,1.636,2.425,2.705c1.041,2.085,1.001,4.646-0.343,6.75 c-2.033,3.182-6.273,4.115-9.455,2.082c-2.072-1.325-3.184-3.587-3.149-5.883C70.358,52.902,70.685,51.698,71.358,50.612z M46.737,35.374c1.986-3.21,6.21-4.204,9.42-2.221c0.002,0.001,0.003,0.002,0.005,0.003s0.002,0.001,0.004,0.002 c2.118,1.314,3.263,3.605,3.228,5.933c-0.018,1.195-0.341,2.4-1.015,3.488c-0.674,1.089-1.607,1.915-2.669,2.465 c-1.485,0.768-3.223,0.972-4.87,0.547c-0.648-0.167-1.284-0.422-1.884-0.793c-0.473-0.292-0.891-0.638-1.265-1.017 c-0.879-0.891-1.483-1.989-1.773-3.167C45.492,38.889,45.73,37.001,46.737,35.374z M22.435,59.097 C22.436,59.096,22.436,59.096,22.435,59.097c0.003-0.003,0.003-0.003,0.004-0.004c1.775-1.752,4.272-2.326,6.528-1.743 c1.156,0.299,2.251,0.896,3.15,1.807s1.482,2.013,1.767,3.174c0.554,2.264-0.053,4.754-1.828,6.507 c-2.688,2.652-7.028,2.625-9.682-0.062C19.723,66.09,19.75,61.749,22.435,59.097z"></path></g></svg>