<svg class="svgicon" id="svg149" preserveAspectRatio="xMidYMid meet" xmlns="http://www.w3.org/2000/svg" viewBox="0 0 60 60"><rect x="0.8999999999999999" y="0.8999999999999999" width="58.2" height="58.2" style="stroke: rgb(96, 181, 126); fill: none; stroke-alignment: inside; stroke-width: 1.7999999999999998" rx="29.1" ry="29.1"></rect><g transform="scale(0.66) translate(15.454545454545453, 15.454545454545453)"><style> #svg149 path, #svg149 circle, #svg149 polygon, #svg149 rect { fill: rgb(96, 181, 126) } #svg149 defs &gt; path { fill: none }  #svg149 path[fill="none"], #svg149 circle[fill="none"], #svg149 polygon[fill="none"], #svg149 rect[fill="none"] { fill: none } </style><path fill="rgb(96, 181, 126)" d="M32.308,4.615c-0.899,0-1.629,0.729-1.629,1.629v24.435H6.244c-0.899,0-1.629,0.729-1.629,1.629 C4.615,47.577,17.038,60,32.308,60S60,47.577,60,32.308S47.577,4.615,32.308,4.615z M32.308,56.742 c-12.926,0-23.539-10.09-24.381-22.806h24.381c0.899,0,1.629-0.729,1.629-1.629V7.927c12.716,0.842,22.806,11.455,22.806,24.381 C56.742,45.781,45.781,56.742,32.308,56.742z"></path><path fill="rgb(96, 181, 126)" d="M27.692,26.878V0.814C27.692,0.365,27.327,0,26.878,0C12.058,0,0,12.058,0,26.878 c0,0.449,0.365,0.814,0.814,0.814h26.063C27.327,27.692,27.692,27.327,27.692,26.878z M26.063,26.063H1.642 C2.065,12.788,12.788,2.065,26.063,1.642V26.063z"></path></g></svg>