<svg class="svgicon" id="svg124" preserveAspectRatio="xMidYMid meet" xmlns="http://www.w3.org/2000/svg" viewBox="0 0 60 60"><style> #svg124 path, #svg124 circle, #svg124 polygon, #svg124 rect { fill: rgb(96, 181, 126) } #svg124 defs &gt; path { fill: none }  #svg124 path[fill="none"], #svg124 circle[fill="none"], #svg124 polygon[fill="none"], #svg124 rect[fill="none"] { fill: none } </style><style type="text/css"> #svg124 .st0{fill:none;stroke:rgb(96, 181, 126);stroke-width:1.5;stroke-linecap:round;stroke-linejoin:round;stroke-miterlimit:10;} </style><path class="st0" d="M1,23.062v-2.646c0-3.323,2.822-6.019,6.305-6.019h8.134"></path><path class="st0" d="M44.5,14.397h9.443c3.482,0,4.596,1.191,4.596,4.514v32.511c0,2.737-0.528,3.177-2.661,3.247"></path><path class="st0" d="M43.721,20.634c1.688-5.04,0.525-10.824-3.488-14.838c-5.651-5.651-14.813-5.652-20.465,0 c-4.012,4.012-5.175,9.793-3.49,14.833"></path><path class="st0" d="M55.909,31.167v-6.74c0-3.323-1.316-3.76-4.639-3.76c0,0-38.646,0-43.396,0s-5.438-2.042-5.438-4.104"></path><path class="st0" d="M55.909,41.667v12.514c0,3.323-1.316,4.263-4.639,4.263H4.384C1.061,58.443,1,58.131,1,54.807"></path><polyline class="st0" points="49.062,54.743 1,54.743 1,23.09 "></polyline><path class="st0" d="M58.646,41.686H43.601c-0.973,0-2.788-1.742-2.788-5.26c0-3.518,1.815-5.162,2.788-5.162h15.045 C59.145,31.264,59.091,41.686,58.646,41.686z"></path><ellipse class="st0" cx="45.546" cy="36.505" rx="1.582" ry="1.852"></ellipse><path class="st0" d="M33.936,11.212c-0.144-1.22-0.569-2.181-1.272-2.881c-0.544-0.539-1.277-0.866-2.202-0.981h-0.945 c-1.055,0.13-1.856,0.479-2.403,1.048c-0.8,0.843-1.197,1.949-1.197,3.318c0,0.772,0.136,1.459,0.407,2.063 c0.271,0.604,0.664,1.075,1.174,1.408c0.689,0.465,1.364,0.772,2.02,0.917l0.817,0.23c0.655,0.145,1.329,0.452,2.021,0.916 c0.51,0.335,0.901,0.805,1.173,1.409c0.236,0.522,0.37,1.108,0.401,1.757"></path><line class="st0" x1="29.819" y1="20.583" x2="29.819" y2="6.436"></line></svg>