<?xml version="1.0" encoding="utf-8"?>
<!-- Generator: Adobe Illustrator 19.2.0, SVG Export Plug-In . SVG Version: 6.00 Build 0)  -->
<svg version="1.1" id="Layer_1" xmlns="http://www.w3.org/2000/svg" xmlns:xlink="http://www.w3.org/1999/xlink" x="0px" y="0px"
	 viewBox="0 0 64 64" style="enable-background:new 0 0 64 64;" xml:space="preserve">
<style type="text/css">
	.st0{display:none;fill:#FDFEFF;}
	.st1{fill:#61A67A;}
	.st2{display:none;fill:#F7FBFC;}
	.st3{display:none;fill:#F8FCFD;}
</style>
<g>
	<path class="st0" d="M32,64c-10.5,0-21,0-31.5,0C0.1,64,0,63.9,0,63.5c0-21,0-42,0-63C0,0.1,0.1,0,0.6,0c21,0,41.9,0,62.9,0
		C63.9,0,64,0.1,64,0.5c0,21,0,41.9,0,62.9c0,0.5-0.1,0.6-0.6,0.6C53,64,42.5,64,32,64z M16.3,6.6c-4.1,0-8.2,0-12.2,0
		c-0.2,0-0.5,0-0.7,0C2.9,6.7,2.6,7,2.6,7.5c0,0.5,0,1,0,1.5c0,1.6,0.1,1.7,1.6,1.6c0.7,0,0.8,0.2,0.8,0.8c0,9.8,0,19.7,0,29.5
		c0,1.4,0,1.4-1.4,1.4c0,0-0.1,0-0.1,0c-0.6,0-0.9,0.3-0.9,0.9c0,0.6,0,1.3,0,1.9c0,1,0.2,1.2,1.2,1.2c5.4,0,10.7,0,16.1,0
		c0.2,0,0.5-0.1,0.6,0.1c0.1,0.2-0.1,0.4-0.3,0.6c-1.8,3-3.7,6-5.6,8.9c-0.6,1-0.6,2.2,0.2,3c1.1,1.3,3,1.1,3.9-0.4
		c2.5-3.9,4.9-7.8,7.3-11.8c0.2-0.4,0.5-0.5,0.9-0.5c3.5,0,6.9,0,10.4,0c0.4,0,0.7,0.2,0.9,0.5c0.9,1.5,1.8,2.9,2.7,4.4
		c1.5,2.4,3,4.9,4.5,7.3c0.8,1.2,2,1.7,3.2,1.1c1.5-0.6,1.9-2.3,0.9-3.9C47.8,53,46,50,44.2,47.1c-0.1-0.2-0.3-0.3-0.2-0.5
		c0.1-0.2,0.4-0.1,0.6-0.1c4.5,0,9,0,13.5,0c0.7,0,1.4,0,2.1,0c0.6,0,0.9-0.3,0.9-0.8c0-0.5,0-1,0-1.5c0-1.7,0-1.7-1.7-1.7
		c-0.6,0-0.8-0.1-0.8-0.8c0-9.9,0-19.8,0-29.7c0-1.3,0-1.3,1.3-1.3c0,0,0.1,0,0.1,0c0.7,0,1-0.3,1-1c0-0.6,0-1.2,0-1.8
		c0-1.2-0.2-1.4-1.4-1.4c-8,0-15.9,0-23.9,0c-1.4,0-1.4,0-1.5-1.5c0-0.1,0-0.2,0-0.3c-0.1-1.2-1-2.2-2.2-2.3
		c-1.2-0.1-2.3,0.6-2.6,1.9c-0.1,0.5-0.1,1-0.1,1.4c0,0.6-0.1,0.7-0.7,0.7C24.6,6.6,20.4,6.6,16.3,6.6z"/>
	<path class="st1" d="M16.3,6.6c4.1,0,8.2,0,12.4,0c0.6,0,0.8-0.2,0.7-0.7c0-0.5-0.1-1,0.1-1.4c0.3-1.3,1.4-2,2.6-1.9
		c1.1,0.1,2.1,1.1,2.2,2.3c0,0.1,0,0.2,0,0.3c0,1.5,0,1.5,1.5,1.5c8,0,15.9,0,23.9,0c1.2,0,1.4,0.2,1.4,1.4c0,0.6,0,1.2,0,1.8
		c0,0.7-0.3,1-1,1c0,0-0.1,0-0.1,0c-1.3,0-1.3,0-1.3,1.3c0,9.9,0,19.8,0,29.7c0,0.6,0.2,0.8,0.8,0.8c1.7,0,1.7,0,1.7,1.7
		c0,0.5,0,1,0,1.5c0,0.6-0.3,0.8-0.9,0.8c-0.7,0-1.4,0-2.1,0c-4.5,0-9,0-13.5,0c-0.2,0-0.5-0.1-0.6,0.1c-0.1,0.2,0.1,0.4,0.2,0.5
		c1.8,2.9,3.6,5.9,5.5,8.8c1,1.5,0.6,3.2-0.9,3.9c-1.2,0.5-2.4,0.1-3.2-1.1c-1.5-2.4-3-4.9-4.5-7.3c-0.9-1.5-1.8-2.9-2.7-4.4
		c-0.2-0.4-0.5-0.5-0.9-0.5c-3.5,0-6.9,0-10.4,0c-0.4,0-0.7,0.1-0.9,0.5c-2.4,3.9-4.9,7.9-7.3,11.8c-0.9,1.5-2.8,1.7-3.9,0.4
		c-0.7-0.8-0.8-2-0.2-3c1.8-3,3.7-6,5.6-8.9c0.1-0.2,0.4-0.4,0.3-0.6c-0.1-0.2-0.4-0.1-0.6-0.1c-5.4,0-10.7,0-16.1,0
		c-1,0-1.2-0.2-1.2-1.2c0-0.6,0-1.3,0-1.9c0-0.6,0.3-0.9,0.9-0.9c0,0,0.1,0,0.1,0c1.4,0,1.4,0,1.4-1.4c0-9.8,0-19.7,0-29.5
		c0-0.6-0.1-0.8-0.8-0.8c-1.6,0.1-1.6,0-1.6-1.6c0-0.5,0-1,0-1.5c0-0.5,0.3-0.8,0.8-0.9c0.2,0,0.5,0,0.7,0
		C8.2,6.6,12.2,6.6,16.3,6.6z M29.4,26.5c0-3.2,0-6.3,0-9.5c0-0.5-0.1-0.7-0.7-0.7c-5.7,0-11.5,0-17.2,0c-0.6,0-0.8,0.1-0.8,0.7
		c0,6.3,0,12.6,0,18.9c0,0.5,0.1,0.7,0.7,0.7c5.8,0,11.5,0,17.3,0c0.5,0,0.7-0.1,0.7-0.7C29.4,32.8,29.4,29.7,29.4,26.5z M44,35.1
		c2.4,0,4.7,0,7.1,0c0.6,0,1.4,0.3,1.7-0.1c0.3-0.4,0-1.1,0.1-1.7c0.1-0.5-0.1-0.7-0.7-0.7c-5.2,0-10.3,0-15.5,0
		c-0.6,0-1.3-0.2-1.6,0.1c-0.4,0.4-0.1,1.1-0.1,1.7c-0.1,0.6,0.2,0.7,0.7,0.7C38.5,35.1,41.3,35.1,44,35.1z M44,20.4
		c2.4,0,4.8,0,7.1,0c0.6,0,1.3,0.2,1.6-0.1c0.4-0.4,0.1-1.1,0.1-1.7C53,18,52.7,18,52.2,18c-5.1,0-10.2,0-15.4,0
		C35,18,35,18,35,19.8c0,0.5,0.1,0.6,0.6,0.6C38.5,20.4,41.2,20.4,44,20.4z M44.1,27.7c2.4,0,4.8,0,7.2,0c0.5,0,1.2,0.2,1.6-0.1
		c0.3-0.3,0-1,0.1-1.6c0.1-0.6-0.2-0.7-0.8-0.7c-5.1,0-10.2,0-15.3,0c-0.6,0-1.3-0.2-1.6,0.1c-0.4,0.4-0.1,1.1-0.1,1.7
		c-0.1,0.6,0.2,0.6,0.7,0.6C38.5,27.7,41.3,27.7,44.1,27.7z"/>
	<path class="st0" d="M29.4,26.5c0,3.2,0,6.3,0,9.5c0,0.6-0.2,0.7-0.7,0.7c-5.8,0-11.5,0-17.3,0c-0.6,0-0.7-0.2-0.7-0.7
		c0-6.3,0-12.6,0-18.9c0-0.6,0.2-0.7,0.8-0.7c5.7,0,11.5,0,17.2,0c0.6,0,0.7,0.2,0.7,0.7C29.4,20.2,29.4,23.4,29.4,26.5z"/>
	<path class="st2" d="M44,35.1c-2.8,0-5.5,0-8.3,0c-0.5,0-0.8-0.1-0.7-0.7c0.1-0.6-0.2-1.3,0.1-1.7c0.4-0.3,1.1-0.1,1.6-0.1
		c5.2,0,10.3,0,15.5,0c0.5,0,0.7,0.1,0.7,0.7c-0.1,0.6,0.2,1.3-0.1,1.7c-0.4,0.4-1.1,0.1-1.7,0.1C48.7,35.1,46.4,35.1,44,35.1z"/>
	<path class="st3" d="M44,20.4c-2.8,0-5.6,0-8.3,0c-0.5,0-0.6-0.1-0.6-0.6c0-1.9,0-1.9,1.8-1.9c5.1,0,10.2,0,15.4,0
		c0.5,0,0.8,0.1,0.7,0.7c-0.1,0.6,0.3,1.3-0.1,1.7c-0.4,0.3-1.1,0.1-1.6,0.1C48.8,20.4,46.4,20.4,44,20.4z"/>
	<path class="st0" d="M44.1,27.7c-2.8,0-5.5,0-8.3,0c-0.5,0-0.8-0.1-0.7-0.6c0.1-0.6-0.3-1.3,0.1-1.7c0.4-0.3,1.1-0.1,1.6-0.1
		c5.1,0,10.2,0,15.3,0c0.6,0,0.9,0.1,0.8,0.7c-0.1,0.5,0.2,1.2-0.1,1.6c-0.3,0.3-1,0.1-1.6,0.1C48.9,27.7,46.5,27.7,44.1,27.7z"/>
</g>
</svg>
