<?xml version="1.0" encoding="utf-8"?>
<!-- Generator: Adobe Illustrator 19.2.0, SVG Export Plug-In . SVG Version: 6.00 Build 0)  -->
<svg version="1.1" id="Layer_1" xmlns="http://www.w3.org/2000/svg" xmlns:xlink="http://www.w3.org/1999/xlink" x="0px" y="0px"
	 viewBox="0 0 64 64" style="enable-background:new 0 0 64 64;" xml:space="preserve">
<style type="text/css">
	.st0{display:none;fill:#FDFEFF;}
	.st1{fill:#61B4D5;}
	.st2{fill:#60B4D5;}
</style>
<g>
	<path class="st0" d="M0,31.9C0,21.5,0,11,0,0.5C0,0.1,0.1,0,0.5,0c21,0,42,0,63,0C63.9,0,64,0.1,64,0.5c0,21,0,42,0,63
		c0,0.4-0.1,0.5-0.5,0.5c-21,0-42,0-63,0C0.1,64,0,63.9,0,63.5C0,53,0,42.5,0,31.9z M31.4,60.8c1.4,0,2.8-0.1,4.1-0.3
		c7.2-1.1,13.3-4.4,17.9-10c5.6-6.6,7.7-14.4,6.5-23c-0.5-3.6-1.7-6.9-3.5-10.1c-0.2-0.4-0.4-0.4-0.6-0.1c-0.5,0.5-1,1.1-1.6,1.6
		c-0.5,0.4-0.5,0.7-0.2,1.3c2.6,5,3.4,10.4,2.4,15.9c-1,6-3.9,11-8.5,14.9C42.1,56.1,35.5,58,28,57c-6.3-0.8-11.5-3.7-15.7-8.5
		C7.5,43,5.5,36.4,6.3,29.1c0.8-7,4-12.8,9.6-17.1c6-4.6,12.7-6.2,20.2-5c2.5,0.4,4.9,1.3,7.2,2.5c0.4,0.2,0.6,0.2,0.9-0.1
		c0.6-0.6,1.2-1.2,1.8-1.8c0.3-0.3,0.3-0.5-0.1-0.7c-5.6-3.2-11.7-4.4-18.1-3.6c-6.9,0.9-12.8,4-17.5,9.1C4,19.3,1.6,27.3,2.9,36.3
		c0.9,6.5,3.9,12.1,8.8,16.6C17.3,58.1,23.8,60.7,31.4,60.8z M46.9,32.3c0,0.4-0.1,1.2-0.2,2c-1.3,9.1-10.4,15-19.2,12.6
		c-7.8-2.1-12.6-9.7-11.3-17.6c1.2-7.2,7.4-12.6,15-12.8c2.5-0.1,4.9,0.5,7.1,1.6c0.4,0.2,0.6,0.2,0.9-0.1c0.5-0.6,1.1-1.1,1.7-1.7
		c0.5-0.5,0.5-0.5-0.1-0.9c-3.3-1.8-6.8-2.7-10.6-2.4c-4.4,0.3-8.3,1.9-11.6,5c-4.3,4-6.4,9.1-6.1,15c0.2,4.6,1.9,8.5,5.1,11.8
		c4,4.3,9,6.3,14.9,6c4.5-0.2,8.5-1.9,11.8-5c4.3-4.1,6.4-9.2,6-15.1c-0.2-3-1.1-5.7-2.5-8.3c-0.2-0.3-0.3-0.4-0.6-0.1
		c-0.6,0.6-1.2,1.2-1.8,1.8c-0.4,0.3-0.4,0.6-0.2,1C46.4,27.2,46.9,29.5,46.9,32.3z M29.6,32c0,0.4,0.1,0.7,0.4,1.1
		c0.7,0.9,1.8,0.9,2.7,0c5.3-5.3,10.6-10.5,15.8-15.8c0.4-0.4,0.7-0.5,1.2-0.4c0.8,0.1,1.6,0.2,2.4,0.3c0.2,0,0.4-0.1,0.5-0.2
		c2.9-2.9,5.8-5.8,8.6-8.6c0.3-0.3,0.2-0.4-0.2-0.5c-1.3-0.3-2.5-0.7-3.8-1c-0.4-0.1-0.6-0.3-0.7-0.7c-0.3-1.3-0.7-2.5-0.9-3.8
		c-0.1-0.5-0.2-0.5-0.6-0.2c-2.9,2.9-5.7,5.7-8.6,8.6c-0.2,0.2-0.3,0.3-0.2,0.5c0.1,0.7,0.1,1.5,0.3,2.2c0.1,0.6,0,1-0.5,1.5
		c-5.2,5.2-10.4,10.4-15.7,15.6C29.9,31,29.6,31.4,29.6,32z M31.5,22.5c-0.5,0-1,0-1.6,0.1c-5.5,0.8-9.2,6.6-7.6,11.9
		c1,3.5,3.4,5.8,6.9,6.6c3.7,0.9,6.9-0.2,9.4-3.1c2.1-2.4,2.7-5.3,2-8.4c-0.1-0.4-0.2-0.5-0.6-0.2c-0.7,0.8-1.5,1.5-2.3,2.3
		c-0.3,0.2-0.4,0.5-0.4,0.9c-0.4,2.9-2.8,5.2-5.6,5.3c-3.3,0.1-6-2.3-6.2-5.5c-0.2-3.2,2.1-6,5.3-6.4c0.2,0,0.4-0.1,0.6-0.2
		c0.8-0.8,1.6-1.7,2.5-2.5c0.3-0.3,0.2-0.4-0.2-0.5C33,22.6,32.2,22.4,31.5,22.5z"/>
	<path class="st1" d="M31.4,60.8c-7.5-0.1-14.1-2.6-19.7-7.8c-4.8-4.5-7.8-10.1-8.8-16.6c-1.3-9,1.1-17.1,7.3-23.9
		c4.7-5.2,10.6-8.2,17.5-9.1c6.4-0.8,12.5,0.4,18.1,3.6c0.4,0.2,0.4,0.4,0.1,0.7c-0.6,0.6-1.2,1.2-1.8,1.8c-0.3,0.3-0.5,0.3-0.9,0.1
		C41,8.3,38.6,7.4,36,7c-7.4-1.3-14.2,0.3-20.2,5C10.3,16.3,7,22.1,6.3,29.1C5.5,36.4,7.5,43,12.4,48.6c4.1,4.8,9.4,7.7,15.7,8.5
		c7.4,1,14.1-1,19.8-5.8c4.6-3.9,7.5-8.9,8.5-14.9c1-5.6,0.2-10.9-2.4-15.9c-0.3-0.6-0.2-0.9,0.2-1.3c0.6-0.5,1.1-1,1.6-1.6
		c0.3-0.3,0.4-0.3,0.6,0.1c1.8,3.1,3,6.5,3.5,10.1c1.2,8.6-0.9,16.3-6.5,23c-4.7,5.6-10.7,8.9-17.9,10
		C34.1,60.7,32.8,60.8,31.4,60.8z"/>
	<path class="st1" d="M46.9,32.3c-0.1-2.7-0.5-5-1.6-7.2c-0.2-0.4-0.2-0.7,0.2-1c0.6-0.6,1.2-1.2,1.8-1.8c0.3-0.3,0.4-0.2,0.6,0.1
		c1.4,2.6,2.3,5.3,2.5,8.3c0.3,6-1.7,11-6,15.1c-3.3,3.1-7.3,4.8-11.8,5c-5.9,0.3-10.9-1.7-14.9-6c-3.1-3.3-4.8-7.3-5.1-11.8
		c-0.3-5.9,1.8-10.9,6.1-15c3.2-3,7.1-4.7,11.6-5c3.8-0.3,7.3,0.6,10.6,2.4c0.6,0.3,0.6,0.3,0.1,0.9c-0.6,0.6-1.1,1.1-1.7,1.7
		c-0.3,0.3-0.5,0.3-0.9,0.1c-2.2-1.1-4.6-1.7-7.1-1.6c-7.6,0.2-13.7,5.6-15,12.8c-1.4,7.9,3.5,15.5,11.3,17.6
		c8.8,2.4,17.9-3.6,19.2-12.6C46.8,33.5,46.9,32.7,46.9,32.3z"/>
	<path class="st2" d="M29.6,32c0-0.6,0.3-1,0.7-1.4c5.2-5.2,10.4-10.4,15.7-15.6c0.4-0.4,0.6-0.9,0.5-1.5c-0.2-0.7-0.2-1.5-0.3-2.2
		c0-0.2,0.1-0.4,0.2-0.5c2.9-2.9,5.7-5.7,8.6-8.6c0.3-0.3,0.5-0.3,0.6,0.2c0.3,1.3,0.7,2.5,0.9,3.8c0.1,0.4,0.3,0.6,0.7,0.7
		c1.3,0.3,2.5,0.6,3.8,1c0.4,0.1,0.5,0.2,0.2,0.5c-2.9,2.9-5.8,5.8-8.6,8.6c-0.1,0.1-0.3,0.2-0.5,0.2c-0.8-0.1-1.6-0.2-2.4-0.3
		c-0.5-0.1-0.9,0-1.2,0.4C43.3,22.5,38,27.8,32.7,33.1c-0.9,0.9-2,0.9-2.7,0C29.8,32.8,29.6,32.4,29.6,32z"/>
	<path class="st1" d="M31.5,22.5c0.8,0,1.5,0.1,2.3,0.3c0.3,0.1,0.5,0.2,0.2,0.5c-0.8,0.8-1.7,1.6-2.5,2.5c-0.2,0.2-0.4,0.2-0.6,0.2
		c-3.3,0.4-5.6,3.1-5.3,6.4c0.2,3.2,3,5.6,6.2,5.5c2.8-0.1,5.3-2.3,5.6-5.3c0-0.4,0.2-0.6,0.4-0.9c0.8-0.7,1.5-1.5,2.3-2.3
		c0.3-0.4,0.5-0.3,0.6,0.2c0.7,3.1,0.1,6-2,8.4c-2.5,2.9-5.7,4-9.4,3.1c-3.5-0.9-5.8-3.2-6.9-6.6c-1.6-5.3,2.1-11.1,7.6-11.9
		C30.4,22.5,30.9,22.5,31.5,22.5z"/>
</g>
</svg>
