<?xml version="1.0" encoding="utf-8"?>
<!-- Generator: Adobe Illustrator 19.2.0, SVG Export Plug-In . SVG Version: 6.00 Build 0)  -->
<svg version="1.1" id="Layer_1" xmlns="http://www.w3.org/2000/svg" xmlns:xlink="http://www.w3.org/1999/xlink" x="0px" y="0px"
	 viewBox="0 0 64 64" style="enable-background:new 0 0 64 64;" xml:space="preserve">
<style type="text/css">
	.st0{display:none;fill:#FFFFFF;}
	.st1{fill:#60B4D4;}
	.st2{display:none;fill:#FCFEFF;}
</style>
<g>
	<path class="st0" d="M32,64c-10.5,0-21,0-31.5,0C0.1,64,0,63.9,0,63.5c0-21,0-42,0-63C0,0.1,0.1,0,0.6,0c21,0,41.9,0,62.9,0
		C63.9,0,64,0.1,64,0.5c0,21,0,41.9,0,62.9c0,0.5-0.1,0.6-0.6,0.6C52.9,64,42.5,64,32,64z M32.1,54.6c7.8,0,15.6,0,23.3,0
		c4.1,0,7.3-3.2,7.3-7.3c0-9.5,0-18.9,0-28.4c0-3.4-2.4-6.3-5.7-7.1c-0.6-0.1-1.2-0.2-1.9-0.2c-3.6,0-7.2,0-10.8,0
		c-0.8,0-0.8,0-0.8-0.8c0-0.3,0-0.7,0-1c-0.1-3-2.4-5.4-5.4-5.5c-4,0-8,0-12,0c-2.4,0-4.5,1.6-5.2,3.9c-0.3,0.9-0.3,1.8-0.2,2.7
		c0,0.5-0.1,0.7-0.7,0.7c-3.7,0-7.4,0-11,0c-4.3,0-7.5,3.2-7.5,7.5c0,9.3,0,18.6,0,28c0,0.8,0.1,1.6,0.3,2.3c1,3.1,3.7,5.2,7,5.2
		C16.5,54.6,24.3,54.6,32.1,54.6z"/>
	<path class="st1" d="M32.1,54.6c-7.8,0-15.6,0-23.4,0c-3.2,0-6-2.1-7-5.2c-0.2-0.8-0.3-1.5-0.3-2.3c0-9.3,0-18.6,0-28
		c0-4.3,3.2-7.5,7.5-7.5c3.7,0,7.4,0,11,0c0.6,0,0.7-0.2,0.7-0.7c-0.1-0.9,0-1.8,0.2-2.7c0.7-2.3,2.8-3.8,5.2-3.9c4,0,8,0,12,0
		c3,0,5.4,2.4,5.4,5.5c0,0.3,0,0.7,0,1c0,0.8,0,0.8,0.8,0.8c3.6,0,7.2,0,10.8,0c0.6,0,1.2,0.1,1.9,0.2c3.3,0.7,5.7,3.7,5.7,7.1
		c0,9.5,0,18.9,0,28.4c0,4.1-3.2,7.3-7.3,7.3C47.7,54.6,39.9,54.6,32.1,54.6z M35.8,38.1c0,1.5-0.8,2.7-2.1,3.2
		c-2.4,0.9-5-0.1-6.2-2.4c-0.4-0.7-1.1-1.1-1.9-1c-0.7,0.1-1.3,0.6-1.5,1.4c-0.2,0.7,0.2,1.4,0.5,2c1.1,2,2.9,3.2,5.1,3.7
		c0.5,0.1,0.7,0.3,0.7,0.8c-0.1,0.4,0,0.9,0,1.3c0.1,1.1,0.9,1.8,1.9,1.8c1,0,1.7-0.8,1.8-1.8c0-0.5,0-1,0-1.6
		c0-0.3,0.1-0.5,0.4-0.5c0.6-0.1,1.2-0.4,1.8-0.8c3.3-1.9,4.4-6,2.3-9.2c-1.3-2.1-3.4-3-5.7-3.5c-1-0.2-2-0.5-2.9-1.1
		c-2-1.4-1.8-4,0.3-5.2c1.7-1,5.7-0.4,6.6,2.2c0.3,1,1.4,1.3,2.4,0.9c0.9-0.4,1.3-1.4,0.9-2.4c-0.8-2.1-2.4-3.5-4.5-4.3
		c-0.5-0.2-1.3-0.1-1.6-0.6c-0.2-0.5-0.1-1.1-0.1-1.7c0-1.1-0.8-1.9-1.8-1.9c-1,0-1.8,0.8-1.9,1.9c0,0.5,0,1,0,1.5
		c0,0.3-0.1,0.5-0.4,0.6c-0.6,0.1-1.1,0.4-1.7,0.7c-3.6,2-4.5,6.6-2,9.8c1.3,1.6,3.1,2.5,5,2.9c1.1,0.3,2.2,0.5,3.1,1.1
		C35.2,36.5,35.7,37.2,35.8,38.1z M32.1,11.6c2.4,0,4.8,0,7.2,0c0.2,0,0.6,0.1,0.6-0.3c0-0.5,0-1.1,0-1.6c-0.1-1-0.9-1.7-1.9-1.7
		c-0.2,0-0.4,0-0.6,0c-3.5,0-7,0-10.5,0c-2,0-2.5,0.5-2.5,2.5c0,0.2,0,0.4,0,0.6c-0.1,0.5,0.1,0.6,0.6,0.6
		C27.3,11.6,29.7,11.6,32.1,11.6z"/>
	<path class="st2" d="M35.8,38.1c0-0.8-0.6-1.6-1.5-2.2c-0.9-0.6-2-0.9-3.1-1.1c-2-0.5-3.8-1.3-5-2.9c-2.5-3.2-1.6-7.8,2-9.8
		c0.5-0.3,1.1-0.6,1.7-0.7c0.3-0.1,0.4-0.2,0.4-0.6c0-0.5,0-1,0-1.5c0-1.1,0.8-1.9,1.9-1.9c1,0,1.8,0.8,1.8,1.9
		c0,0.6-0.2,1.3,0.1,1.7c0.2,0.5,1,0.4,1.6,0.6c2.1,0.8,3.6,2.2,4.5,4.3c0.4,1,0,2-0.9,2.4c-1,0.4-2.1,0.1-2.4-0.9
		c-0.9-2.6-4.8-3.2-6.6-2.2c-2.1,1.2-2.3,3.8-0.3,5.2c0.9,0.6,1.9,0.9,2.9,1.1c2.3,0.5,4.4,1.5,5.7,3.5c2,3.2,1,7.3-2.3,9.2
		c-0.6,0.3-1.1,0.6-1.8,0.8c-0.3,0.1-0.4,0.2-0.4,0.5c0,0.5,0,1,0,1.6c0,1-0.8,1.8-1.8,1.8c-1,0-1.8-0.7-1.9-1.8
		c0-0.4-0.1-0.9,0-1.3c0.1-0.5-0.2-0.7-0.7-0.8c-2.2-0.5-3.9-1.7-5.1-3.7c-0.3-0.6-0.7-1.2-0.5-2c0.2-0.8,0.8-1.3,1.5-1.4
		c0.9-0.1,1.5,0.2,1.9,1c1.2,2.3,3.8,3.3,6.2,2.4C34.9,40.8,35.8,39.6,35.8,38.1z"/>
	<path class="st2" d="M32.1,11.6c-2.4,0-4.8,0-7.1,0c-0.5,0-0.7-0.2-0.6-0.6c0-0.2,0-0.4,0-0.6c0-1.9,0.5-2.5,2.5-2.5
		c3.5,0,7,0,10.5,0c0.2,0,0.4,0,0.6,0c1.1,0,1.8,0.6,1.9,1.7c0.1,0.5,0,1.1,0,1.6c0,0.5-0.3,0.3-0.6,0.3
		C36.9,11.6,34.5,11.6,32.1,11.6z"/>
</g>
</svg>
