<svg class="svgicon" id="svg18" preserveAspectRatio="xMidYMid meet" xmlns="http://www.w3.org/2000/svg" viewBox="0 0 60 60"><style> #svg18 path, #svg18 circle, #svg18 polygon, #svg18 rect { fill: rgb(48, 48, 48) } #svg18 defs &gt; path { fill: none }  #svg18 path[fill="none"], #svg18 circle[fill="none"], #svg18 polygon[fill="none"], #svg18 rect[fill="none"] { fill: none } </style><style type="text/css"> #svg18 .st0{fill:rgb(48, 48, 48);} #svg18 .st1{fill-rule:evenodd;clip-rule:evenodd;fill:none;stroke:rgb(48, 48, 48);stroke-width:1.5;stroke-linecap:round;stroke-linejoin:round;stroke-miterlimit:10;} #svg18 .st2{fill:none;stroke:rgb(48, 48, 48);stroke-width:1.5;stroke-linecap:round;stroke-linejoin:round;stroke-miterlimit:10;} </style><path class="st0" d="M50.085,34.602c-9.449,0-9.704-6.92-9.706-6.99c-0.004-0.202,0.073-0.396,0.214-0.541 c0.141-0.144,0.334-0.225,0.536-0.225h17.779c0.414,0,0.75,0.336,0.75,0.75C59.659,27.666,59.55,34.602,50.085,34.602z M41.998,28.346c0.37,1.521,1.884,4.756,8.087,4.756c6.257,0,7.666-3.245,7.982-4.756H41.998z"></path><path class="st0" d="M29.979,11.992c-0.414,0-0.75-0.336-0.75-0.75s0.336-0.75,0.75-0.75c3.214,0,6.266-0.579,8.718-1.043 c1.557-0.295,2.788-0.528,3.727-0.558c3.854-0.118,5.46,0.495,6.633,0.943c0.182,0.069,0.354,0.135,0.526,0.195 c0.395,0.136,1.129,0.034,1.771-0.424c0.319-0.228,0.855-0.729,0.855-1.523c0-0.73-0.271-1.418-0.765-1.95 c-0.03-0.022-0.059-0.047-0.085-0.075c-0.231-0.234-0.576-0.369-0.945-0.369c-0.414,0-0.75-0.336-0.75-0.75 s0.336-0.75,0.75-0.75c0.712,0,1.395,0.256,1.898,0.707c0.038,0.026,0.075,0.056,0.108,0.089 c0.832,0.826,1.29,1.926,1.29,3.099c0,1.087-0.527,2.062-1.484,2.745c-0.977,0.695-2.206,0.94-3.131,0.621 c-0.188-0.064-0.376-0.136-0.574-0.212c-1.113-0.425-2.501-0.952-6.051-0.845c-0.822,0.026-2.06,0.261-3.494,0.532 C36.462,11.398,33.334,11.992,29.979,11.992z"></path><path class="st0" d="M9.873,34.602c-9.465,0-9.575-6.936-9.575-7.006c0-0.414,0.336-0.75,0.75-0.75h17.78 c0.202,0,0.395,0.081,0.536,0.225c0.141,0.144,0.218,0.339,0.214,0.541C19.577,27.682,19.321,34.602,9.873,34.602z M1.897,28.346c0.331,1.511,1.765,4.756,7.976,4.756c6.201,0,7.717-3.232,8.087-4.756H1.897z"></path><path class="st0" d="M29.979,11.992c-3.355,0-6.483-0.593-8.998-1.07c-1.434-0.271-2.672-0.506-3.494-0.532 c-3.557-0.107-4.938,0.419-6.051,0.845c-0.198,0.076-0.386,0.147-0.574,0.212c-0.924,0.319-2.154,0.076-3.131-0.622 c-0.957-0.683-1.484-1.657-1.484-2.744c0-1.171,0.458-2.271,1.289-3.098C7.571,4.948,7.608,4.917,7.649,4.89 c0.502-0.449,1.183-0.703,1.895-0.703c0.414,0,0.75,0.336,0.75,0.75s-0.336,0.75-0.75,0.75c-0.37,0-0.714,0.134-0.944,0.368 C8.571,6.084,8.541,6.11,8.509,6.134C8.017,6.666,7.747,7.353,7.747,8.081c0,0.794,0.536,1.295,0.855,1.523 c0.643,0.458,1.378,0.56,1.772,0.425c0.172-0.06,0.345-0.125,0.526-0.195c1.173-0.449,2.775-1.065,6.634-0.943 c0.939,0.029,2.169,0.262,3.727,0.558c2.452,0.465,5.504,1.043,8.718,1.043c0.414,0,0.75,0.336,0.75,0.75 S30.393,11.992,29.979,11.992z"></path><path class="st0" d="M30.11,56.243c-0.414,0-0.75-0.336-0.75-0.75V4.507c0-0.414,0.336-0.75,0.75-0.75s0.75,0.336,0.75,0.75 v50.985C30.86,55.907,30.524,56.243,30.11,56.243z"></path><path class="st0" d="M45.557,56.243H14.664c-0.414,0-0.75-0.336-0.75-0.75s0.336-0.75,0.75-0.75h30.893 c0.414,0,0.75,0.336,0.75,0.75S45.971,56.243,45.557,56.243z"></path><path class="st0" d="M41.129,28.346c-0.118,0-0.238-0.028-0.35-0.086c-0.366-0.193-0.506-0.647-0.313-1.014l8.89-16.849 c0.194-0.366,0.647-0.506,1.014-0.313c0.366,0.193,0.506,0.647,0.313,1.014l-8.89,16.849C41.659,28.2,41.398,28.346,41.129,28.346 z"></path><path class="st0" d="M59,28.346c-0.269,0-0.529-0.146-0.664-0.4l-8.89-16.849c-0.193-0.367-0.053-0.82,0.313-1.014 c0.366-0.193,0.82-0.052,1.014,0.313l8.89,16.849c0.193,0.367,0.053,0.82-0.313,1.014C59.238,28.318,59.119,28.346,59,28.346z"></path><path class="st0" d="M1,28.346c-0.118,0-0.238-0.028-0.35-0.086c-0.366-0.193-0.506-0.647-0.313-1.014l8.89-16.849 c0.194-0.366,0.646-0.506,1.014-0.313c0.366,0.193,0.506,0.647,0.313,1.014l-8.89,16.849C1.529,28.2,1.269,28.346,1,28.346z"></path><path class="st0" d="M18.871,28.346c-0.269,0-0.529-0.146-0.664-0.4l-8.89-16.849c-0.193-0.367-0.053-0.82,0.313-1.014 c0.366-0.193,0.82-0.052,1.014,0.313l8.89,16.849c0.193,0.367,0.053,0.82-0.313,1.014C19.108,28.318,18.989,28.346,18.871,28.346z "></path></svg>