<svg class="svgicon" id="svg106" preserveAspectRatio="xMidYMid meet" xmlns="http://www.w3.org/2000/svg" viewBox="0 0 60 60"><style> #svg106 path, #svg106 circle, #svg106 polygon, #svg106 rect { fill: rgb(96, 181, 126) } #svg106 defs &gt; path { fill: none }  #svg106 path[fill="none"], #svg106 circle[fill="none"], #svg106 polygon[fill="none"], #svg106 rect[fill="none"] { fill: none } </style><style type="text/css"> #svg106 .st0{fill:none;stroke:rgb(96, 181, 126);stroke-width:1.5;stroke-linecap:round;stroke-linejoin:round;stroke-miterlimit:10;} </style><polyline class="st0" points="47.325,41.505 59,20.578 45.173,12.864 34.231,32.477 "></polyline><path class="st0" d="M43.699,38.921c1.997-0.17,3.877-1.298,4.928-3.181c1.68-3.013,0.6-6.816-2.412-8.496 c-3.013-1.682-6.815-0.602-8.497,2.41c-0.841,1.507-0.991,3.211-0.555,4.749"></path><path class="st0" d="M11.826,37.776c1.101,1.489,2.552,3.294,4.005,4.64c2.962,2.742,8.376,5.203,8.376,5.203 l13.311,7.833c0.77,0.406,1.939,0.257,2.481-0.625c0.455-0.738,0.29-1.688-0.332-2.321l2.789,1.848 c0.879,0.524,2.259,0.424,2.95-0.575c0.469-0.679,0.477-1.548,0.095-2.269c-0.181-0.342-0.777-0.923-0.777-0.923 l1.134,0.645c0.929,0.535,2.375,0.405,3.085-0.654c0.709-1.062,0.357-2.54-0.785-3.304L47.1,46.58 c0.844,0.229,1.777-0.067,2.316-0.821c0.691-0.97,0.467-2.316-0.926-3.312l-12.383-8.458 c-0.183-0.129-4.083-3.265-4.083-3.265c0.879-0.032,2.079-0.044,3.037,0.065 M37.189,26.702 c-1.104-0.148-5.146-0.723-5.146-0.723c-2.739-0.206-8.283-1.66-9.261-1.881 M24.207,47.618 c0.004,0.002,0.009,0.005,0.013,0.008L24.207,47.618z"></path><path class="st0" d="M1,30.248l9.702,8.158c1.074,0.835,13.782-15.495,12.707-16.329L1.225,4.333"></path><line class="st0" x1="47.1" y1="46.58" x2="32.955" y2="37.038"></line><line class="st0" x1="44.743" y1="50.624" x2="29.326" y2="40.35"></line><line class="st0" x1="39.648" y1="52.502" x2="25.908" y2="43.364"></line></svg>