<svg class="svgicon" id="svg79" preserveAspectRatio="xMidYMid meet" xmlns="http://www.w3.org/2000/svg" viewBox="0 0 128 128"><rect x="1.92" y="1.92" width="124.16" height="124.16" style="stroke: rgb(126, 199, 254); fill: none; stroke-alignment: inside; stroke-width: 3.84" rx="62.08" ry="62.08"></rect><g transform="scale(0.85) translate(11.294117647058826, 11.294117647058826)"><style> #svg79 path, #svg79 circle, #svg79 polygon, #svg79 rect { fill: rgb(126, 199, 254) } #svg79 defs &gt; path { fill: none }  #svg79 path[fill="none"], #svg79 circle[fill="none"], #svg79 polygon[fill="none"], #svg79 rect[fill="none"] { fill: none } </style><path d="M104.572,70.231c1.796-0.9,3.593-4.497,3.593-5.624c-0.222-7.643-7.417-9.216-7.417-9.216s0,0-21.583,0 c-1.574-0.224-0.449-4.497,0.451-6.071c3.82-6.744,6.069-12.814,6.069-15.965C84.337,17.84,73.769,20.544,73.32,22.116 c-0.225,15.737-3.825,19.335-7.871,22.035c-4.049,2.694-4.498,5.845-9.217,16.637c-4.722,10.791-13.494,7.195-13.494,7.195 s0.225,3.371,0.225,35.071c26.532,4.95,41.597,4.274,48.564,3.598c6.975-0.671,9.219-5.393,9.219-7.867 c0-2.923,0.899-4.501,2.025-5.172c4.946-4.048,3.371-5.396,2.024-8.316c-1.351-2.928-0.898-3.824,1.347-5.85 c2.656-2.251,1.126-5.397,0.225-6.517C105.469,71.807,104.796,71.353,104.572,70.231z"></path><path d="M34.892,66.858H21.19c-0.748,0-1.354,0.605-1.354,1.358v35.731c0,0.746,0.606,1.358,1.354,1.358h13.702 c0.748,0,1.354-0.612,1.354-1.358V68.216C36.247,67.463,35.64,66.858,34.892,66.858z M28.041,77.668 c-2.087,0-3.779-1.692-3.779-3.779c0-2.087,1.692-3.779,3.779-3.779c2.086,0,3.779,1.692,3.779,3.779 C31.82,75.976,30.127,77.668,28.041,77.668z"></path></g></svg>