<svg class="svgicon" id="svg124" preserveAspectRatio="xMidYMid meet" xmlns="http://www.w3.org/2000/svg" viewBox="0 0 60 60"><style> #svg124 path, #svg124 circle, #svg124 polygon, #svg124 rect { fill: rgb(96, 181, 126) } #svg124 defs &gt; path { fill: none }  #svg124 path[fill="none"], #svg124 circle[fill="none"], #svg124 polygon[fill="none"], #svg124 rect[fill="none"] { fill: none } </style><style type="text/css"> #svg124 .st0{fill:none;stroke:rgb(96, 181, 126);stroke-width:1.5;stroke-linecap:round;stroke-linejoin:round;stroke-miterlimit:10;} </style><path class="st0" d="M33.29,47.977c0-2.098-0.21-3.355-0.21-3.355s2.726-3.775,2.937-9.018c0-0.833,0.408-6.747-6.709-7.015 c0-0.002-0.105-0.002-0.105,0c-7.118,0.268-6.71,6.182-6.71,7.015c0.208,5.242,2.936,9.018,2.936,9.018 s-0.212,1.257-0.212,3.355c-11.32,2.725-12.895,6.5-12.895,6.5V59h33.866v-4.523C46.188,54.477,44.613,50.702,33.29,47.977z"></path><path class="st0" d="M44.134,1H17.241c-1.958,0-3.546,1.587-3.546,3.546v15.661c0,1.959,1.588,3.547,3.546,3.547h17.848 l3.38,4.772c0.278,0.278,0.729,0.278,1.006,0l3.379-4.772h1.28c1.958,0,3.545-1.588,3.545-3.547V4.546 C47.679,2.587,46.092,1,44.134,1z"></path><line class="st0" x1="17.825" y1="7.258" x2="43.838" y2="7.258"></line><line class="st0" x1="17.825" y1="17.822" x2="43.838" y2="17.822"></line><line class="st0" x1="17.825" y1="12.483" x2="43.838" y2="12.483"></line></svg>