<svg class="svgicon" id="svg128" preserveAspectRatio="xMidYMid meet" xmlns="http://www.w3.org/2000/svg" viewBox="0 0 60 60"><style> #svg128 path, #svg128 circle, #svg128 polygon, #svg128 rect { fill: rgb(96, 181, 126) } #svg128 defs &gt; path { fill: none }  #svg128 path[fill="none"], #svg128 circle[fill="none"], #svg128 polygon[fill="none"], #svg128 rect[fill="none"] { fill: none } </style><style type="text/css"> #svg128 .st0{fill:none;stroke:rgb(96, 181, 126);stroke-width:1.5;stroke-linecap:round;stroke-linejoin:round;stroke-miterlimit:10;} </style><path class="st0" d="M44.565,15.564C44.565,7.521,38.045,1,30,1S15.435,7.521,15.435,15.564c0,6.219,3.898,11.525,9.384,13.613 v26.354c0,0.117,0.04,0.229,0.11,0.309l2.721,3.053C27.711,58.963,27.794,59,27.878,59c0.011,0,0.021,0,0.03,0 c0.097-0.01,0.183-0.068,0.241-0.164l3.965-6.383c0.081-0.127,0.094-0.299,0.032-0.443l-1.775-4.213v-1.76l1.327-1.125 c0.083-0.072,0.137-0.184,0.146-0.309l0.327-4.934l3.147-2.523c0.096-0.076,0.153-0.207,0.153-0.348v-7.734 C40.804,26.898,44.565,21.672,44.565,15.564z M30,4.586c1.622,0,2.935,1.314,2.935,2.936c0,1.619-1.313,2.936-2.935,2.936 c-1.621,0-2.935-1.316-2.935-2.936C27.065,5.9,28.379,4.586,30,4.586z"></path><circle class="st0" cx="30" cy="7.521" r="2.936"></circle><line class="st0" x1="27.6" y1="29.855" x2="27.6" y2="58.373"></line><line class="st0" x1="32.178" y1="30.07" x2="32.178" y2="39.688"></line></svg>