<?xml version="1.0" encoding="utf-8"?>
<!-- Generator: Adobe Illustrator 19.2.0, SVG Export Plug-In . SVG Version: 6.00 Build 0)  -->
<svg version="1.1" id="Layer_1" xmlns="http://www.w3.org/2000/svg" xmlns:xlink="http://www.w3.org/1999/xlink" x="0px" y="0px"
	 viewBox="0 0 64 64" style="enable-background:new 0 0 64 64;" xml:space="preserve">
<style type="text/css">
	.st0{display:none;fill:#FFFFFF;}
	.st1{fill:#60B4D4;}
	.st2{fill:#60B4D5;}
	.st3{display:none;fill:#FCFEFF;}
</style>
<g>
	<path class="st0" d="M0,32C0,21.5,0,11,0,0.5C0,0.1,0.1,0,0.5,0c21,0,42,0,63,0C63.9,0,64,0.1,64,0.5c0,21,0,42,0,63
		c0,0.4-0.1,0.5-0.5,0.5c-21,0-42,0-63,0C0.1,64,0,63.9,0,63.5C0,53,0,42.5,0,32z M29.6,35.4c0.9,0.1,1.7-0.1,2.4-0.2
		c3.3-0.6,6.4-1.6,8.9-4c0.2-0.2,0.3-0.2,0.6-0.2c2.2,0.3,4.4,0.2,6.5-0.2c4.5-0.8,8.5-2.7,11.5-6.3c2.8-3.5,3.7-7.4,2.3-11.7
		c-1.3-3.9-4.1-6.5-7.6-8.3C50,2.1,45.4,1.5,40.7,2.2C36.1,2.9,32.1,4.8,29,8.4c-3.6,4.1-4.1,10-1.2,14.6c1.3,2.1,3,3.7,5.1,5
		c0.4,0.2,0.5,0.4,0.3,0.9c-0.2,0.9-0.5,1.8-0.9,2.6C31.6,32.8,30.7,34.1,29.6,35.4z M35.8,61.6c1.4,0,2.6-0.2,3.2-0.8
		c1.4-1.2,2.8-2.5,3.8-4.1c0.9-1.4,0.9-2.9,0-4.3c-1.6-2.3-3.7-3.8-6.3-4.8c-1.4-0.5-2.8-0.2-3.9,0.8c-0.6,0.5-1.2,1.1-1.8,1.7
		c-0.7,0.8-1.5,0.9-2.4,0.6c-1.1-0.3-2.1-0.9-3-1.6c-3.6-2.7-6.7-5.9-9.6-9.4c-0.9-1.1-1.7-2.3-2.2-3.8c-0.4-1-0.2-1.9,0.6-2.7
		c0.4-0.4,0.8-0.8,1.2-1.2c1.4-1.5,1.8-3.2,0.9-5.1c-1-2.1-2.3-3.9-4.1-5.3c-1.6-1.3-3.2-1.3-4.9-0.2c-1.3,0.9-2.3,2.1-3.4,3.2
		c-0.4,0.4-0.7,0.9-0.9,1.4c-0.6,1.8-0.3,3.6,0.1,5.4c0.8,3.4,2.3,6.4,4.2,9.3c3.1,4.8,6.9,9,11.3,12.6c3.1,2.6,6.5,4.8,10.3,6.4
		C31.2,60.8,33.5,61.5,35.8,61.6z"/>
	<path class="st1" d="M29.6,35.4c1.1-1.2,2-2.6,2.6-4c0.4-0.8,0.7-1.7,0.9-2.6c0.1-0.4,0-0.6-0.3-0.9c-2-1.3-3.8-2.9-5.1-5
		c-2.9-4.6-2.4-10.5,1.2-14.6c3.1-3.6,7.1-5.4,11.7-6.2c4.7-0.7,9.3-0.1,13.5,2.1c3.5,1.8,6.3,4.5,7.6,8.3c1.5,4.3,0.6,8.3-2.3,11.7
		c-3,3.6-6.9,5.5-11.5,6.3c-2.2,0.4-4.4,0.5-6.5,0.2c-0.2,0-0.4,0-0.6,0.2c-2.5,2.4-5.6,3.5-8.9,4C31.3,35.3,30.5,35.4,29.6,35.4z
		 M39.8,9.7c-0.5,0-0.8,0.2-1,0.6c-0.3,0.6-0.1,1.1,0.3,1.5c1.1,1.2,2.1,2.3,3.2,3.5c0.4,0.4,0.4,0.7,0,1.1
		c-1.1,1.2-2.2,2.3-3.2,3.5c-0.6,0.6-0.5,1.3,0,1.8c0.5,0.5,1.1,0.4,1.7-0.2c1.1-1.2,2.1-2.3,3.2-3.5c0.3-0.4,0.5-0.3,0.7,0
		c1.1,1.2,2.1,2.4,3.2,3.6c0.5,0.6,1.2,0.6,1.7,0.2c0.5-0.4,0.5-1.1,0-1.7c-0.1-0.1-0.2-0.2-0.3-0.3c-1-1.1-1.9-2.1-2.9-3.2
		c-0.6-0.7-0.6-0.7,0-1.3c1-1.1,2.1-2.3,3.1-3.4c0.6-0.6,0.6-1.3,0-1.8c-0.5-0.5-1.2-0.4-1.7,0.2c-1.1,1.2-2.1,2.3-3.1,3.5
		c-0.3,0.4-0.5,0.3-0.8,0c-1-1.2-2.1-2.4-3.2-3.5C40.5,9.9,40.2,9.7,39.8,9.7z"/>
	<path class="st2" d="M35.8,61.6c-2.3-0.1-4.6-0.8-6.8-1.7c-3.8-1.6-7.1-3.8-10.3-6.4c-4.4-3.7-8.2-7.8-11.3-12.6
		c-1.8-2.9-3.4-5.9-4.2-9.3c-0.4-1.8-0.7-3.6-0.1-5.4c0.2-0.5,0.5-1,0.9-1.4c1.1-1.1,2.1-2.3,3.4-3.2c1.7-1.1,3.3-1.1,4.9,0.2
		c1.8,1.4,3.1,3.3,4.1,5.3c0.9,1.9,0.5,3.6-0.9,5.1c-0.4,0.4-0.8,0.9-1.2,1.2c-0.9,0.7-1,1.6-0.6,2.7c0.5,1.4,1.3,2.6,2.2,3.8
		c2.8,3.5,6,6.7,9.6,9.4c0.9,0.7,1.9,1.3,3,1.6c0.9,0.3,1.7,0.2,2.4-0.6c0.5-0.6,1.2-1.1,1.8-1.7c1.1-1,2.5-1.3,3.9-0.8
		c2.6,1,4.7,2.5,6.3,4.8c1,1.4,0.9,2.9,0,4.3c-1,1.6-2.4,2.9-3.8,4.1C38.3,61.4,37.1,61.6,35.8,61.6z"/>
	<path class="st3" d="M39.8,9.7c0.4,0,0.7,0.2,0.9,0.5c1.1,1.2,2.1,2.3,3.2,3.5c0.3,0.4,0.5,0.4,0.8,0c1-1.2,2.1-2.3,3.1-3.5
		c0.6-0.6,1.2-0.7,1.7-0.2c0.5,0.5,0.5,1.1,0,1.8c-1,1.2-2.1,2.3-3.1,3.4c-0.6,0.6-0.6,0.6,0,1.3c1,1.1,1.9,2.1,2.9,3.2
		c0.1,0.1,0.2,0.2,0.3,0.3c0.5,0.6,0.5,1.2,0,1.7c-0.5,0.4-1.1,0.4-1.7-0.2c-1.1-1.2-2.2-2.4-3.2-3.6c-0.3-0.3-0.4-0.4-0.7,0
		c-1,1.2-2.1,2.4-3.2,3.5c-0.6,0.6-1.2,0.7-1.7,0.2c-0.5-0.5-0.5-1.1,0-1.8c1.1-1.2,2.1-2.4,3.2-3.5c0.4-0.4,0.4-0.7,0-1.1
		c-1.1-1.1-2.1-2.3-3.2-3.5c-0.4-0.4-0.7-0.9-0.3-1.5C39,9.9,39.3,9.7,39.8,9.7z"/>
</g>
</svg>
