<?xml version="1.0" encoding="utf-8"?>
<!-- Generator: Adobe Illustrator 19.2.0, SVG Export Plug-In . SVG Version: 6.00 Build 0)  -->
<svg version="1.1" id="Layer_1" xmlns="http://www.w3.org/2000/svg" xmlns:xlink="http://www.w3.org/1999/xlink" x="0px" y="0px"
	 viewBox="0 0 64 64" style="enable-background:new 0 0 64 64;" xml:space="preserve">
<style type="text/css">
	.st0{display:none;fill:#FDFEFF;}
	.st1{fill:#60B4D4;}
</style>
<g>
	<path class="st0" d="M32,64c-10.5,0-21,0-31.5,0C0.1,64,0,63.9,0,63.5c0-21,0-42,0-63C0,0.1,0.1,0,0.6,0c21,0,41.9,0,62.9,0
		C63.9,0,64,0.1,64,0.5c0,21,0,41.9,0,62.9c0,0.5-0.1,0.6-0.6,0.6C52.9,64,42.5,64,32,64z M28.1,3.8c0.4,0.2,0.9,0.3,1.3,0.3
		c1,0,2.1,0,3.1,0c0.6,0,1.3,0.1,1.9,0.3C34.7,4.5,35,4.6,35,4.9c0,0.3-0.2,0.4-0.4,0.5c-0.3,0.2-0.7,0.3-1,0.5
		c-0.5,0.2-1,0.5-1.4,0.9c-0.5,0.5-0.4,1.1,0.3,1.3c0.4,0.1,0.7,0.1,1.1,0c1-0.2,1.9-0.4,2.9-0.5c1.4-0.1,2.1,0.6,1.8,2
		c-0.1,0.3-0.1,0.5-0.2,0.8c-0.4,1.2-0.4,2.3,0.3,3.4c0.4,0.8,0.3,1.5-0.3,2.1c-0.3,0.3-0.6,0.6-1,0.8c-1,0.5-1.9,1-2.9,1.6
		c-0.7,0.4-1.5,0.8-2,1.5c-2.5,3.3-2.5,6.2-0.2,9.6c0.5,0.8,1.3,1.1,2.2,0.8c0.4-0.1,0.9-0.2,1.4-0.2c2.8-0.2,5,1,6.8,3.2
		c0.9,1.1,1.9,2.1,3.2,2.8c1.1,0.6,2.3,0.9,3.5,1.2c0.7,0.2,1.2,0.7,1.3,1.4c0.1,0.6,0.1,1.1-0.1,1.7c-0.8,2.9-2.5,5.1-4.9,6.6
		c-2.1,1.3-3.7,3-5,5c-1.7,2.5-4.2,3.8-7,4.4c-0.4,0.1-0.9,0.1-1.2-0.3c-0.3-0.4,0-0.8,0.2-1.2c0.1-0.1,0.2-0.3,0.3-0.4
		c1-1.4,1.6-2.9,1.8-4.6c0.2-2.2-0.4-4.1-2.3-5.4c-0.9-0.6-1.8-1.1-2.7-1.8c-0.9-0.7-1.4-1.5-1.1-2.7c0.2-0.8,0.5-1.6,0.9-2.2
		c0.5-0.8,1.1-1.5,1.6-2.2c0.7-0.9,1-2,0.7-3.1c-0.6-2.8-2-5.3-4.2-7.3c-1.3-1.1-2.8-1.6-4.5-1c-0.5,0.2-1,0.2-1.5,0.1
		c-5.3-0.9-8-6.6-5.2-11.3c0.6-1,1.3-1.8,1.9-2.7c0.4-0.6,0.7-1.3,0.7-2.1c0-0.7-0.1-0.7-0.7-0.4c-2.2,1.4-4.3,3-6,4.9
		c-6,6.6-8.5,14.4-7.3,23.2c0.9,6.8,4,12.6,9.1,17.1c6.7,6,14.5,8.3,23.4,7c6.6-1,12.2-4,16.7-9c6.2-6.9,8.5-15.1,6.9-24.2
		C59.1,20,55.8,14.4,50.5,10C44,4.6,36.4,2.7,28.1,3.8z"/>
	<path class="st1" d="M28.1,3.8C36.4,2.7,44,4.6,50.5,10c5.3,4.4,8.6,10,9.8,16.7c1.6,9.1-0.7,17.3-6.9,24.2c-4.5,5-10.1,8.1-16.7,9
		c-8.8,1.3-16.7-1-23.4-7c-5.1-4.6-8.2-10.3-9.1-17.1c-1.1-8.8,1.3-16.6,7.3-23.2c1.8-1.9,3.8-3.6,6-4.9c0.6-0.4,0.7-0.3,0.7,0.4
		c0,0.8-0.2,1.5-0.7,2.1c-0.6,0.9-1.3,1.8-1.9,2.7c-2.7,4.7-0.1,10.4,5.2,11.3c0.5,0.1,1,0.1,1.5-0.1c1.7-0.6,3.2-0.1,4.5,1
		c2.2,1.9,3.5,4.4,4.2,7.3c0.2,1.1-0.1,2.2-0.7,3.1c-0.5,0.8-1.1,1.5-1.6,2.2c-0.5,0.7-0.8,1.4-0.9,2.2c-0.2,1.2,0.2,2.1,1.1,2.7
		c0.9,0.6,1.8,1.2,2.7,1.8c2,1.3,2.6,3.2,2.3,5.4c-0.2,1.7-0.8,3.2-1.8,4.6c-0.1,0.1-0.2,0.3-0.3,0.4c-0.2,0.4-0.5,0.8-0.2,1.2
		c0.3,0.4,0.8,0.4,1.2,0.3c2.9-0.7,5.4-1.9,7-4.4c1.4-2,3-3.7,5-5c2.4-1.6,4.2-3.8,4.9-6.6c0.1-0.6,0.1-1.1,0.1-1.7
		c-0.1-0.7-0.6-1.3-1.3-1.4c-1.2-0.3-2.4-0.6-3.5-1.2c-1.3-0.7-2.3-1.7-3.2-2.8c-1.7-2.2-3.9-3.4-6.8-3.2c-0.5,0-0.9,0.1-1.4,0.2
		c-0.9,0.2-1.6-0.1-2.2-0.8c-2.3-3.4-2.2-6.3,0.2-9.6c0.5-0.7,1.3-1.1,2-1.5c1-0.5,1.9-1,2.9-1.6c0.4-0.2,0.7-0.5,1-0.8
		c0.6-0.7,0.8-1.3,0.3-2.1c-0.6-1.1-0.6-2.3-0.3-3.4c0.1-0.3,0.1-0.5,0.2-0.8c0.3-1.3-0.4-2.1-1.8-2c-1,0.1-1.9,0.3-2.9,0.5
		c-0.4,0.1-0.7,0.1-1.1,0c-0.7-0.2-0.9-0.8-0.3-1.3c0.4-0.4,0.9-0.6,1.4-0.9c0.3-0.2,0.7-0.3,1-0.5C34.8,5.3,35,5.2,35,4.9
		c0-0.3-0.3-0.4-0.5-0.5c-0.6-0.2-1.3-0.3-1.9-0.3c-1,0-2.1,0-3.1,0C29,4.2,28.5,4.1,28.1,3.8z"/>
</g>
</svg>
