<?xml version="1.0" encoding="utf-8"?>
<!-- Generator: Adobe Illustrator 19.2.0, SVG Export Plug-In . SVG Version: 6.00 Build 0)  -->
<svg version="1.1" id="Layer_1" xmlns="http://www.w3.org/2000/svg" xmlns:xlink="http://www.w3.org/1999/xlink" x="0px" y="0px"
	 viewBox="0 0 64 64" style="enable-background:new 0 0 64 64;" xml:space="preserve">
<style type="text/css">
	.st0{display:none;fill:#FFFFFF;}
	.st1{fill:#61AD7C;}
</style>
<g>
	<path class="st0" d="M32,64c-10.5,0-21,0-31.5,0C0.1,64,0,63.9,0,63.5c0-21,0-42,0-63C0,0.1,0.1,0,0.6,0c21,0,41.9,0,62.9,0
		C63.9,0,64,0.1,64,0.5c0,21,0,41.9,0,62.9c0,0.5-0.1,0.6-0.6,0.6C52.9,64,42.5,64,32,64z M45,29c0.9-0.1,1.7,0,2.5-0.1
		c2-0.4,3.6-2.1,3.6-4.2c0-6.1,0-12.2,0-18.3c0-2.3-2-4.5-4.5-4.5c-9.3,0-18.6,0-28,0c-0.6,0-1.1,0-1.7,0.1c-1.8,0.4-3.4,2.2-3.4,4
		c0,6.2,0,12.4,0,18.6c0,0.2,0,0.5,0,0.7c0.5,2.2,2.4,3.5,4.5,3.6c1,0,2,0,3,0c-0.3,1.1-0.5,2.1-0.8,3.1c-0.1,0.4,0,0.6,0.4,0.5
		c2.2-0.6,4.1-1.6,5.6-3.3c0.2-0.2,0.3-0.3,0.6-0.3c4.1,0,8.2,0,12.3,0c0.2,0,0.3,0,0.5,0.2c1.5,1.7,3.4,2.8,5.6,3.4
		c0.5,0.1,0.6,0.1,0.5-0.4C45.5,31.1,45.2,30.1,45,29z M15.8,61.1c3.3,0,6.6,0,9.9,0c0.6,0,0.7-0.2,0.7-0.7c-0.1-1.1,0-2.3-0.1-3.4
		c-0.4-3.4-3.7-6.5-7.3-6.4c-1.9,0-3.8,0.1-5.7,0c-2-0.1-3.7,0.4-5.2,1.7c-1.7,1.3-2.6,3.1-2.8,5.3c-0.1,1,0,2,0,3.1
		c0,0.5,0.1,0.6,0.6,0.6C9.2,61.1,12.5,61.1,15.8,61.1z M47.7,61.1c3.3,0,6.6,0,10,0c0.4,0,0.6-0.1,0.6-0.6c0-0.7,0-1.4,0-2.1
		c0.1-1.5-0.2-2.8-0.9-4.1c-1.4-2.4-3.5-3.7-6.2-3.8c-1.1-0.1-2.3,0-3.4,0c-1.5,0-3-0.2-4.4,0.1c-2.7,0.5-4.5,2.2-5.6,4.7
		c-0.7,1.6-0.5,3.3-0.5,5c0,0.6,0.2,0.8,0.7,0.7C41.2,61.1,44.4,61.1,47.7,61.1z M15.7,48.3c3.7,0.2,6.9-3.1,6.8-6.6
		c0-3.8-3-6.6-6.5-6.8c-3.9-0.2-6.9,3.2-7,6.3C8.8,45.3,12.4,48.6,15.7,48.3z M47.7,48.3c3.7,0.2,6.5-3.1,6.8-6.1
		c0.3-4.4-3.3-7.2-6.4-7.3c-4.1-0.1-7.1,3.1-7.1,6.7C40.9,45.2,44,48.5,47.7,48.3z"/>
	<path class="st1" d="M45,29c0.3,1,0.5,2.1,0.8,3.1c0.1,0.5,0,0.6-0.5,0.4c-2.2-0.6-4.1-1.6-5.6-3.4C39.5,29,39.4,29,39.2,29
		c-4.1,0-8.2,0-12.3,0c-0.2,0-0.4,0.1-0.6,0.3c-1.5,1.8-3.4,2.7-5.6,3.3c-0.4,0.1-0.5-0.1-0.4-0.5c0.3-1,0.5-2.1,0.8-3.1
		c-1,0-2,0-3,0c-2.2,0-4-1.4-4.5-3.6c-0.1-0.2,0-0.5,0-0.7c0-6.2,0-12.4,0-18.6c0-1.8,1.6-3.6,3.4-4C17.5,2,18.1,2,18.6,2
		c9.3,0,18.6,0,28,0c2.5,0,4.5,2.2,4.5,4.5c-0.1,6.1,0,12.2,0,18.3c0,2-1.6,3.7-3.6,4.2C46.7,29.1,45.8,28.9,45,29z M32.8,19
		c0.1,0,0.2,0,0.3,0c0.7,0.1,0.9-0.2,0.9-0.8c0-0.5,0.2-0.9,0.4-1.4c0.4-0.7,1.1-1.2,1.6-1.8c1.2-1.3,2.2-2.8,2-4.7
		c-0.2-1.6-0.9-2.9-2.4-3.5c-1.1-0.5-2.3-0.6-3.5-0.3c-1.7,0.3-3,1.2-3.5,3c-0.4,1.2-0.4,1.2,0.8,1.2c0.1,0,0.2,0,0.3,0
		c0.6,0,1.1,0.1,1-0.8c0-0.1,0.1-0.2,0.1-0.3c0.7-1.3,1.9-1.4,3.4-1.2c0.5,0.1,0.9,0.3,1.2,0.7c0.6,1,0.7,2.1,0.3,3.2
		c-0.4,1.1-1.4,1.8-2.2,2.6c-0.9,1-1.6,2-1.6,3.4c0,0.8-0.1,0.8,0.7,0.8C32.6,19,32.7,19,32.8,19z M31.7,22.7c0,0.8,0.5,1.3,1.2,1.3
		c0.7,0,1.3-0.6,1.3-1.3c0-0.7-0.6-1.2-1.3-1.2C32.2,21.5,31.8,22,31.7,22.7z"/>
	<path class="st1" d="M15.8,61.1c-3.3,0-6.6,0-9.9,0c-0.5,0-0.6-0.1-0.6-0.6c0-1,0-2,0-3.1c0.1-2.2,1.1-3.9,2.8-5.3
		c1.5-1.2,3.3-1.7,5.2-1.7c1.9,0.1,3.8,0,5.7,0c3.6-0.1,6.9,3,7.3,6.4c0.1,1.1,0,2.3,0.1,3.4c0,0.5-0.1,0.7-0.7,0.7
		C22.4,61.1,19.1,61.1,15.8,61.1z"/>
	<path class="st1" d="M47.7,61.1c-3.3,0-6.6,0-9.8,0c-0.6,0-0.8-0.2-0.7-0.7c0-1.7-0.2-3.4,0.5-5c1.1-2.5,2.9-4.2,5.6-4.7
		c1.5-0.3,2.9-0.1,4.4-0.1c1.1,0,2.3,0,3.4,0c2.8,0.1,4.8,1.4,6.2,3.8c0.7,1.3,1,2.6,0.9,4.1c0,0.7,0,1.4,0,2.1
		c0,0.4-0.1,0.6-0.6,0.6C54.4,61.1,51,61.1,47.7,61.1z"/>
	<path class="st1" d="M15.7,48.3c-3.4,0.3-7-3-6.7-7.1c0.2-3.1,3.1-6.5,7-6.3c3.5,0.2,6.5,3,6.5,6.8C22.6,45.2,19.5,48.5,15.7,48.3z
		"/>
	<path class="st1" d="M47.7,48.3c-3.7,0.2-6.9-3.1-6.8-6.7c0.1-3.6,3-6.8,7.1-6.7c3.1,0.1,6.8,3,6.4,7.3
		C54.3,45.2,51.4,48.5,47.7,48.3z"/>
	<path class="st0" d="M32.8,19c-0.1,0-0.2,0-0.3,0c-0.8,0-0.7,0-0.7-0.8c0-1.4,0.7-2.4,1.6-3.4c0.7-0.9,1.7-1.5,2.2-2.6
		C36.1,11,36,10,35.3,9c-0.3-0.4-0.7-0.6-1.2-0.7c-1.5-0.3-2.6-0.1-3.4,1.2c-0.1,0.1-0.2,0.2-0.1,0.3c0.1,0.8-0.4,0.8-1,0.8
		c-0.1,0-0.2,0-0.3,0c-1.2,0-1.1,0-0.8-1.2c0.5-1.8,1.8-2.6,3.5-3c1.2-0.2,2.4-0.1,3.5,0.3c1.5,0.6,2.3,1.9,2.4,3.5
		c0.2,1.9-0.8,3.4-2,4.7c-0.5,0.6-1.2,1.1-1.6,1.8c-0.2,0.4-0.4,0.9-0.4,1.4c0,0.6-0.2,1-0.9,0.8C33,18.9,32.9,19,32.8,19z"/>
	<path class="st0" d="M31.7,22.7c0-0.7,0.5-1.2,1.2-1.2c0.7,0,1.3,0.6,1.3,1.2c0,0.7-0.6,1.3-1.3,1.3C32.2,24,31.7,23.5,31.7,22.7z"
		/>
</g>
</svg>
