<?xml version="1.0" encoding="utf-8"?>
<!-- Generator: Adobe Illustrator 19.2.0, SVG Export Plug-In . SVG Version: 6.00 Build 0)  -->
<svg version="1.1" id="Layer_1" xmlns="http://www.w3.org/2000/svg" xmlns:xlink="http://www.w3.org/1999/xlink" x="0px" y="0px"
	 viewBox="0 0 464 137" style="enable-background:new 0 0 464 137;" xml:space="preserve">
<style type="text/css">
	.st0{fill:#979797;}
	.st1{fill:#FFFFFF;}
	.st2{fill:#44DD61;}
</style>
<g>
	<path class="st0" d="M182.6,10c-2.7,2.7-2.7,7,0,9.6c2.7,2.7,7,2.7,9.7,0s2.7-7,0-9.6S185.3,7.3,182.6,10L182.6,10z M177.2,4.5
		c5.7-5.6,14.9-5.6,20.6,0.1c5.7,5.7,5.6,14.9-0.1,20.5c-4.7,4.6-11.7,5.4-17.2,2.5l-6.7,6.8c-1.6-2.3-3.4-4.4-5.4-6.4l6.2-6.4
		C171.6,16.2,172.5,9.2,177.2,4.5L177.2,4.5z M66.4,74.7c3.6,5.4,3.1,12.3-0.8,17.1l11.3,16c3.7-1.1,7.6-0.8,11,0.9v-0.1l6.4-6.1
		c2,2,4.2,3.8,6.5,5.4l-6.9,6.7c3.6,6.4,1.8,14.6-4.3,18.9c-6.6,4.6-15.6,3.1-20.3-3.5c-3.7-5.3-3.4-12.3,0.3-17.2L58.3,96.7
		C53.7,98,48.8,97,45.1,94l0,0l0,0l-16.6,11c1.8,6-0.5,12.6-5.9,16.2c-6.7,4.4-15.7,2.6-20.1-4.1S-0.1,101.4,6.6,97
		c5.4-3.6,12.4-3.1,17.2,0.9l16.6-11c-1.7-5.9,0.5-12.6,5.9-16.2C53,66.2,62,68.1,66.4,74.7L66.4,74.7z M18.3,114.7
		c3.1-2.1,4-6.3,1.9-9.4s-6.3-4-9.5-1.9c-3.1,2.1-4,6.3-1.9,9.5C10.9,116,15.2,116.8,18.3,114.7L18.3,114.7z M48.6,86.5
		c2.1,3.1,6.3,4,9.5,1.9c3.1-2.1,4-6.3,1.9-9.4s-6.3-4-9.5-1.9C47.4,79.1,46.5,83.4,48.6,86.5L48.6,86.5z M77.4,116.1
		c-3.1,2.2-3.8,6.4-1.6,9.5c2.2,3.1,6.4,3.8,9.5,1.6s3.8-6.4,1.6-9.5C84.7,114.7,80.5,113.9,77.4,116.1L77.4,116.1z"/>
	<path class="st1" d="M172.6,65.3c0-23-18.7-41.7-41.7-41.7S89.2,42.3,89.2,65.3s18.7,41.7,41.7,41.7S172.6,88.3,172.6,65.3
		L172.6,65.3z M130.9,16.7c26.9,0,48.7,21.8,48.7,48.6c0,11.6-4.1,22.2-10.8,30.6l3.8,3.8c-1.8,2.2-3.8,4.2-5.9,6.1l-3.8-3.8
		c-8.6,7.4-19.7,12-32,12c-26.9,0-48.7-21.8-48.7-48.6C82.2,38.4,104,16.7,130.9,16.7L130.9,16.7z M188.1,126.6l6.5-6.5
		c1.3-1.3,1.3-3.5,0-4.7l-18.8-17.6c-1.3-1.2-3.4-1.3-4.7,0l-0.2,0.2l1.7,1.7c-1.8,2.2-3.8,4.2-5.9,6.1l-1.8-1.8l-0.3,0.3
		c-1.3,1.3-1.3,3.5,0,4.7l18.8,17.6C184.8,127.9,186.8,127.9,188.1,126.6L188.1,126.6z M175.8,97.9l18.8,17.6c1.3,1.2,1.3,3.4,0,4.7
		l-6.5,6.5c-1.3,1.3-3.4,1.2-4.7,0l-18.8-17.6c-1-0.9-1.2-2.3-0.8-3.5l-2.1,2.1c-0.8,0.8-0.8,2.1,0,2.9l26,26c0.8,0.8,2.1,0.8,2.9,0
		l12.6-12.6c0.8-0.8,0.8-2.1,0-2.9l-26-26c-0.8-0.8-2.1-0.8-2.9,0l-2.1,2.1C173.4,96.7,174.8,96.9,175.8,97.9L175.8,97.9z"/>
	<path class="st2" d="M130.9,102.1c20.3,0,36.8-16.5,36.8-36.8s-16.5-36.8-36.8-36.8S94.1,45,94.1,65.3
		C94.1,85.6,110.5,102.1,130.9,102.1L130.9,102.1z M124.7,58.8h12.4v30.3h-12.4L124.7,58.8L124.7,58.8z M140.7,41.7h12.4v47.5h-12.4
		V41.7L140.7,41.7z M108.7,75.4h12.4v13.8h-12.4V75.4L108.7,75.4z"/>
	<path class="st0" d="M240.2,130.1c0,0.1,0,0.1,0,0.2c0,0-0.1,0.1-0.2,0.1c-0.1,0-0.2,0.1-0.3,0.1s-0.3,0-0.5,0s-0.3,0-0.5,0
		c-0.1,0-0.2,0-0.3-0.1c-0.1,0-0.1-0.1-0.2-0.1c0,0,0-0.1,0-0.2v-13.3l0,0l-5.3,13.3c0,0.1-0.1,0.1-0.1,0.1s-0.1,0.1-0.2,0.1
		c-0.1,0-0.2,0-0.3,0.1c-0.1,0-0.2,0-0.4,0s-0.3,0-0.4,0c-0.1,0-0.2,0-0.3-0.1c-0.1,0-0.1-0.1-0.2-0.1l-0.1-0.1l-5.1-13.3l0,0v13.3
		c0,0.1,0,0.1,0,0.2c0,0-0.1,0.1-0.2,0.1c-0.1,0-0.2,0.1-0.3,0.1s-0.3,0-0.5,0s-0.4,0-0.5,0s-0.2,0-0.3-0.1c-0.1,0-0.1-0.1-0.2-0.1
		c0,0,0-0.1,0-0.2v-14c0-0.3,0.1-0.6,0.3-0.7s0.4-0.2,0.6-0.2h1.2c0.3,0,0.5,0,0.7,0.1c0.2,0,0.4,0.1,0.5,0.2s0.3,0.2,0.4,0.4
		c0.1,0.2,0.2,0.3,0.3,0.6l4.3,11h0.1l4.5-11c0.1-0.2,0.2-0.4,0.3-0.6s0.2-0.3,0.3-0.4s0.3-0.2,0.4-0.2c0.2,0,0.3-0.1,0.5-0.1h1.3
		c0.1,0,0.2,0,0.3,0.1c0.1,0,0.2,0.1,0.3,0.2s0.1,0.2,0.2,0.3c0,0.1,0.1,0.3,0.1,0.4v13.9H240.2z M256.4,130.2c0,0.1,0,0.1,0,0.2
		c0,0-0.1,0.1-0.2,0.1s-0.2,0.1-0.3,0.1s-0.3,0-0.5,0s-0.3,0-0.5,0c-0.1,0-0.2,0-0.3-0.1c-0.1,0-0.1-0.1-0.2-0.1c0,0,0-0.1,0-0.2
		v-10.6c0-0.1,0-0.1,0-0.2c0,0,0.1-0.1,0.2-0.1c0.1,0,0.2-0.1,0.3-0.1s0.3,0,0.5,0s0.4,0,0.5,0s0.2,0,0.3,0.1c0.1,0,0.1,0.1,0.2,0.1
		c0,0,0,0.1,0,0.2V130.2L256.4,130.2z M246,123.3c0.3,0,0.6,0,0.9-0.1c0.3,0,0.6,0,1,0c0.8,0,1.5,0.1,2.1,0.3
		c0.6,0.2,1.1,0.4,1.5,0.7c0.4,0.3,0.7,0.7,0.8,1.1c0.2,0.4,0.3,0.9,0.3,1.5c0,0.5-0.1,1-0.3,1.5s-0.5,0.9-0.9,1.2s-0.9,0.6-1.6,0.8
		c-0.6,0.2-1.4,0.3-2.3,0.3c-0.2,0-0.4,0-0.6,0c-0.2,0-0.4,0-0.6,0c-0.2,0-0.4,0-0.6,0c-0.2,0-0.4,0-0.6-0.1c-0.3,0-0.6-0.1-0.7-0.3
		c-0.2-0.2-0.2-0.4-0.2-0.8v-9.8c0-0.1,0-0.1,0-0.2c0,0,0.1-0.1,0.2-0.1c0.1,0,0.2-0.1,0.3-0.1s0.3,0,0.5,0c0.4,0,0.6,0,0.8,0.1
		c0.1,0.1,0.2,0.2,0.2,0.3v3.7H246z M250.5,126.9c0-0.3,0-0.6-0.1-0.9s-0.3-0.5-0.5-0.7s-0.5-0.3-0.9-0.4s-0.8-0.1-1.3-0.1
		c-0.3,0-0.6,0-0.9,0c-0.3,0-0.5,0-0.8,0.1v4.1c0.3,0,0.5,0.1,0.8,0.1s0.6,0,1,0c1,0,1.6-0.2,2.1-0.6
		C250.3,128.1,250.5,127.6,250.5,126.9L250.5,126.9z M274.4,130.2c0,0.1,0,0.1,0,0.2c0,0-0.1,0.1-0.2,0.1s-0.2,0.1-0.3,0.1
		c-0.1,0-0.3,0-0.5,0s-0.4,0-0.5,0s-0.2,0-0.3-0.1c-0.1,0-0.1-0.1-0.2-0.1c0,0,0-0.1,0-0.2v-9.3h-5v9.3c0,0.1,0,0.1,0,0.2
		c0,0-0.1,0.1-0.2,0.1s-0.2,0.1-0.3,0.1c-0.1,0-0.3,0-0.5,0s-0.3,0-0.5,0c-0.1,0-0.2,0-0.3-0.1c-0.1,0-0.1-0.1-0.2-0.1
		c0,0,0-0.1,0-0.2V120c0-0.2,0.1-0.4,0.2-0.5s0.3-0.2,0.4-0.2h7.7c0.2,0,0.3,0.1,0.4,0.2s0.2,0.3,0.2,0.5L274.4,130.2L274.4,130.2z
		 M287.7,124.7c0,0.9-0.1,1.7-0.3,2.4c-0.2,0.7-0.6,1.3-1,1.9c-0.4,0.5-1,0.9-1.7,1.2s-1.5,0.4-2.3,0.4c-0.9,0-1.6-0.1-2.3-0.4
		c-0.6-0.3-1.2-0.6-1.6-1.1s-0.7-1.1-1-1.8c-0.2-0.7-0.3-1.5-0.3-2.4s0.1-1.7,0.3-2.4c0.2-0.7,0.6-1.4,1-1.9s1-0.9,1.7-1.2
		c0.7-0.3,1.5-0.4,2.4-0.4s1.6,0.1,2.3,0.4c0.6,0.3,1.2,0.6,1.6,1.1s0.8,1.1,1,1.8C287.6,123.1,287.7,123.8,287.7,124.7L287.7,124.7
		z M285.7,124.9c0-0.6-0.1-1.1-0.2-1.6s-0.3-1-0.5-1.3c-0.2-0.4-0.6-0.7-1-0.9c-0.4-0.2-0.9-0.3-1.6-0.3c-0.6,0-1.1,0.1-1.5,0.3
		c-0.4,0.2-0.7,0.5-1,0.9s-0.5,0.8-0.6,1.3s-0.2,1.1-0.2,1.7s0.1,1.1,0.2,1.6s0.3,1,0.5,1.3c0.2,0.4,0.6,0.7,1,0.9s0.9,0.3,1.6,0.3
		c0.6,0,1.1-0.1,1.5-0.3s0.8-0.5,1-0.9c0.3-0.4,0.5-0.8,0.6-1.3C285.7,126,285.7,125.5,285.7,124.9L285.7,124.9z M299.2,130.2v0.1
		c0,0-0.1,0.1-0.2,0.1s-0.2,0-0.3,0.1c-0.1,0-0.3,0-0.5,0s-0.4,0-0.5,0s-0.2,0-0.3-0.1c-0.1,0-0.1-0.1-0.2-0.1l-0.1-0.1l-1.1-2.7
		c-0.1-0.4-0.3-0.7-0.4-0.9c-0.2-0.3-0.3-0.5-0.6-0.6c-0.2-0.2-0.4-0.3-0.7-0.3c-0.3-0.1-0.6-0.1-0.9-0.1h-0.8v4.8
		c0,0,0,0.1-0.1,0.1c0,0-0.1,0.1-0.2,0.1s-0.2,0-0.3,0.1c-0.1,0-0.3,0-0.4,0c-0.2,0-0.3,0-0.4,0s-0.2,0-0.3-0.1
		c-0.1,0-0.1-0.1-0.2-0.1l-0.1-0.1v-10.8c0,0,0-0.1,0.1-0.1c0,0,0.1-0.1,0.2-0.1s0.2,0,0.3-0.1c0.1,0,0.3,0,0.4,0c0.2,0,0.3,0,0.4,0
		s0.2,0,0.3,0.1c0.1,0,0.1,0.1,0.2,0.1l0.1,0.1v4.5h0.8c0.3,0,0.6,0,0.8-0.1c0.2-0.1,0.5-0.2,0.7-0.3c0.2-0.2,0.4-0.4,0.5-0.6
		c0.2-0.2,0.3-0.5,0.4-0.9l1-2.4c0-0.1,0-0.1,0.1-0.2c0,0,0.1-0.1,0.2-0.1s0.2-0.1,0.3-0.1c0.1,0,0.3,0,0.5,0s0.3,0,0.5,0
		c0.1,0,0.2,0,0.3,0.1c0.1,0,0.1,0.1,0.1,0.1v0.1c0,0.1,0,0.1,0,0.2s0,0.2-0.1,0.3l-1,2.3c-0.2,0.4-0.3,0.7-0.5,1s-0.4,0.5-0.6,0.7
		s-0.4,0.3-0.6,0.4s-0.4,0.2-0.6,0.2l0,0c0.3,0.1,0.5,0.2,0.8,0.3c0.2,0.1,0.4,0.3,0.6,0.5s0.4,0.4,0.6,0.7c0.2,0.3,0.3,0.6,0.5,0.9
		l1.2,2.7c0,0.1,0.1,0.1,0.1,0.2L299.2,130.2C299.2,130.1,299.2,130.1,299.2,130.2L299.2,130.2L299.2,130.2z M311.2,124.7
		c0,0.9-0.1,1.7-0.3,2.4c-0.2,0.7-0.6,1.3-1,1.9c-0.4,0.5-1,0.9-1.7,1.2s-1.5,0.4-2.3,0.4c-0.9,0-1.6-0.1-2.3-0.4
		c-0.6-0.3-1.2-0.6-1.6-1.1s-0.7-1.1-1-1.8c-0.2-0.7-0.3-1.5-0.3-2.4s0.1-1.7,0.3-2.4c0.2-0.7,0.6-1.4,1-1.9s1-0.9,1.7-1.2
		c0.7-0.3,1.5-0.4,2.4-0.4s1.6,0.1,2.3,0.4c0.6,0.3,1.2,0.6,1.6,1.1s0.8,1.1,1,1.8C311.1,123.1,311.2,123.8,311.2,124.7L311.2,124.7
		z M309.2,124.9c0-0.6-0.1-1.1-0.2-1.6s-0.3-1-0.5-1.3c-0.2-0.4-0.6-0.7-1-0.9c-0.4-0.2-0.9-0.3-1.6-0.3c-0.6,0-1.1,0.1-1.5,0.3
		c-0.4,0.2-0.7,0.5-1,0.9s-0.5,0.8-0.6,1.3s-0.2,1.1-0.2,1.7s0.1,1.1,0.2,1.6s0.3,1,0.5,1.3c0.2,0.4,0.6,0.7,1,0.9s0.9,0.3,1.6,0.3
		c0.6,0,1.1-0.1,1.5-0.3s0.8-0.5,1-0.9c0.3-0.4,0.5-0.8,0.6-1.3C309.1,126,309.2,125.5,309.2,124.9L309.2,124.9z M323.8,124.7
		c0,0.9-0.1,1.8-0.3,2.5c-0.2,0.7-0.5,1.4-0.9,1.9s-0.9,0.9-1.4,1.2c-0.6,0.3-1.2,0.4-2,0.4c-0.3,0-0.6,0-0.9-0.1s-0.5-0.2-0.8-0.3
		s-0.5-0.3-0.8-0.5s-0.5-0.4-0.8-0.7v5.3c0,0.1,0,0.1,0,0.2c0,0-0.1,0.1-0.2,0.1s-0.2,0.1-0.3,0.1c-0.1,0-0.3,0-0.5,0s-0.3,0-0.5,0
		c-0.1,0-0.2,0-0.3-0.1c-0.1,0-0.1-0.1-0.2-0.1c0,0,0-0.1,0-0.2v-14.8c0-0.1,0-0.1,0-0.2l0.1-0.1c0.1,0,0.2-0.1,0.3-0.1
		c0.1,0,0.2,0,0.4,0c0.2,0,0.3,0,0.4,0s0.2,0,0.3,0.1c0.1,0,0.1,0.1,0.1,0.1s0,0.1,0,0.2v1.4c0.3-0.3,0.6-0.6,0.9-0.9
		c0.3-0.2,0.6-0.4,0.9-0.6s0.6-0.3,0.9-0.4s0.6-0.1,1-0.1c0.8,0,1.4,0.1,2,0.4c0.5,0.3,1,0.7,1.3,1.2s0.6,1.1,0.7,1.8
		C323.7,123.2,323.8,123.9,323.8,124.7L323.8,124.7z M321.7,124.9c0-0.5,0-1.1-0.1-1.6s-0.2-1-0.4-1.4c-0.2-0.4-0.5-0.7-0.8-0.9
		c-0.3-0.2-0.8-0.4-1.3-0.4c-0.3,0-0.5,0-0.7,0.1s-0.5,0.2-0.7,0.4c-0.2,0.2-0.5,0.4-0.8,0.6c-0.3,0.3-0.6,0.6-0.9,1v4.2
		c0.5,0.7,1,1.2,1.5,1.5s1,0.5,1.5,0.5s0.9-0.1,1.2-0.4c0.3-0.2,0.6-0.6,0.8-0.9c0.2-0.4,0.4-0.8,0.5-1.3
		C321.7,125.9,321.7,125.4,321.7,124.9L321.7,124.9z M334.5,130.2c0,0.1,0,0.1,0,0.2l-0.1,0.1c-0.1,0-0.2,0-0.3,0.1
		c-0.1,0-0.3,0-0.5,0s-0.3,0-0.5,0c-0.1,0-0.2,0-0.3-0.1c-0.1,0-0.1-0.1-0.2-0.1c0,0,0-0.1,0-0.2v-4.5h-1.1c-0.5,0-0.9,0-1.1,0.1
		c-0.3,0.1-0.5,0.2-0.7,0.4c-0.2,0.2-0.4,0.4-0.6,0.7c-0.2,0.3-0.3,0.6-0.5,1.1l-0.9,2.1c0,0.1-0.1,0.2-0.1,0.2
		c0,0.1-0.1,0.1-0.2,0.1s-0.2,0.1-0.3,0.1c-0.1,0-0.3,0-0.5,0c-0.1,0-0.3,0-0.4,0s-0.2,0-0.3,0c-0.1,0-0.1-0.1-0.2-0.1
		c0,0-0.1-0.1-0.1-0.2c0-0.1,0-0.1,0.1-0.3c0-0.1,0.1-0.3,0.3-0.6l0.8-2c0.2-0.5,0.5-0.9,0.8-1.3s0.7-0.6,1.1-0.8
		c-0.8-0.1-1.4-0.4-1.8-0.9s-0.7-1.1-0.7-1.9c0-0.5,0.1-1,0.3-1.4c0.2-0.4,0.5-0.8,0.9-1c0.4-0.3,0.9-0.5,1.5-0.7s1.3-0.2,2.1-0.2
		c0.2,0,0.4,0,0.6,0s0.5,0,0.8,0s0.5,0,0.8,0.1c0.2,0,0.5,0,0.6,0.1c0.2,0,0.4,0.1,0.5,0.3c0.1,0.1,0.2,0.3,0.2,0.5L334.5,130.2
		L334.5,130.2z M332.5,120.7c-0.3,0-0.6-0.1-0.9-0.1s-0.6,0-0.8,0c-0.5,0-1,0-1.3,0.1c-0.4,0.1-0.6,0.2-0.9,0.4
		c-0.2,0.2-0.4,0.4-0.5,0.6s-0.1,0.5-0.1,0.8s0.1,0.5,0.2,0.8c0.1,0.2,0.3,0.4,0.5,0.6s0.5,0.3,0.8,0.4s0.8,0.1,1.4,0.1h1.6
		L332.5,120.7L332.5,120.7z M347,124.4c0,0.3-0.1,0.5-0.2,0.7c-0.2,0.1-0.3,0.2-0.5,0.2h-6.9c0,0.6,0.1,1.1,0.2,1.6s0.3,0.9,0.6,1.2
		c0.3,0.3,0.6,0.6,1.1,0.8c0.4,0.2,1,0.3,1.6,0.3c0.5,0,0.9,0,1.3-0.1s0.7-0.2,1-0.3s0.5-0.2,0.7-0.3s0.3-0.1,0.4-0.1s0.1,0,0.1,0
		l0.1,0.1c0,0.1,0,0.1,0.1,0.2c0,0.1,0,0.2,0,0.4c0,0.1,0,0.2,0,0.3s0,0.1,0,0.2c0,0.1,0,0.1-0.1,0.2l-0.1,0.1c0,0-0.2,0.1-0.4,0.2
		c-0.2,0.1-0.5,0.2-0.8,0.3s-0.7,0.2-1.2,0.2c-0.4,0.1-0.9,0.1-1.4,0.1c-0.9,0-1.6-0.1-2.3-0.4c-0.7-0.2-1.2-0.6-1.6-1.1
		s-0.8-1.1-1-1.8s-0.3-1.6-0.3-2.5s0.1-1.7,0.4-2.5c0.2-0.7,0.6-1.3,1-1.8s1-0.9,1.6-1.2c0.6-0.3,1.3-0.4,2.1-0.4
		c0.8,0,1.5,0.1,2.1,0.4s1.1,0.6,1.4,1.1c0.4,0.4,0.6,1,0.8,1.6c0.2,0.6,0.3,1.3,0.3,1.9v0.4H347z M345.1,123.8c0-1-0.2-1.8-0.7-2.4
		s-1.2-0.9-2.1-0.9c-0.5,0-0.9,0.1-1.3,0.3c-0.4,0.2-0.7,0.4-0.9,0.7c-0.2,0.3-0.4,0.6-0.6,1c-0.1,0.4-0.2,0.8-0.2,1.2h5.8V123.8z
		 M363.2,130.1c0,0.2,0,0.3-0.2,0.4c-0.1,0.1-0.4,0.1-0.7,0.1c-0.2,0-0.4,0-0.5,0s-0.2,0-0.3,0c-0.1,0-0.1-0.1-0.1-0.1
		s0-0.1-0.1-0.2l-0.8-6.2c0-0.2,0-0.5-0.1-0.7c0-0.2,0-0.5-0.1-0.8c0-0.3,0-0.5-0.1-0.8c0-0.3,0-0.5-0.1-0.7v-0.3
		c-0.1,0.2-0.1,0.5-0.2,0.7c-0.1,0.3-0.2,0.5-0.3,0.8c-0.1,0.3-0.2,0.5-0.3,0.8c-0.1,0.3-0.2,0.5-0.2,0.7l-2.2,6.3
		c0,0.1-0.1,0.2-0.1,0.2c0,0.1-0.1,0.1-0.2,0.2c-0.1,0-0.2,0.1-0.3,0.1c-0.1,0-0.3,0-0.4,0c-0.2,0-0.3,0-0.4,0s-0.2,0-0.3-0.1
		c-0.1,0-0.1-0.1-0.2-0.1c0-0.1-0.1-0.1-0.1-0.2l-2.1-6.3c-0.1-0.2-0.2-0.5-0.2-0.7c-0.1-0.3-0.2-0.5-0.2-0.8
		c-0.1-0.3-0.2-0.5-0.2-0.8c-0.1-0.3-0.1-0.5-0.2-0.7v0.3c0,0.2,0,0.5-0.1,0.7c0,0.3,0,0.5-0.1,0.8c0,0.3-0.1,0.5-0.1,0.8
		s0,0.5-0.1,0.7l-0.7,6.1c0,0.1,0,0.2-0.1,0.2c0,0.1-0.1,0.1-0.2,0.1s-0.2,0-0.3,0.1c-0.1,0-0.3,0-0.5,0s-0.4,0-0.5,0
		s-0.2,0-0.3-0.1c-0.1,0-0.1-0.1-0.1-0.1c0-0.1,0-0.1,0-0.2l1.2-10c0-0.2,0.1-0.4,0.3-0.6c0.1-0.1,0.3-0.2,0.6-0.2h0.9
		c0.2,0,0.4,0,0.6,0.1c0.2,0,0.3,0.1,0.4,0.2s0.2,0.2,0.3,0.3c0.1,0.1,0.2,0.3,0.2,0.5l1.6,4.5c0.1,0.3,0.2,0.6,0.3,0.8
		c0.1,0.3,0.2,0.6,0.3,0.8c0.1,0.3,0.2,0.5,0.2,0.8c0.1,0.3,0.1,0.5,0.2,0.7l0,0c0.1-0.2,0.1-0.5,0.2-0.8s0.2-0.5,0.2-0.8
		c0.1-0.3,0.2-0.6,0.3-0.8c0.1-0.3,0.2-0.5,0.3-0.8l1.6-4.5c0.1-0.2,0.1-0.4,0.2-0.5s0.2-0.3,0.3-0.4c0.1-0.1,0.2-0.2,0.4-0.2
		c0.2,0,0.3-0.1,0.6-0.1h0.9c0.3,0,0.5,0.1,0.6,0.2s0.2,0.3,0.3,0.6L363.2,130.1L363.2,130.1z M380.9,130.2c0,0.1,0,0.1,0,0.2
		c0,0-0.1,0.1-0.2,0.1s-0.2,0-0.3,0.1c-0.1,0-0.3,0-0.5,0s-0.3,0-0.5,0c-0.1,0-0.2,0-0.3-0.1c-0.1,0-0.1-0.1-0.2-0.1
		c0,0,0-0.1,0-0.2v-6.1c0-0.3,0-0.6,0-0.9s0-0.6,0.1-0.9c-0.2,0.3-0.4,0.6-0.6,0.9s-0.4,0.6-0.6,0.9l-4.5,6.1
		c-0.1,0.1-0.1,0.1-0.1,0.2c0,0-0.1,0.1-0.2,0.1s-0.2,0-0.3,0.1c-0.1,0-0.2,0-0.4,0c-0.2,0-0.3,0-0.4,0s-0.2,0-0.3-0.1
		c-0.1,0-0.1-0.1-0.1-0.1s0-0.1,0-0.2v-10.6c0-0.1,0-0.1,0-0.2c0,0,0.1-0.1,0.2-0.1s0.2-0.1,0.3-0.1c0.1,0,0.3,0,0.5,0
		c0.4,0,0.6,0,0.8,0.1c0.1,0.1,0.2,0.1,0.2,0.3v6.1c0,0.3,0,0.6,0,0.9s0,0.6-0.1,0.9c0.2-0.3,0.4-0.6,0.5-0.9
		c0.2-0.3,0.4-0.6,0.6-0.8l4.5-6.2c0-0.1,0.1-0.1,0.1-0.2c0.1,0,0.1-0.1,0.2-0.1s0.2,0,0.3-0.1c0.1,0,0.2,0,0.4,0c0.2,0,0.3,0,0.4,0
		s0.2,0,0.3,0.1c0.1,0,0.1,0.1,0.1,0.1s0,0.1,0,0.2v10.6H380.9z M393.8,130.2c0,0.1,0,0.1,0,0.2c0,0-0.1,0.1-0.2,0.1
		s-0.2,0.1-0.3,0.1c-0.1,0-0.3,0-0.5,0s-0.4,0-0.5,0s-0.2,0-0.3-0.1c-0.1,0-0.1-0.1-0.2-0.1c0,0,0-0.1,0-0.2v-4.6h-5.4v4.6
		c0,0.1,0,0.1,0,0.2c0,0-0.1,0.1-0.2,0.1s-0.2,0.1-0.3,0.1c-0.1,0-0.3,0-0.5,0s-0.3,0-0.5,0c-0.1,0-0.2,0-0.3-0.1
		c-0.1,0-0.1-0.1-0.2-0.1c0,0,0-0.1,0-0.2v-10.6c0-0.1,0-0.1,0-0.2c0,0,0.1-0.1,0.2-0.1s0.2-0.1,0.3-0.1c0.1,0,0.3,0,0.5,0
		s0.4,0,0.5,0s0.2,0,0.3,0.1c0.1,0,0.1,0.1,0.2,0.1c0,0,0,0.1,0,0.2v4.3h5.4v-4.3c0-0.1,0-0.1,0-0.2c0,0,0.1-0.1,0.2-0.1
		s0.2-0.1,0.3-0.1c0.1,0,0.3,0,0.5,0s0.3,0,0.5,0c0.1,0,0.2,0,0.3,0.1c0.1,0,0.1,0.1,0.2,0.1c0,0,0,0.1,0,0.2V130.2L393.8,130.2z"/>
	<path class="st0" d="M404.7,120.1c0,0.2,0,0.3,0,0.4s0,0.2-0.1,0.3c0,0.1-0.1,0.1-0.1,0.2c0,0-0.1,0.1-0.2,0.1h-3.2v9.1
		c0,0.1,0,0.1,0,0.2c0,0-0.1,0.1-0.2,0.1s-0.2,0.1-0.3,0.1c-0.1,0-0.3,0-0.5,0s-0.3,0-0.5,0c-0.1,0-0.2,0-0.3-0.1
		c-0.1,0-0.1-0.1-0.2-0.1c0,0,0-0.1,0-0.2V121h-3.2c-0.1,0-0.1,0-0.2-0.1c-0.1,0-0.1-0.1-0.1-0.2s-0.1-0.2-0.1-0.3
		c0-0.1,0-0.2,0-0.4c0-0.1,0-0.3,0-0.4s0-0.2,0.1-0.3c0-0.1,0.1-0.1,0.1-0.2c0,0,0.1-0.1,0.2-0.1h8.3c0.1,0,0.1,0,0.2,0.1
		c0.1,0,0.1,0.1,0.1,0.2s0.1,0.2,0.1,0.3C404.7,119.9,404.7,120,404.7,120.1L404.7,120.1z M415.4,124.4c0,0.3-0.1,0.5-0.2,0.7
		c-0.2,0.1-0.3,0.2-0.5,0.2h-6.9c0,0.6,0.1,1.1,0.2,1.6s0.3,0.9,0.6,1.2c0.3,0.3,0.6,0.6,1.1,0.8c0.4,0.2,1,0.3,1.6,0.3
		c0.5,0,0.9,0,1.3-0.1s0.7-0.2,1-0.3s0.5-0.2,0.7-0.3s0.3-0.1,0.4-0.1s0.1,0,0.1,0l0.1,0.1c0,0.1,0,0.1,0.1,0.2c0,0.1,0,0.2,0,0.4
		c0,0.1,0,0.2,0,0.3s0,0.1,0,0.2c0,0.1,0,0.1-0.1,0.2l-0.1,0.1c0,0-0.2,0.1-0.4,0.2c-0.2,0.1-0.5,0.2-0.8,0.3s-0.7,0.2-1.2,0.2
		c-0.4,0.1-0.9,0.1-1.4,0.1c-0.9,0-1.6-0.1-2.3-0.4c-0.7-0.2-1.2-0.6-1.6-1.1s-0.8-1.1-1-1.8s-0.3-1.6-0.3-2.5s0.1-1.7,0.4-2.5
		c0.2-0.7,0.6-1.3,1-1.8s1-0.9,1.6-1.2c0.6-0.3,1.3-0.4,2.1-0.4c0.8,0,1.5,0.1,2.1,0.4s1.1,0.6,1.4,1.1c0.4,0.4,0.6,1,0.8,1.6
		c0.2,0.6,0.3,1.3,0.3,1.9v0.4H415.4z M413.5,123.8c0-1-0.2-1.8-0.7-2.4s-1.2-0.9-2.1-0.9c-0.5,0-0.9,0.1-1.3,0.3
		c-0.4,0.2-0.7,0.4-0.9,0.7c-0.2,0.3-0.4,0.6-0.6,1c-0.1,0.4-0.2,0.8-0.2,1.2h5.8V123.8z M428.1,124.7c0,0.9-0.1,1.8-0.3,2.5
		c-0.2,0.7-0.5,1.4-0.9,1.9s-0.9,0.9-1.4,1.2c-0.6,0.3-1.2,0.4-2,0.4c-0.3,0-0.6,0-0.9-0.1s-0.5-0.2-0.8-0.3s-0.5-0.3-0.8-0.5
		s-0.5-0.4-0.8-0.7v5.3c0,0.1,0,0.1,0,0.2c0,0-0.1,0.1-0.2,0.1s-0.2,0.1-0.3,0.1c-0.1,0-0.3,0-0.5,0s-0.3,0-0.5,0
		c-0.1,0-0.2,0-0.3-0.1c-0.1,0-0.1-0.1-0.2-0.1c0,0,0-0.1,0-0.2v-14.8c0-0.1,0-0.1,0-0.2l0.1-0.1c0.1,0,0.2-0.1,0.3-0.1
		c0.1,0,0.2,0,0.4,0c0.2,0,0.3,0,0.4,0s0.2,0,0.3,0.1c0.1,0,0.1,0.1,0.1,0.1s0,0.1,0,0.2v1.4c0.3-0.3,0.6-0.6,0.9-0.9
		c0.3-0.2,0.6-0.4,0.9-0.6s0.6-0.3,0.9-0.4s0.6-0.1,1-0.1c0.8,0,1.4,0.1,2,0.4c0.5,0.3,1,0.7,1.3,1.2s0.6,1.1,0.7,1.8
		C428,123.2,428.1,123.9,428.1,124.7L428.1,124.7z M426.1,124.9c0-0.5,0-1.1-0.1-1.6s-0.2-1-0.4-1.4c-0.2-0.4-0.5-0.7-0.8-0.9
		c-0.3-0.2-0.8-0.4-1.3-0.4c-0.3,0-0.5,0-0.7,0.1s-0.5,0.2-0.7,0.4c-0.2,0.2-0.5,0.4-0.8,0.6c-0.3,0.3-0.6,0.6-0.9,1v4.2
		c0.5,0.7,1,1.2,1.5,1.5s1,0.5,1.5,0.5s0.9-0.1,1.2-0.4c0.3-0.2,0.6-0.6,0.8-0.9c0.2-0.4,0.4-0.8,0.5-1.3
		C426,125.9,426.1,125.4,426.1,124.9L426.1,124.9z M440.2,130.2c0,0.1,0,0.1,0,0.2c0,0-0.1,0.1-0.2,0.1s-0.2,0.1-0.3,0.1
		c-0.1,0-0.3,0-0.5,0s-0.4,0-0.5,0s-0.2,0-0.3-0.1c-0.1,0-0.1-0.1-0.2-0.1c0,0,0-0.1,0-0.2v-4.6h-5.4v4.6c0,0.1,0,0.1,0,0.2
		c0,0-0.1,0.1-0.2,0.1s-0.2,0.1-0.3,0.1c-0.1,0-0.3,0-0.5,0s-0.3,0-0.5,0c-0.1,0-0.2,0-0.3-0.1c-0.1,0-0.1-0.1-0.2-0.1
		c0,0,0-0.1,0-0.2v-10.6c0-0.1,0-0.1,0-0.2c0,0,0.1-0.1,0.2-0.1s0.2-0.1,0.3-0.1c0.1,0,0.3,0,0.5,0s0.4,0,0.5,0s0.2,0,0.3,0.1
		c0.1,0,0.1,0.1,0.2,0.1c0,0,0,0.1,0,0.2v4.3h5.4v-4.3c0-0.1,0-0.1,0-0.2c0,0,0.1-0.1,0.2-0.1s0.2-0.1,0.3-0.1c0.1,0,0.3,0,0.5,0
		s0.3,0,0.5,0c0.1,0,0.2,0,0.3,0.1c0.1,0,0.1,0.1,0.2,0.1c0,0,0,0.1,0,0.2V130.2L440.2,130.2z M452.8,124.4c0,0.3-0.1,0.5-0.2,0.7
		c-0.2,0.1-0.3,0.2-0.5,0.2h-6.9c0,0.6,0.1,1.1,0.2,1.6s0.3,0.9,0.6,1.2c0.3,0.3,0.6,0.6,1.1,0.8c0.4,0.2,1,0.3,1.6,0.3
		c0.5,0,0.9,0,1.3-0.1s0.7-0.2,1-0.3s0.5-0.2,0.7-0.3s0.3-0.1,0.4-0.1s0.1,0,0.1,0l0.1,0.1c0,0.1,0,0.1,0.1,0.2c0,0.1,0,0.2,0,0.4
		c0,0.1,0,0.2,0,0.3s0,0.1,0,0.2c0,0.1,0,0.1-0.1,0.2l-0.1,0.1c0,0-0.2,0.1-0.4,0.2c-0.2,0.1-0.5,0.2-0.8,0.3s-0.7,0.2-1.2,0.2
		c-0.4,0.1-0.9,0.1-1.4,0.1c-0.9,0-1.6-0.1-2.3-0.4c-0.7-0.2-1.2-0.6-1.6-1.1s-0.8-1.1-1-1.8s-0.3-1.6-0.3-2.5s0.1-1.7,0.4-2.5
		c0.2-0.7,0.6-1.3,1-1.8s1-0.9,1.6-1.2c0.6-0.3,1.3-0.4,2.1-0.4c0.8,0,1.5,0.1,2.1,0.4s1.1,0.6,1.4,1.1c0.4,0.4,0.6,1,0.8,1.6
		c0.2,0.6,0.3,1.3,0.3,1.9v0.4H452.8z M450.9,123.8c0-1-0.2-1.8-0.7-2.4s-1.2-0.9-2.1-0.9c-0.5,0-0.9,0.1-1.3,0.3
		c-0.4,0.2-0.7,0.4-0.9,0.7c-0.2,0.3-0.4,0.6-0.6,1c-0.1,0.4-0.2,0.8-0.2,1.2h5.8V123.8z M463.1,120.1c0,0.2,0,0.3,0,0.4
		s0,0.2-0.1,0.3c0,0.1-0.1,0.1-0.1,0.2c0,0-0.1,0.1-0.2,0.1h-3.2v9.1c0,0.1,0,0.1,0,0.2c0,0-0.1,0.1-0.2,0.1s-0.2,0.1-0.3,0.1
		c-0.1,0-0.3,0-0.5,0s-0.3,0-0.5,0c-0.1,0-0.2,0-0.3-0.1c-0.1,0-0.1-0.1-0.2-0.1c0,0,0-0.1,0-0.2V121h-3.2c-0.1,0-0.1,0-0.2-0.1
		c-0.1,0-0.1-0.1-0.1-0.2s-0.1-0.2-0.1-0.3c0-0.1,0-0.2,0-0.4c0-0.1,0-0.3,0-0.4s0-0.2,0.1-0.3c0-0.1,0.1-0.1,0.1-0.2
		c0,0,0.1-0.1,0.2-0.1h8.3c0.1,0,0.1,0,0.2,0.1c0.1,0,0.1,0.1,0.1,0.2s0.1,0.2,0.1,0.3C463.1,119.9,463.1,120,463.1,120.1
		L463.1,120.1z"/>
	<path class="st1" d="M242.6,28.7h-14.8v27.5H224V25h18.6V28.7L242.6,28.7z M266.8,56.2h-19V25h19v3.7h-15.1v8.5h9.8v3.7h-9.8v11.6
		h15.1L266.8,56.2L266.8,56.2z M296.3,56.2h-3.8V40.9h-14.3v15.3h-3.8V25h3.8v12.2h14.3V25h3.8V56.2L296.3,56.2z M324.4,56.2h-19V25
		h19v3.7h-15.1v8.5h9.8v3.7h-9.8v11.6h15.1V56.2L324.4,56.2z M350.8,34.4c0,1.4-0.2,2.7-0.7,3.8c-0.4,1.2-1.1,2.2-1.9,3.1
		c-1,1.1-2.2,1.9-3.5,2.4s-3.1,0.8-5.1,0.8h-3.8v11.6H332V25h7.8c1.7,0,3.2,0.2,4.4,0.5c1.2,0.3,2.3,0.8,3.2,1.5
		c1.1,0.8,1.9,1.8,2.5,3C350.5,31.1,350.8,32.6,350.8,34.4L350.8,34.4z M346.8,34.5c0-1.1-0.2-2-0.5-2.8s-0.9-1.4-1.6-1.9
		c-0.6-0.4-1.3-0.7-2.1-0.9c-0.8-0.2-1.8-0.3-3-0.3h-3.8V41h3.2c1.5,0,2.8-0.2,3.8-0.4c1-0.3,1.8-0.8,2.4-1.4c0.6-0.7,1-1.4,1.3-2.1
		C346.7,36.3,346.8,35.4,346.8,34.5L346.8,34.5z M380,56.2h-4.1l-2.8-8.7h-12.5l-2.8,8.7h-3.9L364.4,25h5.1L380,56.2L380,56.2z
		 M371.9,43.9l-5-15.3l-5.1,15.3H371.9L371.9,43.9z M406.4,28.7h-10.3v27.5h-3.8V28.7H382V25h24.5v3.7H406.4z M433.1,28.6
		c1.2,1.4,2.1,3.1,2.7,5.1s0.9,4.3,0.9,6.9c0,2.6-0.3,4.9-1,6.9c-0.6,2-1.5,3.7-2.7,5.1c-1.2,1.4-2.6,2.5-4.2,3.2s-3.5,1.1-5.5,1.1
		s-3.9-0.4-5.5-1.1c-1.7-0.7-3.1-1.8-4.2-3.2c-1.2-1.4-2.1-3.1-2.7-5.1s-0.9-4.3-0.9-6.9c0-2.5,0.3-4.8,0.9-6.8s1.5-3.7,2.7-5.2
		c1.1-1.4,2.5-2.4,4.2-3.1s3.5-1.1,5.5-1.1c2.1,0,3.9,0.4,5.6,1.1C430.5,26.2,431.9,27.2,433.1,28.6L433.1,28.6z M432.7,40.6
		c0-4-0.8-7.1-2.5-9.3s-4-3.3-6.9-3.3s-5.2,1.1-6.9,3.3c-1.7,2.2-2.5,5.3-2.5,9.3c0,4.1,0.9,7.2,2.6,9.4s4,3.2,6.8,3.2
		c2.9,0,5.1-1.1,6.8-3.2C431.9,47.8,432.7,44.7,432.7,40.6L432.7,40.6z M463.1,34.4c0,1.4-0.2,2.7-0.7,3.8c-0.4,1.2-1.1,2.2-1.9,3.1
		c-1,1.1-2.2,1.9-3.5,2.4s-3.1,0.8-5.1,0.8h-3.8v11.6h-3.8V25h7.8c1.7,0,3.2,0.2,4.4,0.5c1.2,0.3,2.3,0.8,3.2,1.5
		c1.1,0.8,1.9,1.8,2.5,3C462.8,31.1,463.1,32.6,463.1,34.4L463.1,34.4z M459.1,34.5c0-1.1-0.2-2-0.5-2.8s-0.9-1.4-1.6-1.9
		c-0.6-0.4-1.3-0.7-2.1-0.9c-0.8-0.2-1.8-0.3-3-0.3h-3.8V41h3.2c1.5,0,2.8-0.2,3.8-0.4c1-0.3,1.8-0.8,2.4-1.4c0.6-0.7,1-1.4,1.3-2.1
		C458.9,36.3,459.1,35.4,459.1,34.5L459.1,34.5z"/>
	<path class="st1" d="M242.6,29h-14.4v27.1v0.3h-0.3H224h-0.3v-0.3V25v-0.3h0.3h18.6h0.3V25v3.7V29H242.6L242.6,29z M227.8,28.4
		h14.4v-3h-17.9v30.5h3.2V28.7v-0.3L227.8,28.4L227.8,28.4z M266.8,56.5h-19h-0.3v-0.3V25v-0.3h0.3h19h0.3V25v3.7V29h-0.3H252v7.8
		h9.5h0.3v0.3v3.7v0.3h-0.3H252V52h14.8h0.3v0.3V56v0.3h-0.3V56.5z M248.2,55.8h18.3v-3h-14.8h-0.3v-0.3V40.9v-0.3h0.3h9.5v-3h-9.5
		h-0.3v-0.3v-8.5v-0.3h0.3h14.8v-3h-18.3V55.8L248.2,55.8z M296.3,56.5h-3.8h-0.3v-0.3V41.3h-13.6v14.9v0.3h-0.3h-3.8H274v-0.3V25
		v-0.3h0.3h3.8h0.3V25v11.9H292V25v-0.3h0.3h3.8h0.3V25v31.1v0.3h-0.1V56.5z M292.8,55.8h3.2V25.4h-3.2v11.9v0.3h-0.3h-14.3h-0.3
		v-0.3V25.4h-3.2v30.5h3.2v-15v-0.3h0.3h14.3h0.3v0.3V55.8L292.8,55.8z M324.4,56.5h-19h-0.3v-0.3V25v-0.3h0.3h19h0.3V25v3.7V29
		h-0.3h-14.8v7.8h9.5h0.3v0.3v3.7v0.3h-0.3h-9.5V52h14.8h0.3v0.3V56v0.3h-0.3V56.5z M305.8,55.8h18.3v-3h-14.8H309v-0.3V40.9v-0.3
		h0.3h9.5v-3h-9.5H309v-0.3v-8.5v-0.3h0.3h14.8v-3h-18.3V55.8L305.8,55.8z M351.1,34.4c0,0.7-0.1,1.4-0.2,2.1
		c-0.1,0.7-0.3,1.3-0.5,1.9c-0.2,0.6-0.5,1.2-0.8,1.7s-0.7,1-1.1,1.5c-0.5,0.6-1.1,1-1.7,1.5l0,0c-0.6,0.4-1.3,0.8-2,1
		c-0.7,0.3-1.5,0.5-2.4,0.6s-1.8,0.2-2.9,0.2H336v11.3v0.3h-0.3H332h-0.3v-0.3V25v-0.3h0.3h7.8c0.9,0,1.7,0,2.4,0.1
		c0.8,0.1,1.4,0.2,2,0.4c0.6,0.2,1.2,0.4,1.8,0.6c0.6,0.3,1.1,0.6,1.6,0.9l0,0c0.6,0.4,1.1,0.9,1.5,1.4s0.8,1.1,1.1,1.7
		c0.3,0.6,0.6,1.3,0.7,2.1l0,0C351.1,32.6,351.1,33.5,351.1,34.4L351.1,34.4z M350.3,36.4c0.1-0.6,0.2-1.3,0.2-1.9
		c0-0.9-0.1-1.7-0.2-2.4s-0.4-1.4-0.6-1.9c-0.3-0.6-0.6-1.1-1-1.6s-0.9-0.9-1.4-1.3c-0.4-0.3-0.9-0.6-1.4-0.8
		c-0.5-0.2-1.1-0.4-1.6-0.6l0,0c-0.6-0.2-1.2-0.3-1.9-0.3c-0.7-0.1-1.5-0.1-2.4-0.1h-7.5V56h3.2V44.6v-0.3h0.3h3.8
		c1,0,1.9-0.1,2.8-0.2c0.8-0.1,1.6-0.3,2.2-0.6c0.7-0.3,1.3-0.6,1.8-1c0.6-0.4,1.1-0.8,1.6-1.4c0.4-0.4,0.7-0.9,1-1.4s0.6-1,0.8-1.6
		C350,37.6,350.2,37,350.3,36.4L350.3,36.4L350.3,36.4z M346.5,34.5c0-0.5,0-1-0.1-1.4s-0.2-0.8-0.4-1.2l0,0c-0.2-0.4-0.4-0.7-0.6-1
		s-0.5-0.6-0.9-0.8c-0.3-0.2-0.6-0.4-0.9-0.5s-0.7-0.3-1.1-0.3c-0.8-0.2-1.7-0.3-2.9-0.3h-3.4v11.7h2.9c0.8,0,1.4,0,2-0.1
		s1.1-0.2,1.6-0.3l0,0c0.5-0.1,0.9-0.3,1.2-0.5c0.4-0.2,0.7-0.5,1-0.8l0,0c0.3-0.3,0.5-0.6,0.7-1l0,0c0.2-0.3,0.4-0.7,0.5-1l0,0
		c0.1-0.3,0.2-0.7,0.3-1.1l0,0C346.4,35.4,346.5,35,346.5,34.5L346.5,34.5z M347,33c0.1,0.5,0.1,1,0.1,1.6c0,0.5,0,0.9-0.1,1.4
		c-0.1,0.4-0.2,0.8-0.3,1.2l0,0c-0.1,0.4-0.3,0.8-0.5,1.1l0,0c-0.2,0.4-0.5,0.7-0.8,1.1l0,0c-0.3,0.4-0.7,0.7-1.1,0.9
		s-0.9,0.5-1.4,0.6l0,0c-0.5,0.2-1.1,0.3-1.7,0.3l0,0c-0.6,0.1-1.4,0.1-2.1,0.1h-3.2h-0.3V41V28.6v-0.3h0.3h3.8
		c1.2,0,2.3,0.1,3.1,0.3c0.4,0.1,0.8,0.2,1.2,0.4c0.4,0.2,0.7,0.4,1,0.6l0,0c0.4,0.3,0.7,0.6,1,0.9l0,0c0.3,0.3,0.5,0.7,0.7,1.2l0,0
		C346.8,32,346.9,32.5,347,33L347,33z M380,56.5h-4.1h-0.2l-0.1-0.2l-2.7-8.4h-12l-2.7,8.4l-0.1,0.2h-0.2H354h-0.5l0.2-0.4L364.2,25
		l0.1-0.2h0.2h5.1h0.2l0.1,0.2l10.5,31.1l0.2,0.4L380,56.5L380,56.5z M376.2,55.8h3.4l-10.3-30.5h-4.6l-10.3,30.5h3.2l2.7-8.4
		l0.1-0.2h0.2h12.5h0.2l0.1,0.2L376.2,55.8L376.2,55.8z M371.4,43.6l-4.6-13.8l-4.6,13.8H371.4L371.4,43.6z M367.2,28.5l5,15.3
		l0.1,0.4h-0.5h-10.1h-0.5l0.1-0.4l5.1-15.3l0.3-1L367.2,28.5L367.2,28.5z M406.4,29h-10v27.1v0.3h-0.3h-3.8H392v-0.3V29h-10h-0.3
		v-0.3V25v-0.3h0.3h24.5h0.3V25v3.7V29H406.4L406.4,29z M396.1,28.4h10v-3h-23.8v3h10h0.3v0.3v27.1h3.2V28.7v-0.3L396.1,28.4
		L396.1,28.4z M433.3,28.4c0.6,0.7,1.1,1.5,1.6,2.4s0.8,1.8,1.2,2.9c0.3,1,0.6,2.1,0.7,3.3c0.2,1.2,0.2,2.4,0.2,3.7
		s-0.1,2.5-0.2,3.7c-0.2,1.2-0.4,2.3-0.7,3.3l0,0c-0.3,1-0.7,2-1.2,2.8c-0.5,0.9-1,1.6-1.6,2.3l0,0c-0.6,0.7-1.3,1.4-2,1.9
		s-1.5,1-2.3,1.4l0,0c-0.8,0.4-1.7,0.6-2.7,0.8c-0.9,0.2-1.9,0.3-3,0.3c-1,0-2-0.1-3-0.3c-0.9-0.2-1.8-0.5-2.7-0.8l0,0
		c-0.9-0.4-1.6-0.8-2.4-1.4l0,0c-0.7-0.5-1.4-1.2-2-1.9s-1.1-1.5-1.6-2.4s-0.8-1.8-1.2-2.8c-0.3-1-0.6-2.1-0.7-3.3
		c-0.2-1.2-0.2-2.4-0.2-3.7c0-2.6,0.3-4.9,0.9-6.9l0,0c0.3-1,0.7-2,1.2-2.9s1-1.7,1.6-2.4l0,0c0.6-0.7,1.2-1.3,2-1.9l0,0
		c0.7-0.5,1.5-1,2.4-1.4l0,0c0.9-0.4,1.8-0.7,2.7-0.8c0.9-0.2,1.9-0.3,2.9-0.3c1.1,0,2.1,0.1,3,0.3c0.9,0.2,1.8,0.5,2.7,0.8
		c0.8,0.4,1.6,0.8,2.4,1.4l0,0C432.1,27.1,432.8,27.7,433.3,28.4L433.3,28.4L433.3,28.4z M434.3,31.1c-0.4-0.8-0.9-1.6-1.5-2.3
		c-0.6-0.7-1.2-1.2-1.9-1.7l0,0c-0.7-0.5-1.4-0.9-2.2-1.3l0,0c-0.8-0.4-1.6-0.6-2.5-0.8c-0.9-0.2-1.9-0.3-2.9-0.3s-1.9,0.1-2.8,0.3
		c-0.9,0.2-1.8,0.4-2.6,0.8l0,0c-0.8,0.4-1.6,0.8-2.3,1.3l0,0c-0.7,0.5-1.3,1.1-1.8,1.7l0,0c-0.6,0.7-1.1,1.5-1.5,2.3
		s-0.8,1.8-1.1,2.7l0,0c-0.6,2-0.9,4.2-0.9,6.7c0,1.3,0.1,2.5,0.2,3.6c0.2,1.1,0.4,2.2,0.7,3.2c0.3,1,0.7,1.9,1.1,2.7
		s0.9,1.6,1.5,2.2c0.6,0.7,1.2,1.3,1.9,1.8l0,0c0.7,0.5,1.4,0.9,2.2,1.3c0.8,0.3,1.7,0.6,2.6,0.8s1.8,0.3,2.8,0.3s2-0.1,2.9-0.3
		s1.7-0.4,2.5-0.8c0.8-0.3,1.5-0.8,2.2-1.3s1.3-1.1,1.9-1.8l0,0c0.6-0.7,1-1.4,1.5-2.2c0.4-0.8,0.8-1.7,1.1-2.7l0,0
		c0.3-1,0.6-2.1,0.7-3.2c0.2-1.1,0.2-2.3,0.2-3.6s-0.1-2.5-0.2-3.6c-0.2-1.1-0.4-2.2-0.7-3.2l0,0C435.1,32.8,434.8,31.9,434.3,31.1
		L434.3,31.1z M432.4,40.6c0-2-0.2-3.7-0.6-5.3c-0.4-1.5-1-2.8-1.8-3.9s-1.8-1.8-2.8-2.4c-1.1-0.5-2.3-0.8-3.7-0.8
		c-1.4,0-2.7,0.3-3.8,0.8c-1.1,0.5-2,1.3-2.8,2.4l0,0c-0.8,1.1-1.4,2.3-1.8,3.9c-0.4,1.5-0.6,3.3-0.6,5.3s0.2,3.8,0.6,5.3
		s1,2.8,1.9,3.8l0,0c0.8,1,1.8,1.8,2.9,2.3s2.3,0.8,3.7,0.8c1.4,0,2.6-0.3,3.7-0.8l0,0c1.1-0.5,2-1.3,2.9-2.3c0.8-1,1.4-2.3,1.8-3.8
		C432.2,44.4,432.4,42.6,432.4,40.6L432.4,40.6z M432.4,35.1c0.4,1.6,0.6,3.4,0.6,5.4c0,2.1-0.2,3.9-0.6,5.5s-1.1,3-2,4.1l0,0
		c-0.9,1.1-1.9,2-3.1,2.5l0,0c-1.2,0.6-2.5,0.8-4,0.8s-2.8-0.3-4-0.8c-1.2-0.6-2.2-1.4-3.1-2.5s-1.5-2.5-2-4.1
		c-0.4-1.6-0.6-3.4-0.6-5.5c0-2,0.2-3.9,0.6-5.4c0.4-1.6,1.1-3,1.9-4.1l0,0c0.9-1.1,1.9-2,3.1-2.6s2.5-0.9,4.1-0.9
		c1.5,0,2.8,0.3,4,0.9s2.2,1.4,3.1,2.6C431.3,32.2,432,33.5,432.4,35.1L432.4,35.1z M463.4,34.4c0,0.7-0.1,1.4-0.2,2.1l0,0
		c-0.1,0.7-0.3,1.3-0.5,1.9c-0.2,0.6-0.5,1.2-0.8,1.7s-0.7,1-1.1,1.5c-0.5,0.6-1.1,1-1.7,1.5c-0.6,0.4-1.3,0.8-2,1
		c-0.7,0.3-1.5,0.5-2.4,0.6s-1.8,0.2-2.9,0.2h-3.5v11.3v0.3H448h-3.8h-0.3v-0.3V25v-0.3h0.3h7.8c0.9,0,1.7,0,2.4,0.1
		c0.8,0.1,1.4,0.2,2,0.4c0.6,0.2,1.2,0.4,1.8,0.6c0.6,0.3,1.1,0.6,1.6,0.9l0,0c0.6,0.4,1.1,0.9,1.5,1.4s0.8,1.1,1.1,1.7
		c0.3,0.6,0.6,1.3,0.7,2.1l0,0C463.3,32.6,463.4,33.5,463.4,34.4L463.4,34.4z M462.6,36.4c0.1-0.6,0.2-1.3,0.2-1.9
		c0-0.9-0.1-1.7-0.2-2.4s-0.4-1.4-0.6-1.9c-0.3-0.6-0.6-1.1-1-1.6s-0.9-0.9-1.4-1.3c-0.4-0.3-0.9-0.6-1.4-0.8
		c-0.5-0.2-1.1-0.4-1.6-0.6l0,0c-0.6-0.2-1.2-0.3-1.9-0.3c-0.7-0.1-1.5-0.1-2.4-0.1h-7.5V56h3.2V44.6v-0.3h0.3h3.8
		c1,0,1.9-0.1,2.8-0.2c0.8-0.1,1.6-0.3,2.2-0.6c0.7-0.3,1.3-0.6,1.8-1l0,0c0.6-0.4,1.1-0.8,1.6-1.4c0.4-0.4,0.7-0.9,1-1.4
		s0.6-1,0.8-1.6C462.3,37.6,462.5,37,462.6,36.4L462.6,36.4z M458.7,34.5c0-0.5,0-1-0.1-1.4s-0.2-0.8-0.4-1.2l0,0
		c-0.2-0.4-0.4-0.7-0.6-1s-0.5-0.6-0.9-0.8c-0.3-0.2-0.6-0.4-0.9-0.5s-0.7-0.3-1.1-0.3C454,29,453,29,451.9,29h-3.4v11.7h2.9
		c0.8,0,1.4,0,2-0.1s1.1-0.2,1.6-0.3l0,0c0.5-0.1,0.9-0.3,1.2-0.5c0.4-0.2,0.7-0.5,1-0.8l0,0c0.3-0.3,0.5-0.6,0.7-1l0,0
		c0.2-0.3,0.4-0.7,0.5-1l0,0c0.1-0.3,0.2-0.7,0.3-1.1C458.7,35.4,458.7,35,458.7,34.5L458.7,34.5z M459.3,33c0.1,0.5,0.1,1,0.1,1.6
		c0,0.5,0,0.9-0.1,1.4c-0.1,0.4-0.2,0.8-0.3,1.2l0,0c-0.1,0.4-0.3,0.8-0.5,1.1l0,0c-0.2,0.4-0.5,0.7-0.8,1.1l0,0
		c-0.3,0.4-0.7,0.7-1.1,0.9s-0.9,0.5-1.4,0.6l0,0c-0.5,0.2-1.1,0.3-1.7,0.3l0,0c-0.6,0.1-1.4,0.1-2.1,0.1h-3.2h-0.3V41V28.6v-0.3
		h0.3h3.8c1.2,0,2.3,0.1,3.1,0.3c0.4,0.1,0.8,0.2,1.2,0.4c0.4,0.2,0.7,0.4,1,0.6l0,0c0.4,0.3,0.7,0.6,1,0.9l0,0
		c0.3,0.3,0.5,0.7,0.7,1.2l0,0C459,32,459.2,32.5,459.3,33L459.3,33z"/>
	<path class="st1" d="M253.5,102.5h-8.6V75.7h-12.6v26.8h-8.6V69.2h29.8L253.5,102.5L253.5,102.5z M291.1,79.7
		c0,1.5-0.3,2.9-0.8,4.4c-0.5,1.4-1.3,2.6-2.2,3.6c-1.3,1.3-2.8,2.3-4.4,3s-3.7,1-6.1,1h-5.3v10.8h-8.6V69.2h14.1
		c2.1,0,3.9,0.2,5.4,0.5c1.4,0.4,2.7,0.9,3.9,1.6c1.3,0.9,2.4,2,3.1,3.4C290.8,76.2,291.1,77.8,291.1,79.7L291.1,79.7z M282.2,79.9
		c0-0.9-0.3-1.7-0.8-2.4c-0.5-0.7-1.1-1.1-1.7-1.4c-0.9-0.4-1.8-0.6-2.6-0.6c-0.8,0-2-0.1-3.4-0.1h-1.5v9.9h2.4
		c1.4,0,2.6-0.1,3.6-0.3c0.9-0.2,1.7-0.5,2.4-1.1c0.5-0.5,0.9-1,1.2-1.7C282.1,81.7,282.2,80.9,282.2,79.9L282.2,79.9z M331.2,85.9
		c0,5.3-1.5,9.5-4.6,12.6c-3,3.1-7.2,4.7-12.6,4.7s-9.6-1.6-12.6-4.7s-4.6-7.3-4.6-12.6c0-5.3,1.5-9.6,4.6-12.7
		c3-3.1,7.2-4.7,12.6-4.7c5.3,0,9.5,1.6,12.6,4.7C329.6,76.3,331.2,80.5,331.2,85.9L331.2,85.9z M319.8,94.3c0.8-1,1.5-2.2,1.9-3.6
		s0.6-3,0.6-4.9c0-2-0.2-3.7-0.7-5.1s-1.1-2.5-1.8-3.4c-0.8-0.9-1.6-1.5-2.6-1.9s-2-0.6-3.1-0.6S312,75,311,75.4s-1.8,1-2.7,1.9
		c-0.7,0.8-1.4,2-1.8,3.5c-0.5,1.5-0.7,3.2-0.7,5.1c0,2,0.2,3.7,0.7,5.1s1.1,2.5,1.8,3.4c0.7,0.9,1.6,1.5,2.6,1.9s2.1,0.6,3.2,0.6
		s2.2-0.2,3.2-0.6C318.2,95.8,319,95.2,319.8,94.3L319.8,94.3z M372,110.1h-7.9v-7.7h-20.2v7.7H336V96h2.5c1.7-3.6,3-7.7,3.9-12.2
		s1.4-9.4,1.4-14.6h24.8V96h3.3v14.1H372z M360.1,96V75.7h-8.3c-0.3,4-0.9,7.8-1.8,11.2c-0.9,3.4-2,6.5-3.2,9.1L360.1,96L360.1,96z
		 M410.2,102.5h-8.9l-2.3-6.7h-12.2l-2.3,6.7h-8.7L388,69.2h9.9L410.2,102.5L410.2,102.5z M396.9,89.7l-4.1-11.8l-4.1,11.8H396.9
		L396.9,89.7z M463.1,102.5h-10.3l-8.5-13.6h-2.1v13.6h-8.6V88.9h-2.1l-8.5,13.6h-10.3l11.2-17c-0.5-0.3-1-0.8-1.4-1.5
		c-0.5-0.7-1-1.7-1.5-3.2c-0.3-0.7-0.5-1.2-0.8-1.8c-0.3-0.5-0.6-1-1-1.3c-0.4-0.4-0.8-0.7-1.3-0.8c-0.5-0.2-1-0.3-1.6-0.3h-2v-7.3
		c0.3,0,0.8,0,1.4,0s1.3,0,2.1,0c2.3,0,4.1,0.4,5.5,1.3c1.3,0.9,2.4,2.3,3.4,4.3c0.2,0.4,0.5,1.1,0.8,1.9s0.6,1.4,0.9,2
		c0.9,1.7,1.6,2.9,2.4,3.5c0.7,0.6,1.7,0.9,2.9,0.9v-14h8.6V83c1.3,0,2.2-0.3,2.9-0.9c0.7-0.6,1.5-1.8,2.3-3.6
		c0.3-0.6,0.5-1.2,0.9-2c0.3-0.7,0.6-1.3,0.8-1.9c0.9-1.9,2-3.3,3.3-4.2c1.3-0.9,3.1-1.3,5.4-1.3c0.8,0,1.5,0,2.1,0s1.1,0,1.4,0v7.2
		h-2c-0.7,0-1.2,0.1-1.6,0.2c-0.4,0.2-0.8,0.4-1.1,0.7c-0.3,0.3-0.7,0.8-0.9,1.4c-0.3,0.6-0.6,1.2-0.9,1.9c-0.6,1.4-1.2,2.5-1.6,3.2
		s-0.9,1.2-1.5,1.5L463.1,102.5L463.1,102.5z"/>
</g>
</svg>
