<?xml version="1.0" encoding="utf-8"?>
<!-- Generator: Adobe Illustrator 19.2.0, SVG Export Plug-In . SVG Version: 6.00 Build 0)  -->
<svg version="1.1" id="Layer_1" xmlns="http://www.w3.org/2000/svg" xmlns:xlink="http://www.w3.org/1999/xlink" x="0px" y="0px"
	 viewBox="0 0 64 64" style="enable-background:new 0 0 64 64;" xml:space="preserve">
<style type="text/css">
	.st0{display:none;fill:#FFFFFF;}
	.st1{fill:#60B4D5;}
	.st2{display:none;fill:#FDFEFF;}
</style>
<g>
	<path class="st0" d="M64,32.1c0,10.5,0,20.9,0,31.4c0,0.4-0.1,0.5-0.5,0.5c-21,0-42,0-63,0C0,64,0,63.8,0,63.4c0-21,0-41.9,0-62.9
		C0,0.1,0.1,0,0.5,0c21,0,41.9,0,62.9,0C63.9,0,64,0.1,64,0.6C64,11.1,64,21.6,64,32.1z M26.8,2.1c-1.1,0-2.3,0.1-3.6,0.3
		c-5.9,1-10.8,3.7-14.6,8.2C4.1,15.9,2.3,22.1,3.1,29c0.6,4.9,2.5,9.2,5.9,12.8c5.5,6,12.3,8.6,20.4,7.9c3.5-0.3,6.8-1.4,9.9-3.2
		c0.5-0.3,0.8-0.3,1.3,0.1c4.3,4.3,8.6,8.6,12.9,12.8c2.5,2.4,6.4,1.9,8.2-1c1.2-2,0.9-4.6-0.8-6.3c-4.3-4.3-8.6-8.6-13-12.8
		c-0.4-0.4-0.5-0.7-0.2-1.2c3.3-5.5,4.2-11.4,2.8-17.6C48,9.6,38,2,26.8,2.1z"/>
	<path class="st1" d="M26.8,2.1C38,2,48,9.6,50.5,20.6c1.4,6.2,0.5,12.1-2.8,17.6c-0.3,0.5-0.2,0.8,0.2,1.2c4.3,4.3,8.7,8.5,13,12.8
		c1.7,1.7,2,4.3,0.8,6.3c-1.8,2.9-5.8,3.4-8.2,1c-4.3-4.3-8.6-8.5-12.9-12.8c-0.4-0.5-0.7-0.4-1.3-0.1c-3,1.8-6.3,2.9-9.9,3.2
		c-8.1,0.7-14.9-2-20.4-7.9C5.7,38.3,3.7,33.9,3.1,29c-0.8-6.9,1-13.1,5.5-18.4c3.8-4.5,8.7-7.3,14.6-8.2
		C24.5,2.2,25.7,2.1,26.8,2.1z M46.1,26c0-1,0-1.9-0.2-2.9c-0.7-4.5-2.8-8.3-6.3-11.3c-4.5-3.9-9.8-5.4-15.7-4.4
		c-4.6,0.7-8.5,3-11.5,6.6c-3.4,4.1-4.9,8.9-4.3,14.3c0.6,4.9,2.8,9,6.6,12.3c0.4,0.3,0.5,0.4,0.6-0.2c0.9-4.1,4.4-6.9,8.6-6.9
		c2.3,0,4.6,0,7,0c0.6,0,1.2,0.1,1.8,0.2c3.4,0.8,5.6,2.9,6.6,6.2c0.1,0.4,0.2,0.7,0.6,0.2C44,36.2,46,31.5,46.1,26z"/>
	<path class="st2" d="M46.1,26C46,31.5,44,36.2,39.9,40c-0.5,0.4-0.5,0.2-0.6-0.2c-1-3.3-3.3-5.4-6.6-6.2c-0.6-0.1-1.2-0.2-1.8-0.2
		c-2.3,0-4.6,0-7,0c-4.2,0-7.7,2.8-8.6,6.9c-0.1,0.6-0.3,0.5-0.6,0.2c-3.8-3.2-6.1-7.3-6.6-12.3c-0.6-5.3,0.8-10.1,4.3-14.3
		c3-3.6,6.9-5.8,11.5-6.6c5.9-0.9,11.2,0.5,15.7,4.4c3.5,3,5.5,6.8,6.3,11.3C46,24.1,46.1,25,46.1,26z M19.5,22.9
		c0,4.4,3.4,7.8,7.8,7.8c4.4,0,7.9-3.4,7.9-7.8c0-4.3-3.5-7.8-7.9-7.8C23,15.2,19.6,18.6,19.5,22.9z"/>
	<path class="st1" d="M19.5,22.9c0-4.3,3.5-7.8,7.8-7.8c4.4,0,7.9,3.5,7.9,7.8c0,4.3-3.5,7.8-7.9,7.8C23,30.7,19.5,27.3,19.5,22.9z"
		/>
</g>
</svg>
