<svg class="svgicon" id="svg114" preserveAspectRatio="xMidYMid meet" xmlns="http://www.w3.org/2000/svg" viewBox="0 0 60 60"><style> #svg114 path, #svg114 circle, #svg114 polygon, #svg114 rect { fill: rgb(96, 181, 126) } #svg114 defs &gt; path { fill: none }  #svg114 path[fill="none"], #svg114 circle[fill="none"], #svg114 polygon[fill="none"], #svg114 rect[fill="none"] { fill: none } </style><style type="text/css"> #svg114 .st0{fill:none;stroke:rgb(96, 181, 126);stroke-width:1.5;stroke-linecap:round;stroke-linejoin:round;stroke-miterlimit:10;} </style><path class="st0" d="M23.383,38.943l-6.263,9.549c-1.223,1.457-2.578,2.355-3.423,1.699c-0.846-0.658-0.893-8.681-2.223-9.713 c-1.329-1.031-9.292,1.319-10.103,0.143c-0.811-1.173-0.217-2.119,1.005-3.574L13.5,26.585"></path><path class="st0" d="M36.575,38.878l6.304,9.614c1.223,1.457,2.578,2.355,3.424,1.699c0.846-0.658,0.893-8.681,2.223-9.713 c1.329-1.031,9.292,1.319,10.103,0.143c0.811-1.173,0.217-2.119-1.006-3.574l-11.15-10.488"></path><path class="st0" d="M45.273,23.14l-2.385-2.385v-3.372c0-2.309-1.873-4.183-4.184-4.183h-3.373l-2.385-2.385 c-1.634-1.634-4.283-1.634-5.917,0L24.646,13.2h-3.373c-2.31,0-4.184,1.874-4.184,4.183v3.372l-2.385,2.385 c-1.633,1.635-1.633,4.284,0,5.918l2.385,2.385v3.372c0,2.312,1.874,4.184,4.184,4.184h3.373l2.384,2.385 c1.634,1.633,4.283,1.633,5.917,0l2.385-2.385h3.372c2.311,0,4.184-1.873,4.184-4.184v-3.372l2.385-2.385 C46.906,27.424,46.906,24.775,45.273,23.14z"></path><circle class="st0" cx="29.989" cy="26.099" r="11.505"></circle><polygon class="st0" points="29.987,17.485 32.517,22.607 38.17,23.43 34.079,27.417 35.044,33.047 29.987,30.389 24.93,33.047 25.896,27.417 21.806,23.43 27.459,22.607 "></polygon></svg>