<svg class="svgicon" id="svg110" preserveAspectRatio="xMidYMid meet" xmlns="http://www.w3.org/2000/svg" viewBox="0 0 60 60"><style> #svg110 path, #svg110 circle, #svg110 polygon, #svg110 rect { fill: rgb(96, 181, 126) } #svg110 defs &gt; path { fill: none }  #svg110 path[fill="none"], #svg110 circle[fill="none"], #svg110 polygon[fill="none"], #svg110 rect[fill="none"] { fill: none } </style><style type="text/css"> #svg110 .st0{fill:none;stroke:rgb(96, 181, 126);stroke-width:1.5;stroke-linecap:round;stroke-linejoin:round;stroke-miterlimit:10;} </style><path class="st0" d="M4.015,32.625v20.214c0,1.737,1.407,3.146,3.143,3.146h45.685c1.735,0,3.143-1.408,3.143-3.146V18.75"></path><path class="st0" d="M55.984,10.125V7.158c0-1.737-1.407-3.143-3.143-3.143H7.157c-1.735,0-3.143,1.405-3.143,3.143V23.75"></path><path class="st0" d="M58.624,12.583c-1.226-3.157-3.718-2.658-6.419-2.121c-1.614,0.335-8.793,2.436-20.149,14.41 c-4.713,4.971-7.822,8.936-9.868,11.954c-1.252-1.534-2.683-3.178-4.188-4.683c-4.628-4.624-9.787-7.8-10.003-7.935 c-2.166-1.323-4.993-0.643-6.319,1.523c-1.326,2.162-0.646,4.991,1.515,6.32c0.045,0.029,4.476,2.767,8.304,6.596 c3.902,3.903,7.438,9.185,7.476,9.234c0.859,1.294,2.306,2.052,3.826,2.052c0.261,0,0.525-0.023,0.787-0.071 c1.795-0.311,3.237-1.651,3.677-3.418c0.011-0.044,1.836-5.085,11.469-15.241c7.76-8.184,12.935-10.786,14.728-11.508 c0.018-0.003,0.029-0.003,0.053-0.009c-0.009,0.003,0.058-0.029,0.166-0.076c0.308-0.117,0.473-0.161,0.482-0.161 c-0.088,0.021-0.135,0.026-0.135,0.026l-0.003-0.018c0.83-0.361,2.384-1.03,2.416-1.042 C58.776,17.454,59.538,14.939,58.624,12.583z"></path></svg>