<svg class="svgicon" id="svg143" preserveAspectRatio="xMidYMid meet" xmlns="http://www.w3.org/2000/svg" viewBox="0 0 128 128"><rect x="1.92" y="1.92" width="124.16" height="124.16" style="stroke: rgb(96, 181, 126); fill: none; stroke-alignment: inside; stroke-width: 3.84" rx="62.08" ry="62.08"></rect><g transform="scale(0.66) translate(32.96969696969697, 32.96969696969697)"><style> #svg143 path, #svg143 circle, #svg143 polygon, #svg143 rect { fill: rgb(96, 181, 126) } #svg143 defs &gt; path { fill: none }  #svg143 path[fill="none"], #svg143 circle[fill="none"], #svg143 polygon[fill="none"], #svg143 rect[fill="none"] { fill: none } </style><style type="text/css"> #svg143 .st0{fill:rgb(96, 181, 126);} </style><path class="st0" d="M41.129,53.322c4.168,12.5,12.738,19.963,22.926,19.963c10.294,0,18.898-7.566,23.016-20.242 c0.244-0.754,0.614-1.289,1.126-2.029c1.617-2.34,2.956-4.744,2.956-10.477c0-22.504-14.047-32.752-27.098-32.752 c-13.645,0-27.412,10.127-27.412,32.752c0,6.203,1.799,8.674,3.244,10.66C40.459,51.984,40.872,52.553,41.129,53.322z M48.851,36.41c0.445-1.164,0.481-2.396,0.513-3.484c0.062-2.094,0.182-2.807,1.384-3.221c0.929-0.32,1.758-0.477,2.537-0.477 c1.72,0,2.986,0.785,4.454,1.695c1.678,1.041,3.579,2.221,6.322,2.221c2.884,0,4.923-1.059,6.721-1.994 c1.593-0.826,2.968-1.541,4.814-1.541c0.6,0,1.216,0.074,1.884,0.225c0.916,0.207,1.124,0.732,1.234,3.121 c0.053,1.127,0.106,2.293,0.52,3.357c0.104,0.27,0.541,1.146,1.807,1.146c0.824,0,1.919-0.4,3.188-0.865 c0.667-0.242,1.597-0.582,2.204-0.727c0.402,1.467,0.002,4.742-0.227,6.605c-0.148,1.213-0.276,2.26-0.271,2.953 c-0.088,0.371-0.953,1.291-1.471,1.842c-0.992,1.057-1.929,2.053-2.117,3.188c-1.66,10.057-9.18,17.08-18.285,17.08 c-9.218,0-16.755-7.139-18.329-17.357c-0.171-1.123-1.12-2.09-2.125-3.113c-0.479-0.486-1.27-1.291-1.41-1.65 c-0.012-0.828-0.202-1.969-0.423-3.285c-0.291-1.736-0.801-4.779-0.492-6.129c0.644,0.127,1.648,0.469,2.425,0.73 c1.322,0.449,2.465,0.836,3.305,0.836C48.311,37.566,48.749,36.678,48.851,36.41z"></path><path class="st0" d="M85.485,68.947c-1.216-0.816-2.846-0.635-3.852,0.434c-5.222,5.537-11.284,8.463-17.532,8.463h-0.204 c-6.247,0-12.31-2.926-17.531-8.463c-1.007-1.068-2.637-1.25-3.852-0.434c-14.355,9.611-23.323,28.104-23.403,48.256 c-0.003,0.799,0.312,1.564,0.874,2.129c0.563,0.566,1.328,0.883,2.126,0.883h41.786c0.069,0,0.137,0,0.204,0h41.786 c0.798,0,1.562-0.316,2.126-0.883c0.562-0.564,0.877-1.33,0.874-2.129C108.809,97.051,99.841,78.561,85.485,68.947z"></path></g></svg>